<?xml version="1.0" standalone="no"?>
<!DOCTYPE svg PUBLIC "-//W3C//DTD SVG 20010904//EN"
 "http://www.w3.org/TR/2001/REC-SVG-20010904/DTD/svg10.dtd">
<svg version="1.0" xmlns="http://www.w3.org/2000/svg"
 width="260.000000pt" height="260.000000pt" viewBox="0 0 260.000000 260.000000"
 preserveAspectRatio="xMidYMid meet">
<metadata>
Created by potrace 1.11, written by Peter Selinger 2001-2013
</metadata>
<g transform="translate(0.000000,260.000000) scale(0.100000,-0.100000)"
fill="#000000" stroke="none">
<path d="M730 2560 c0 -5 -17 -10 -39 -10 -22 0 -44 -6 -51 -15 -7 -8 -26 -15
-41 -15 -22 0 -32 -6 -39 -25 -7 -18 -17 -25 -36 -25 -15 0 -42 -11 -60 -25
-18 -14 -42 -25 -53 -25 -13 0 -21 -8 -23 -22 -2 -14 -11 -24 -23 -26 -11 -2
-29 -15 -39 -29 -17 -23 -20 -42 -18 -131 2 -109 5 -122 26 -122 15 0 96 79
96 94 0 16 94 111 115 116 11 3 24 16 30 28 5 12 17 22 27 22 9 0 21 6 25 13
12 18 49 37 73 37 13 0 24 10 30 25 8 20 16 25 44 25 18 0 39 7 46 15 7 8 20
15 29 15 9 0 21 4 27 9 5 6 41 11 79 13 l70 3 3 33 3 32 -150 0 c-94 0 -151
-4 -151 -10z"/>
<path d="M1180 2455 c0 -28 5 -37 29 -50 17 -8 37 -25 45 -36 24 -35 48 -18
44 32 -3 37 -8 44 -46 65 -59 33 -72 31 -72 -11z"/>
<path d="M1065 2225 c-16 -13 -36 -24 -42 -25 -7 0 -13 -4 -13 -10 0 -5 -18
-10 -41 -10 -38 0 -99 -24 -107 -42 -2 -5 -21 -8 -42 -8 -26 0 -48 -8 -68 -25
-21 -18 -42 -25 -70 -25 -23 0 -47 -7 -56 -15 -8 -8 -23 -15 -33 -15 -11 0
-23 -4 -29 -9 -5 -5 -46 -11 -91 -13 -45 -2 -85 -6 -89 -10 -4 -5 -2 -19 4
-33 11 -24 15 -25 106 -25 52 0 98 4 101 10 12 19 22 10 17 -15 -3 -20 -10
-25 -34 -25 -43 0 -118 -51 -118 -82 0 -10 -9 -18 -22 -20 -37 -5 -36 -45 2
-79 36 -34 76 -38 85 -10 5 17 17 20 80 23 l75 3 0 -27 c0 -27 2 -28 49 -28
34 0 65 8 97 25 33 18 63 25 101 25 51 0 78 9 116 39 9 8 39 15 66 15 35 1 56
7 73 22 13 12 41 24 62 27 21 4 49 15 61 27 12 11 31 20 42 20 14 0 26 12 37
38 9 20 21 45 26 54 16 29 12 68 -7 74 -10 3 -28 10 -39 16 -31 15 -59 6 -62
-20 -3 -20 -9 -22 -64 -22 -60 0 -60 0 -54 -26 6 -22 4 -24 -11 -15 -10 5 -31
7 -46 4 -25 -5 -27 -3 -27 30 0 34 1 34 40 33 32 0 45 5 64 27 13 15 27 27 31
27 5 0 26 8 47 17 36 16 38 20 38 60 l0 43 -112 0 c-105 0 -115 -2 -143 -25z"/>
<path d="M1335 1854 c-22 -12 -52 -23 -66 -23 -35 -1 -77 -24 -96 -51 -14 -19
-22 -22 -62 -17 -33 4 -56 0 -83 -14 -20 -10 -57 -19 -81 -19 -42 0 -100 -21
-112 -41 -4 -5 -24 -9 -46 -9 -37 0 -65 -10 -99 -37 -8 -6 -42 -13 -75 -15
-49 -2 -60 0 -63 14 -2 13 5 17 35 20 30 2 38 7 38 23 0 15 -8 21 -33 23 -19
2 -41 -3 -50 -11 -10 -8 -25 -17 -34 -20 -10 -4 -18 -13 -18 -20 0 -8 -7 -20
-15 -27 -21 -17 -19 -59 3 -66 9 -3 27 -11 40 -17 16 -8 25 -8 34 1 7 7 43 12
89 12 56 0 80 4 89 15 7 8 25 15 41 15 16 0 29 5 29 10 0 6 20 10 44 10 36 0
49 5 64 25 14 18 30 25 52 25 20 0 46 10 66 25 24 19 45 25 81 25 37 0 52 5
68 23 13 15 35 26 63 29 37 5 42 4 42 -13 0 -12 -7 -19 -20 -19 -26 0 -80 -27
-80 -40 0 -6 -13 -10 -28 -10 -42 0 -92 -28 -92 -51 0 -35 114 -23 154 16 9 9
34 19 56 22 21 3 47 14 56 24 9 11 22 19 29 19 7 0 20 10 31 21 10 12 29 25
42 30 18 7 22 16 22 48 0 63 -49 83 -115 45z"/>
<path d="M1365 1663 c-11 -3 -25 -12 -32 -20 -7 -9 -29 -17 -50 -18 -47 -3
-70 -12 -77 -31 -3 -9 -20 -14 -45 -14 -22 0 -43 -4 -46 -10 -3 -5 -13 -10
-22 -10 -9 0 -24 -7 -34 -16 -9 -8 -27 -15 -40 -16 -13 0 -37 -5 -52 -11 -20
-7 -31 -7 -39 1 -8 8 -7 13 5 18 17 6 24 44 9 44 -31 0 -130 -25 -143 -36 -8
-8 -30 -14 -47 -14 -17 0 -34 -4 -37 -10 -3 -5 -13 -10 -21 -10 -7 0 -33 -18
-55 -40 -23 -22 -49 -40 -59 -40 -16 0 -50 -29 -50 -42 0 -3 16 -15 36 -27 36
-21 80 -28 86 -13 2 5 31 12 66 15 57 6 62 5 62 -13 0 -11 -6 -20 -14 -20 -8
0 -28 -11 -44 -25 -16 -13 -32 -22 -35 -19 -3 4 -21 -3 -40 -15 -29 -18 -46
-44 -47 -72 0 -13 50 -59 65 -59 8 0 24 -5 34 -12 22 -14 141 9 148 29 3 7 20
13 38 13 19 0 37 5 40 10 3 6 15 10 26 10 10 0 19 5 19 10 0 6 13 10 28 10 16
0 42 11 58 25 16 14 39 25 51 25 12 0 35 11 51 25 17 14 36 25 43 25 18 0 113
33 119 41 3 4 35 10 73 14 58 6 67 5 67 -9 0 -9 -5 -16 -10 -16 -6 0 -15 -11
-20 -25 -5 -14 -15 -25 -21 -25 -15 0 -59 -42 -59 -57 0 -7 -5 -13 -11 -13 -5
0 -16 -15 -24 -32 -7 -18 -34 -49 -59 -68 -25 -19 -48 -44 -51 -55 -4 -12 -16
-25 -28 -30 -29 -13 -40 -87 -26 -175 5 -35 7 -99 3 -142 -6 -72 -8 -78 -29
-78 -13 0 -25 6 -28 14 -6 16 -56 24 -209 32 -73 4 -111 11 -119 20 -17 21
-297 20 -305 -1 -4 -10 -20 -15 -49 -15 -55 0 -95 -21 -111 -59 -7 -17 -18
-31 -24 -31 -6 0 -10 -26 -10 -65 0 -55 3 -65 18 -65 33 0 44 16 40 56 -3 38
-2 39 32 42 19 2 41 8 48 14 7 6 46 13 88 16 41 2 77 9 80 13 7 12 334 12 334
0 0 -4 27 -11 60 -15 33 -4 62 -11 65 -16 4 -6 24 -10 46 -10 29 0 41 -5 46
-17 9 -25 43 -57 76 -71 25 -11 27 -15 21 -47 l-6 -35 111 0 c67 0 111 4 111
10 0 13 107 13 115 0 3 -6 43 -10 88 -10 45 -1 100 -7 122 -15 22 -8 65 -15
96 -15 30 0 59 -4 65 -9 5 -5 60 -13 122 -16 l112 -8 0 32 0 31 -69 0 c-39 0
-73 5 -76 10 -3 6 -21 10 -38 10 -18 1 -43 7 -57 15 -16 9 -55 14 -111 15 -47
0 -89 4 -95 10 -5 5 -41 11 -79 14 -39 2 -83 9 -98 15 -16 6 -36 11 -46 11
-10 0 -28 11 -40 24 -13 14 -29 22 -37 19 -19 -7 -19 41 1 57 8 7 15 21 15 31
0 10 4 20 9 24 5 3 12 19 16 35 4 17 13 30 20 30 8 0 25 14 37 31 13 17 41 42
64 55 23 13 49 33 59 44 10 11 31 20 46 20 15 0 31 5 34 10 3 6 20 10 36 10
17 0 32 6 35 15 4 9 19 15 41 15 26 0 36 5 40 19 3 12 11 17 23 14 10 -3 21 0
24 6 4 6 20 11 36 11 16 0 32 5 35 10 3 6 19 10 34 10 15 0 33 6 40 13 11 10
14 10 18 0 7 -18 30 -16 37 3 3 9 6 28 6 44 0 49 -9 60 -50 60 -22 0 -42 -4
-45 -10 -3 -5 -30 -10 -59 -10 -35 0 -58 -5 -66 -15 -7 -8 -21 -15 -31 -15
-11 0 -19 -4 -19 -10 0 -5 -8 -10 -18 -10 -10 0 -29 -11 -42 -25 -14 -14 -35
-25 -50 -25 -15 0 -36 -11 -50 -25 -13 -14 -29 -25 -35 -25 -7 0 -27 -16 -46
-35 -19 -19 -42 -35 -52 -35 -9 0 -22 -11 -28 -24 -6 -13 -19 -26 -29 -29 -10
-2 -26 -22 -36 -43 -10 -22 -23 -42 -28 -46 -6 -4 -40 -7 -75 -6 -50 1 -66 -2
-76 -16 -8 -10 -23 -16 -37 -14 -27 4 -30 19 -28 162 1 88 4 102 26 131 13 18
24 41 24 52 0 11 11 30 25 43 14 13 25 31 25 39 0 9 25 41 55 70 30 30 57 63
60 72 4 10 15 21 27 25 44 13 58 36 58 91 0 47 -2 53 -21 53 -11 0 -34 8 -50
17 -25 15 -30 15 -46 2 -19 -17 -103 -26 -103 -11 0 17 25 32 52 32 17 0 31 7
38 20 6 11 16 20 23 20 21 1 57 37 57 59 0 11 5 32 12 46 7 15 8 29 2 34 -11
10 -92 20 -119 14z"/>
<path d="M962 1598 c3 -30 6 -33 37 -33 37 0 58 22 48 49 -4 11 -19 16 -47 16
-40 0 -41 -1 -38 -32z"/>
<path d="M2108 670 c-6 -20 4 -100 13 -100 12 0 12 97 0 104 -5 4 -11 2 -13
-4z"/>
<path d="M2134 475 c-8 -19 2 -45 16 -45 5 0 10 14 10 30 0 31 -16 41 -26 15z"/>
<path d="M1079 359 c-11 -6 -11 -11 -2 -20 12 -12 43 -6 43 10 0 14 -25 20
-41 10z"/>
<path d="M928 325 c-15 -14 -31 -25 -37 -25 -13 0 -75 -33 -79 -42 -2 -5 -16
-8 -30 -8 -15 -1 -38 -7 -52 -15 -14 -8 -40 -14 -58 -15 -25 0 -35 -5 -39 -20
-6 -22 -55 -50 -89 -50 -13 0 -26 -4 -29 -10 -9 -15 -72 -42 -106 -45 -40 -3
-51 -16 -47 -56 3 -33 4 -34 56 -37 40 -2 54 1 58 12 3 9 14 16 24 16 11 0 22
4 25 10 3 5 15 10 26 10 11 0 22 7 25 15 4 8 14 15 23 15 10 0 28 11 41 25 12
13 39 30 59 36 20 7 50 23 67 36 17 12 36 23 42 23 6 0 12 3 14 8 2 4 28 15
58 26 30 10 62 24 70 31 8 7 29 15 45 17 23 2 31 9 33 27 7 46 -57 56 -100 16z"/>
<path d="M344 169 c-8 -14 11 -33 25 -25 11 7 4 36 -9 36 -5 0 -12 -5 -16 -11z"/>
</g>
</svg>
