<?xml version="1.0" encoding="UTF-8"?>
<!DOCTYPE svg PUBLIC "-//W3C//DTD SVG 1.1//EN" "http://www.w3.org/Graphics/SVG/1.1/DTD/svg11.dtd">
<!-- Creator: CorelDRAW 2017 -->
<svg xmlns="http://www.w3.org/2000/svg" xml:space="preserve" width="210mm" height="297mm" version="1.1" style="shape-rendering:geometricPrecision; text-rendering:geometricPrecision; image-rendering:optimizeQuality; fill-rule:evenodd; clip-rule:evenodd"
viewBox="0 0 21000 29700"
 xmlns:xlink="http://www.w3.org/1999/xlink">
 <defs>
  <style type="text/css">
   <![CDATA[
    .fil0 {fill:#1C1B17}
   ]]>
  </style>
 </defs>
 <g id="Слой_x0020_1">
  <metadata id="CorelCorpID_0Corel-Layer"/>
  <path class="fil0" d="M4630.96 6932.83c82.41,-149.29 1089.63,-2125.97 2980.11,-2690.56 589.53,-176.05 1886.74,-642.08 2643.57,-449.65 801.63,203.83 1092.46,1036.43 1092.46,1036.43 164.79,202.65 621.69,-110.08 398.23,-325.84 -1454.68,-1598.32 -5275.61,-1588.27 -7457.86,1074.08 44.24,526.96 88.5,1053.91 132.74,1580.87 0,335.38 278,737.86 635.06,718.53 2441.61,-76.67 4458.84,-1810.16 5881.04,-1675.84 27.44,2.6 80.39,19.25 107.62,79.34 24.58,54.07 32.77,150.49 -91.72,183.56 -881.56,242.8 -3495.35,1423.68 -5020.24,1808.67 -227.12,65.77 -568.17,201.94 -713.3,282.95 -574.05,320.43 -320.85,1065.02 365.7,1156.47 1363.16,181.62 4470.09,-1775.52 5815.07,-2356.21 574.96,-229.64 750.54,184.2 473,455.04 -201.66,196.78 -723.65,385.79 -1263.02,582.74 -593.5,216.74 -1211.36,435.6 -1520.51,508.67 -617.49,145.97 -1163.72,333.7 -1752.01,551.4 -579.04,214.28 -1296.45,399.96 -1754.9,759.14 -355.94,261.44 -200.8,531.79 -82.83,639.62 338.27,309.1 1899.6,-0.69 2167.31,-91.32 1224.12,-414.43 3230.59,-1488.69 4333.19,-1753.03 340.37,-96.85 334.83,150.04 103.72,346.89 -284.11,205.06 -632.5,373.85 -1018.09,520.03 -1772.53,671.95 -4192.41,1209.31 -4897.98,2108.93 -931.11,1282.83 1519.8,487.09 1986.83,320.94 1202.18,-427.74 2332.01,-1060.67 3534.23,-1488.43 730.36,-292.27 530.06,65.93 163.7,317.86 -577.73,527.35 -4483.89,1601.81 -4818.58,1915.38 -1051.56,771.18 -510.33,1422.82 782.2,1211.07 379.71,-87.73 5677.1,-2494.45 5085.12,-1446.49 -351.77,299.03 -611.54,577.11 -867.12,864.59 -560.8,630.86 -1157.93,1079.55 -1307.99,1939.33 -109.08,625 -5.29,1824.03 76.71,2504.63 -2917.39,-650.32 -4968.17,-801.99 -6662.71,27.91 -31.31,1605.85 343.47,3290.28 698.91,4880.06 27.09,69.85 54.39,146.36 91.4,178.99 43.52,38.38 144.09,47 200.1,-5.52 1641.19,-1166.87 3531.9,-2193.42 5623.91,-3038.35 17.06,-118.79 22.67,-53.09 33.96,-174.21 -1752.4,729.79 -3528.9,1610.46 -5281.29,2340.24 -363.7,113.05 -595.6,105.61 -637.5,-103.17 -151.17,-974.44 -445.75,-2408.09 -431.63,-3407.66 -29.62,-298.68 12.02,-345.34 368.58,-418.77 2004.37,-512.16 3988.37,-431.98 5886.01,408.9 230.63,346.47 325.96,775.9 363.52,1138.5 2394.26,-414.8 4668.69,-209.83 6902.07,212.61 164.47,14.05 240.39,-50.54 260.05,-165.2 -143.72,-1825.55 -202.99,-3530.45 -346.71,-5356 -4.83,-55.44 -37.54,-79.02 -98.68,-70.13 -1855.49,237.79 -5105.07,2650.9 -5028.99,2824.52 -372.8,39.02 -1063.11,99.86 -1395.27,230.26 -20.2,-18.13 -40.39,-36.24 -60.59,-54.37 -201.76,-778.27 -144.36,-1426.83 164.61,-2153.63 193.7,-455.67 553.68,-983.4 978.36,-1427.6 349.33,-365.41 744.48,-633.44 1110.16,-1111.98 228.8,-519.27 -50.77,-1077 -658.91,-1049.06 -1739.86,327.18 -3028.76,1144.57 -4661.84,1820.22 -1229.22,359.16 -1243.01,-89.42 -185.06,-459.03 1813.85,-485.97 2672.36,-966.07 4559.78,-1978.44 974.67,-760.32 630.13,-1348.74 -406.23,-982.78 -1609.04,583.28 -2818.22,1021.6 -4427.26,1604.89 -1288.38,444.49 -1170.86,189.01 -136.19,-187.14 1736.77,-764.55 2950.97,-919.85 4609.7,-2033.31 934.17,-598.64 590.79,-1263.59 -469.6,-954.19 -1546.31,515.23 -2593.61,1051.68 -4139.85,1566.85 -403.17,134.32 -826.34,233.8 -1265.78,229.4 -151.54,-8.35 -224.72,-159.27 -110.69,-242.26 379.38,-202.74 794.16,-277.75 1188.33,-401.12 1182.38,-370.06 2361.04,-599.71 3403.19,-949.52 536.9,-197.63 1363.75,-702.01 1512.76,-916.97 559.5,-807.01 87.62,-1317.02 -713.44,-1114.26 -853.41,374.53 -5360.1,2546.79 -6065.35,2321.45 -111.41,-35.58 -99.34,-180.64 -8.67,-260.73 276.63,-244.43 1235.22,-536.86 1248.68,-541.47 1344.02,-461.48 3218.58,-973.02 4041.32,-1348.08 1437.25,-655.01 1382.32,-1011.61 1050.34,-1203.36 -82.58,-32.13 -179.8,-48.55 -274.82,-46.63 -2825.41,57.12 -4543.62,1792.96 -7007.26,1665.78 -133.77,-90.72 -154.32,-229.29 -12.88,-485.43zm6693.13 12546.85c383.59,-123.67 780.1,-231.63 1195.88,-242.67 -12.06,-506.84 -22.85,-959.14 -34.91,-1465.98 -417.43,250.19 -913.99,457.79 -1556.73,579.25 222.97,386.16 365.86,743.24 395.76,1129.4zm6283.81 -4315.28c283.44,1628.2 275.16,3191.63 265.5,4754.69 -1312.21,-353.2 -2987.89,-600.16 -5008.13,-712 -26.55,-582.35 -29.81,-978.52 -24.13,-1303.31 1335.24,-1230.3 2916.69,-2152.72 4766.76,-2739.38z"/>
 </g>
</svg>
