<!--?xml version="1.0" encoding="UTF-8" standalone="no"?-->

<svg version="1.1" xmlns="http://www.w3.org/2000/svg" xmlns:xlink="http://www.w3.org/1999/xlink" preserveAspectRatio="xMidYMid meet" viewBox="0 0 640 640" width="640" height="640" style="" class=""><defs><path d="M320 246.12C323.92 242.17 331.76 239.38 343.52 237.78" id="h1CvleWSP3" class="TnMkuZpJ_0"></path><path d="M321.41 218.66C320.27 198.74 321.64 192.35 321.41 184.04C321.18 175.73 346.35 157.71 348.89 148.94C351.43 140.16 352.59 139.7 348.89 136.7C345.19 133.69 336.19 139.01 302.47 150.78C268.75 162.56 265.06 160.71 262.28 157.48C260.44 155.33 272.75 150.01 299.24 141.55C341.27 124.92 356.97 116.3 346.35 115.68C330.41 114.76 326.03 124.69 282.15 134.85C252.89 141.62 249.97 139.85 273.37 129.54C323.87 109.37 346.66 97.67 341.73 94.43C334.34 89.58 318.64 102.98 269.21 113.83C219.79 124.69 262.52 105.98 293.23 96.05C313.71 89.43 328.87 82.5 338.73 75.26C347.97 64.64 331.11 67.26 288.15 83.12C245.19 98.97 229.74 102.09 241.78 92.48C256.3 83.89 271.49 77.62 287.33 73.66C303.17 69.7 317.36 64.09 329.9 56.83C333.2 49.57 317.03 51.88 281.39 63.76C245.74 75.64 227.92 72.34 227.92 53.86C227.26 39.34 239.14 28.12 263.56 20.2C287.99 12.28 310.1 14.59 329.9 27.13" id="a3JljyAkp1" class="TnMkuZpJ_1"></path><path d="M345.8 214.82C336.16 213.99 327.24 215.64 319.04 219.74" id="a1c62EVMP" class="TnMkuZpJ_2"></path><path d="M345.52 240.02C341.87 230.22 341.43 221.9 344.18 215.06" id="dnezaBQPq" class="TnMkuZpJ_3"></path><path d="M320.29 218.99C325.13 225.76 325.65 234.43 321.86 244.99" id="j8rLrxB5yN" class="TnMkuZpJ_4"></path><path d="M417.63 172.57C392.74 173.84 367.45 188.85 341.74 217.57" id="dkQGSDIWS" class="TnMkuZpJ_5"></path><path d="M422.11 247.42C410.65 228.18 408.36 202.93 415.23 171.67" id="afLH0FQg1" class="TnMkuZpJ_6"></path><path d="M343.96 238.1C346.34 234.44 371.64 237.12 419.85 246.12" id="c5DB7YxzxS" class="TnMkuZpJ_7"></path><path d="M321.25 244.82C282.47 253.22 253.61 267.13 234.65 286.57C220.35 254 216.24 233 222.33 223.56C228.41 214.12 260.97 212.54 320 218.83" id="c2VaVuvY4P" class="TnMkuZpJ_8"></path><path d="M114.75 374.79L114.75 215.22L175.8 215.22" id="ap72EM5XM" class="TnMkuZpJ_9"></path><path d="M531 374.79L531 214.61L479.87 214.61" id="g5y9Bv0rM" class="TnMkuZpJ_10"></path><path d="M118.5 478.31L118.5 628.31L531 628.31L531 474.91" id="a1sq6stYvp" class="TnMkuZpJ_11"></path><path d="" id="b58pMLhw9" class="TnMkuZpJ_12"></path><path d="M240.85 366.64C234.46 331.62 230.58 314.45 229.24 315.12C227.89 315.8 223.71 332.97 216.7 366.64" id="d1cnoq5RCC" class="TnMkuZpJ_13"></path><path d="M236.75 348.44L221.84 348.44" id="b3aeHv17LP" class="TnMkuZpJ_14"></path><path d="M252.03 364.07C257.24 363.1 259.42 352.13 258.57 331.17L274.03 331.17L274.03 364.98" id="a5agWXsfw" class="TnMkuZpJ_15"></path><path d="M308.57 360.26C295.66 368.26 288.57 358.8 287.84 350.98C287.12 343.17 291.3 330.62 299.66 330.62C305.24 330.62 307.84 336.13 307.48 347.17L290.21 347.17" id="fAHc6v77B" class="TnMkuZpJ_16"></path><path d="M321.25 364.75L321.96 328.86" id="al9UtNp2T" class="TnMkuZpJ_17"></path><path d="M341.72 330.28C335.45 334.04 328.86 339.96 321.96 348.04" id="beJ94ShDM" class="TnMkuZpJ_18"></path><path d="M344.08 361.33C340.9 361.69 337.02 355.69 335.84 353.57C335.06 352.16 330.51 349.57 322.19 345.81" id="a1RxUHY4br" class="TnMkuZpJ_19"></path><path d="M370.26 362.01C367.55 362.25 352.98 365.71 352.73 348.18C352.57 336.49 358.58 330.4 370.76 329.91" id="b4gLc4bG9R" class="TnMkuZpJ_20"></path><path d="M399.2 359.98C395.65 363.98 381.42 364.87 378.76 354.2C376.09 343.54 381.87 329.76 391.2 330.2C397.42 330.5 400.09 335.98 399.2 346.65L379.2 347.09" id="b1FF7O9hnK" class="TnMkuZpJ_21"></path><path d="M413.23 364.53L413.42 329.32" id="a1SdGLGrOW" class="TnMkuZpJ_22"></path><path d="M433.35 331.75L413.75 362.87" id="f2yltcy07a" class="TnMkuZpJ_23"></path><path d="M432.83 364.53L433.15 329.36" id="d2cqPUcmxU" class="TnMkuZpJ_24"></path><path d="M418.13 313.43L419.06 318.09L430.63 317.91" id="a2RtxZXrFU" class="TnMkuZpJ_25"></path><path d="M55.88 418.93C56.03 422.14 52.67 424.5 45.82 426C53.31 426.42 56.81 428.57 56.31 432.42C55.81 436.27 51.67 437.84 43.89 437.13L43.93 413.75C51.75 413.99 55.74 415.72 55.88 418.93Z" id="a2Yp8kTKC" class="TnMkuZpJ_26"></path><path d="M80.51 434.24C63.59 445.05 60.49 417.75 69.91 414.11C76.19 411.69 79.9 414.83 81.04 423.53L66.59 423.43" id="b26fcABd1O" class="TnMkuZpJ_27"></path><path d="M107.72 443.19L109.09 437.19L91.47 436.94L90.97 440.06L91.72 443.56" id="g4F1ZMyB" class="TnMkuZpJ_28"></path><path d="M94.22 436.56C95.22 436.15 96.05 428.73 96.72 414.31L105.97 414.44L106.09 436.19" id="bdrNAXlrL" class="TnMkuZpJ_29"></path><path d="M115.97 451.31C117.47 451.06 118.72 449.23 119.72 445.81L131.22 412.44" id="a3tBMkwU45" class="TnMkuZpJ_30"></path><path d="M123.09 434.81L115.22 413.06" id="a2xy8vqIyW" class="TnMkuZpJ_31"></path><path d="M164.18 413.08L164.33 439.9C149.07 441.16 140.81 440.72 139.55 438.59C138.28 436.45 138.09 427.85 138.96 412.78" id="a2NEgICjE3" class="TnMkuZpJ_32"></path><path d="M151.94 438.15L152.23 413.66" id="e1TbevoSsc" class="TnMkuZpJ_33"></path><path d="M168.12 446.31L168.12 440.19L165.49 439.9" id="a1bnJjZLkR" class="TnMkuZpJ_34"></path><path d="M177.12 441.14L177.12 412.95" id="a45aXEE5r5" class="TnMkuZpJ_35"></path><path d="M191.89 416.69L177.29 437.74" id="e2IIN6AkAI" class="TnMkuZpJ_36"></path><path d="M191.55 441.14L191.38 413.29" id="biYSDWrwi" class="TnMkuZpJ_37"></path><path d="M201.73 440.46L201.56 413.29" id="bHVIck1Z4" class="TnMkuZpJ_38"></path><path d="M216.33 415.84L201.73 437.74" id="b1ug3j03lR" class="TnMkuZpJ_39"></path><path d="M216.84 440.29L216.5 413.46" id="b1OOTGZuft" class="TnMkuZpJ_40"></path><path d="M206.32 401.92L206.66 406.16L212.6 405.82" id="cQ6pVhVZI" class="TnMkuZpJ_41"></path><path d="M242.03 404.09C246.97 403.69 253.1 407.84 250.92 413.97C249.48 418.05 246.51 420.43 242.03 421.08C250.86 420.43 255.21 423.46 255.07 430.18C254.94 436.9 250.07 439.73 240.45 438.67L240.25 401.91" id="a30ge8Njt1" class="TnMkuZpJ_42"></path><path d="M276.62 437.49C279.65 417.59 275.23 409.69 263.38 413.77" id="f1eDyyLVC8" class="TnMkuZpJ_43"></path><path d="M277.41 435.51C272.86 440.65 258.63 438.28 263.18 429.58C266.21 423.79 270.95 422.27 277.41 425.04" id="a2tTvjg4jp" class="TnMkuZpJ_44"></path><path d="M314.57 414.1L314.34 438.47L288.87 438.87L288.87 413.97" id="a39RPPFr79" class="TnMkuZpJ_45"></path><path d="M300.31 437.78L300.31 414.33" id="b17aXFWsfy" class="TnMkuZpJ_46"></path><path d="M340.08 437.09C334.11 438.47 326.06 441.22 324.45 429.27C322.84 417.32 329.05 413.87 333.88 413.64C337.09 413.49 338.63 416.86 338.47 423.75L325.83 423.98" id="dIT5RUXH5" class="TnMkuZpJ_47"></path><path d="M358.54 413.08L347.8 413.23L348.13 438.7" id="a70Oj6j4Sn" class="TnMkuZpJ_48"></path><path d="M378.27 424.74C378.27 431.21 375 436.46 370.97 436.46C366.94 436.46 363.67 431.21 363.67 424.74C363.67 418.27 366.94 413.02 370.97 413.02C375 413.02 378.27 418.27 378.27 424.74Z" id="a3ByIdmBJ" class="TnMkuZpJ_49"></path><path d="M411.86 437.46L412.03 413.42L400.87 413.42L400.87 437.46" id="jt2Gjqq2t" class="TnMkuZpJ_50"></path><path d="M424.39 411.19L424.48 451.62" id="b4OmLLfX8b" class="TnMkuZpJ_51"></path><path d="M425.34 436C429.57 435.94 432.17 435.91 433.15 435.91C434.61 435.91 438.73 434.63 438.81 424.24C438.87 417.32 437.07 413.83 433.4 413.77L424.56 413.77" id="gdk7rRW0g" class="TnMkuZpJ_52"></path><path d="M461.4 439.72C466.28 420.19 462.62 411.91 450.44 414.87" id="a36YHUr5u" class="TnMkuZpJ_53"></path><path d="M462.3 434.21C457.76 439.35 443.53 436.98 448.07 428.29C451.1 422.49 455.85 420.97 462.3 423.74" id="a2Vgs7PMxl" class="TnMkuZpJ_54"></path><path d="M608.14 436.31C603.59 441.45 589.36 439.07 593.91 430.38C596.94 424.58 601.68 423.07 608.14 425.83" id="b2ffepwfO" class="TnMkuZpJ_55"></path><path d="M606.9 440.6C611.78 421.08 608.12 412.79 595.94 415.75" id="bH1gArSJD" class="TnMkuZpJ_56"></path><path d="M496.95 436.41C497.95 436 498.78 428.58 499.45 414.16L508.7 414.29L508.82 436.04" id="agtIvBo5a" class="TnMkuZpJ_57"></path><path d="M510.31 443.02L511.69 437.02L494.06 436.77L493.56 439.9L494.31 443.4" id="d9bcilak0" class="TnMkuZpJ_58"></path><path d="M471.13 436.08C471.99 437.63 482.17 439.7 483.89 433.5C485.04 429.36 481.42 427.06 473.03 426.6C478.32 427.52 481.25 424.99 481.82 419.01C482.4 413.04 478.72 411.71 470.79 415.05" id="bzhtrWLMj" class="TnMkuZpJ_59"></path><path d="M520.15 440.6L520.31 426.31L520.46 412.65" id="b2xCWodNNE" class="TnMkuZpJ_60"></path><path d="M534.49 440.62L534.65 426.33L534.8 412.67" id="c7PctnTbD" class="TnMkuZpJ_61"></path><path d="M547.15 440.86L547.31 426.57L547.46 412.91" id="gQBxZf9QG" class="TnMkuZpJ_62"></path><path d="M558.24 441.11L558.4 426.82L558.55 413.16" id="b3ij1lkunr" class="TnMkuZpJ_63"></path><path d="M534.93 425.88L520.28 425.99" id="bXGLFg4z" class="TnMkuZpJ_64"></path><path d="M558.09 417.15L547.46 437.29" id="bKi2ERAnO" class="TnMkuZpJ_65"></path><path d="M571.45 440.98L571.61 426.69L571.76 413.03" id="kPr5O7F" class="TnMkuZpJ_66"></path><path d="M572.12 426.98C573.13 423.74 577.07 419.49 583.93 414.22" id="ih61vp15e" class="TnMkuZpJ_67"></path><path d="M585.67 440.09C585.33 438.98 580.89 434.42 572.34 426.4" id="d1Denuu27M" class="TnMkuZpJ_68"></path><path d="M218.47 528.24C202.18 527.36 198.64 524.7 196.7 499.39C195.4 482.52 201.06 474.14 213.69 474.26" id="bR9bHxsi5" class="TnMkuZpJ_69"></path><path d="M244.66 528.42C233.86 530.72 231.03 524.88 229.79 521.69C228.55 518.51 228.55 491.6 237.76 490.9C243.89 490.43 246.78 495.79 246.43 507L229.09 506.47" id="d2LFPoKrF0" class="TnMkuZpJ_70"></path><path d="" id="bNhsMsixS" class="TnMkuZpJ_71"></path><path d="M279.17 490.54C260.77 488.6 262.18 498.51 262.18 513.2C262.18 522.99 260.41 527.77 256.87 527.53" id="a9Dd08dRn" class="TnMkuZpJ_72"></path><path d="M276.52 530.19L276.7 490.37" id="eyCchqjHa" class="TnMkuZpJ_73"></path><path d="M294.93 529.66L295.28 487.18" id="c5b84dfylP" class="TnMkuZpJ_74"></path><path d="M314.24 529.68L314.59 487.2" id="hDQaq21GZ" class="TnMkuZpJ_75"></path><path d="M314.22 490.54L294.93 526.65" id="c2dp5DGNd" class="TnMkuZpJ_76"></path><path d="M331.59 529.88L331.94 487.4" id="hiV19pAeB" class="TnMkuZpJ_77"></path><path d="M350.44 529.69L350.8 487.21" id="b2pGpz3MXE" class="TnMkuZpJ_78"></path><path d="M367.85 529.91L368.2 487.43" id="b297fghpp" class="TnMkuZpJ_79"></path><path d="M398.88 529.88L399.23 487.4" id="d6V9ZWEj6" class="TnMkuZpJ_80"></path><path d="M418.43 529.28L418.79 486.81" id="bHC2snvNl" class="TnMkuZpJ_81"></path><path d="M353.75 533.75C353.85 533.2 353.65 531.16 353.15 527.63L331.58 527.33" id="g19hAJKdvv" class="TnMkuZpJ_82"></path><path d="M367.67 507.5C371.38 509.43 377.03 502.82 384.62 487.64" id="bLy44zvlk" class="TnMkuZpJ_83"></path><path d="M385.58 529.05C385.91 520.17 380.26 513.23 368.64 508.22" id="albU3ryOI" class="TnMkuZpJ_84"></path><path d="M418.51 492.49L398.9 526.38" id="d1xiKu5fMh" class="TnMkuZpJ_85"></path><path d="M454.43 492.56L434.82 526.46" id="bAGfvnnWI" class="TnMkuZpJ_86"></path><path d="M434.73 529.85L435.09 487.37" id="bw1XZqipA" class="TnMkuZpJ_87"></path><path d="M454.18 529.93L454.54 487.45" id="cuRbjgIX7" class="TnMkuZpJ_88"></path><path d="M442.59 474.95C441.83 477.74 442.09 479.02 443.37 478.79C444.65 478.56 447.7 477.08 452.53 474.34" id="b2rHnZXyJO" class="TnMkuZpJ_89"></path><path d="" id="errFazULl" class="TnMkuZpJ_90"></path><path d="M419.21 172.18C417.75 171.87 415.56 172.08 412.64 172.82" id="a3iyG5tYK" class="TnMkuZpJ_91"></path><path d="M425.86 245.67C423.06 247.76 419.88 246.94 416.32 243.21" id="aiKx7Kfnl" class="TnMkuZpJ_92"></path><path d="" id="alGblemiI" class="TnMkuZpJ_93"></path><path d="M329.11 26.65C337.46 30.97 335.54 29.9 323.34 23.46" id="c3wYmPjD63" class="TnMkuZpJ_94"></path></defs><g><g><g><g><use xlink:href="#h1CvleWSP3" opacity="1" fill-opacity="0" stroke="#000000" stroke-width="7" stroke-opacity="1"></use></g></g><g><g><use xlink:href="#a3JljyAkp1" opacity="1" fill-opacity="0" stroke="#000000" stroke-width="8" stroke-opacity="1"></use></g></g><g><g><use xlink:href="#a1c62EVMP" opacity="1" fill-opacity="0" stroke="#000000" stroke-width="7" stroke-opacity="1"></use></g></g><g><g><use xlink:href="#dnezaBQPq" opacity="1" fill-opacity="0" stroke="#000000" stroke-width="7" stroke-opacity="1"></use></g></g><g><g><use xlink:href="#j8rLrxB5yN" opacity="1" fill-opacity="0" stroke="#000000" stroke-width="6" stroke-opacity="1"></use></g></g><g><g><use xlink:href="#dkQGSDIWS" opacity="1" fill-opacity="0" stroke="#000000" stroke-width="8" stroke-opacity="1"></use></g></g><g><g><use xlink:href="#afLH0FQg1" opacity="1" fill-opacity="0" stroke="#000000" stroke-width="8" stroke-opacity="1"></use></g></g><g><g><use xlink:href="#c5DB7YxzxS" opacity="1" fill-opacity="0" stroke="#000000" stroke-width="7" stroke-opacity="1"></use></g></g><g><g><use xlink:href="#c2VaVuvY4P" opacity="1" fill-opacity="0" stroke="#000000" stroke-width="8" stroke-opacity="1"></use></g></g><g><g><use xlink:href="#ap72EM5XM" opacity="1" fill-opacity="0" stroke="#000000" stroke-width="6" stroke-opacity="1"></use></g></g><g><g><use xlink:href="#g5y9Bv0rM" opacity="1" fill-opacity="0" stroke="#000000" stroke-width="6" stroke-opacity="1"></use></g></g><g><g><use xlink:href="#a1sq6stYvp" opacity="1" fill-opacity="0" stroke="#000000" stroke-width="6" stroke-opacity="1"></use></g></g><g><g><use xlink:href="#b58pMLhw9" opacity="1" fill-opacity="0" stroke="#000000" stroke-width="6" stroke-opacity="1"></use></g></g><g><g><use xlink:href="#d1cnoq5RCC" opacity="1" fill-opacity="0" stroke="#000000" stroke-width="6" stroke-opacity="1"></use></g></g><g><g><use xlink:href="#b3aeHv17LP" opacity="1" fill-opacity="0" stroke="#000000" stroke-width="6" stroke-opacity="1"></use></g></g><g><g><use xlink:href="#a5agWXsfw" opacity="1" fill-opacity="0" stroke="#000000" stroke-width="6" stroke-opacity="1"></use></g></g><g><g><use xlink:href="#fAHc6v77B" opacity="1" fill-opacity="0" stroke="#000000" stroke-width="6" stroke-opacity="1"></use></g></g><g><g><use xlink:href="#al9UtNp2T" opacity="1" fill-opacity="0" stroke="#000000" stroke-width="6" stroke-opacity="1"></use></g></g><g><g><use xlink:href="#beJ94ShDM" opacity="1" fill-opacity="0" stroke="#000000" stroke-width="6" stroke-opacity="1"></use></g></g><g><g><use xlink:href="#a1RxUHY4br" opacity="1" fill-opacity="0" stroke="#000000" stroke-width="6" stroke-opacity="1"></use></g></g><g><g><use xlink:href="#b4gLc4bG9R" opacity="1" fill-opacity="0" stroke="#000000" stroke-width="6" stroke-opacity="1"></use></g></g><g><g><use xlink:href="#b1FF7O9hnK" opacity="1" fill-opacity="0" stroke="#000000" stroke-width="6" stroke-opacity="1"></use></g></g><g><g><use xlink:href="#a1SdGLGrOW" opacity="1" fill-opacity="0" stroke="#000000" stroke-width="6" stroke-opacity="1"></use></g></g><g><g><use xlink:href="#f2yltcy07a" opacity="1" fill-opacity="0" stroke="#000000" stroke-width="6" stroke-opacity="1"></use></g></g><g><g><use xlink:href="#d2cqPUcmxU" opacity="1" fill-opacity="0" stroke="#000000" stroke-width="6" stroke-opacity="1"></use></g></g><g><g><use xlink:href="#a2RtxZXrFU" opacity="1" fill-opacity="0" stroke="#000000" stroke-width="6" stroke-opacity="1"></use></g></g><g><g><use xlink:href="#a2Yp8kTKC" opacity="1" fill-opacity="0" stroke="#000000" stroke-width="5" stroke-opacity="1"></use></g></g><g><g><use xlink:href="#b26fcABd1O" opacity="1" fill-opacity="0" stroke="#000000" stroke-width="5" stroke-opacity="1"></use></g></g><g><g><use xlink:href="#g4F1ZMyB" opacity="1" fill-opacity="0" stroke="#000000" stroke-width="5" stroke-opacity="1"></use></g></g><g><g><use xlink:href="#bdrNAXlrL" opacity="1" fill-opacity="0" stroke="#000000" stroke-width="5" stroke-opacity="1"></use></g></g><g><g><use xlink:href="#a3tBMkwU45" opacity="1" fill-opacity="0" stroke="#000000" stroke-width="5" stroke-opacity="1"></use></g></g><g><g><use xlink:href="#a2xy8vqIyW" opacity="1" fill-opacity="0" stroke="#000000" stroke-width="5" stroke-opacity="1"></use></g></g><g><g><use xlink:href="#a2NEgICjE3" opacity="1" fill-opacity="0" stroke="#000000" stroke-width="5" stroke-opacity="1"></use></g></g><g><g><use xlink:href="#e1TbevoSsc" opacity="1" fill-opacity="0" stroke="#000000" stroke-width="5" stroke-opacity="1"></use></g></g><g><g><use xlink:href="#a1bnJjZLkR" opacity="1" fill-opacity="0" stroke="#000000" stroke-width="3" stroke-opacity="1"></use></g></g><g><g><use xlink:href="#a45aXEE5r5" opacity="1" fill-opacity="0" stroke="#000000" stroke-width="5" stroke-opacity="1"></use></g></g><g><g><use xlink:href="#e2IIN6AkAI" opacity="1" fill-opacity="0" stroke="#000000" stroke-width="5" stroke-opacity="1"></use></g></g><g><g><use xlink:href="#biYSDWrwi" opacity="1" fill-opacity="0" stroke="#000000" stroke-width="5" stroke-opacity="1"></use></g></g><g><g><use xlink:href="#bHVIck1Z4" opacity="1" fill-opacity="0" stroke="#000000" stroke-width="5" stroke-opacity="1"></use></g></g><g><g><use xlink:href="#b1ug3j03lR" opacity="1" fill-opacity="0" stroke="#000000" stroke-width="5" stroke-opacity="1"></use></g></g><g><g><use xlink:href="#b1OOTGZuft" opacity="1" fill-opacity="0" stroke="#000000" stroke-width="5" stroke-opacity="1"></use></g></g><g><g><use xlink:href="#cQ6pVhVZI" opacity="1" fill-opacity="0" stroke="#000000" stroke-width="3" stroke-opacity="1"></use></g></g><g><g><use xlink:href="#a30ge8Njt1" opacity="1" fill-opacity="0" stroke="#000000" stroke-width="5" stroke-opacity="1"></use></g></g><g><g><use xlink:href="#f1eDyyLVC8" opacity="1" fill-opacity="0" stroke="#000000" stroke-width="5" stroke-opacity="1"></use></g></g><g><g><use xlink:href="#a2tTvjg4jp" opacity="1" fill-opacity="0" stroke="#000000" stroke-width="4" stroke-opacity="1"></use></g></g><g><g><use xlink:href="#a39RPPFr79" opacity="1" fill-opacity="0" stroke="#000000" stroke-width="5" stroke-opacity="1"></use></g></g><g><g><use xlink:href="#b17aXFWsfy" opacity="1" fill-opacity="0" stroke="#000000" stroke-width="5" stroke-opacity="1"></use></g></g><g><g><use xlink:href="#dIT5RUXH5" opacity="1" fill-opacity="0" stroke="#000000" stroke-width="5" stroke-opacity="1"></use></g></g><g><g><use xlink:href="#a70Oj6j4Sn" opacity="1" fill-opacity="0" stroke="#000000" stroke-width="5" stroke-opacity="1"></use></g></g><g><g><use xlink:href="#a3ByIdmBJ" opacity="1" fill-opacity="0" stroke="#000000" stroke-width="5" stroke-opacity="1"></use></g></g><g><g><use xlink:href="#jt2Gjqq2t" opacity="1" fill-opacity="0" stroke="#000000" stroke-width="5" stroke-opacity="1"></use></g></g><g><g><use xlink:href="#b4OmLLfX8b" opacity="1" fill-opacity="0" stroke="#000000" stroke-width="5" stroke-opacity="1"></use></g></g><g><g><use xlink:href="#gdk7rRW0g" opacity="1" fill-opacity="0" stroke="#000000" stroke-width="5" stroke-opacity="1"></use></g></g><g><g><use xlink:href="#a36YHUr5u" opacity="1" fill-opacity="0" stroke="#000000" stroke-width="5" stroke-opacity="1"></use></g></g><g><g><use xlink:href="#a2Vgs7PMxl" opacity="1" fill-opacity="0" stroke="#000000" stroke-width="4" stroke-opacity="1"></use></g></g><g><g><use xlink:href="#b2ffepwfO" opacity="1" fill-opacity="0" stroke="#000000" stroke-width="4" stroke-opacity="1"></use></g></g><g><g><use xlink:href="#bH1gArSJD" opacity="1" fill-opacity="0" stroke="#000000" stroke-width="5" stroke-opacity="1"></use></g></g><g><g><use xlink:href="#agtIvBo5a" opacity="1" fill-opacity="0" stroke="#000000" stroke-width="5" stroke-opacity="1"></use></g></g><g><g><use xlink:href="#d9bcilak0" opacity="1" fill-opacity="0" stroke="#000000" stroke-width="5" stroke-opacity="1"></use></g></g><g><g><use xlink:href="#bzhtrWLMj" opacity="1" fill-opacity="0" stroke="#000000" stroke-width="5" stroke-opacity="1"></use></g></g><g><g><use xlink:href="#b2xCWodNNE" opacity="1" fill-opacity="0" stroke="#000000" stroke-width="5" stroke-opacity="1"></use></g></g><g><g><use xlink:href="#c7PctnTbD" opacity="1" fill-opacity="0" stroke="#000000" stroke-width="5" stroke-opacity="1"></use></g></g><g><g><use xlink:href="#gQBxZf9QG" opacity="1" fill-opacity="0" stroke="#000000" stroke-width="5" stroke-opacity="1"></use></g></g><g><g><use xlink:href="#b3ij1lkunr" opacity="1" fill-opacity="0" stroke="#000000" stroke-width="5" stroke-opacity="1"></use></g></g><g><g><use xlink:href="#bXGLFg4z" opacity="1" fill-opacity="0" stroke="#000000" stroke-width="5" stroke-opacity="1"></use></g></g><g><g><use xlink:href="#bKi2ERAnO" opacity="1" fill-opacity="0" stroke="#000000" stroke-width="5" stroke-opacity="1"></use></g></g><g><g><use xlink:href="#kPr5O7F" opacity="1" fill-opacity="0" stroke="#000000" stroke-width="5" stroke-opacity="1"></use></g></g><g><g><use xlink:href="#ih61vp15e" opacity="1" fill-opacity="0" stroke="#000000" stroke-width="5" stroke-opacity="1"></use></g></g><g><g><use xlink:href="#d1Denuu27M" opacity="1" fill-opacity="0" stroke="#000000" stroke-width="5" stroke-opacity="1"></use></g></g><g><g><use xlink:href="#bR9bHxsi5" opacity="1" fill-opacity="0" stroke="#000000" stroke-width="5" stroke-opacity="1"></use></g></g><g><g><use xlink:href="#d2LFPoKrF0" opacity="1" fill-opacity="0" stroke="#000000" stroke-width="5" stroke-opacity="1"></use></g></g><g><g><use xlink:href="#bNhsMsixS" opacity="1" fill-opacity="0" stroke="#000000" stroke-width="5" stroke-opacity="1"></use></g></g><g><g><use xlink:href="#a9Dd08dRn" opacity="1" fill-opacity="0" stroke="#000000" stroke-width="5" stroke-opacity="1"></use></g></g><g><g><use xlink:href="#eyCchqjHa" opacity="1" fill-opacity="0" stroke="#000000" stroke-width="5" stroke-opacity="1"></use></g></g><g><g><use xlink:href="#c5b84dfylP" opacity="1" fill-opacity="0" stroke="#000000" stroke-width="5" stroke-opacity="1"></use></g></g><g><g><use xlink:href="#hDQaq21GZ" opacity="1" fill-opacity="0" stroke="#000000" stroke-width="5" stroke-opacity="1"></use></g></g><g><g><use xlink:href="#c2dp5DGNd" opacity="1" fill-opacity="0" stroke="#000000" stroke-width="5" stroke-opacity="1"></use></g></g><g><g><use xlink:href="#hiV19pAeB" opacity="1" fill-opacity="0" stroke="#000000" stroke-width="5" stroke-opacity="1"></use></g></g><g><g><use xlink:href="#b2pGpz3MXE" opacity="1" fill-opacity="0" stroke="#000000" stroke-width="5" stroke-opacity="1"></use></g></g><g><g><use xlink:href="#b297fghpp" opacity="1" fill-opacity="0" stroke="#000000" stroke-width="5" stroke-opacity="1"></use></g></g><g><g><use xlink:href="#d6V9ZWEj6" opacity="1" fill-opacity="0" stroke="#000000" stroke-width="5" stroke-opacity="1"></use></g></g><g><g><use xlink:href="#bHC2snvNl" opacity="1" fill-opacity="0" stroke="#000000" stroke-width="5" stroke-opacity="1"></use></g></g><g><g><use xlink:href="#g19hAJKdvv" opacity="1" fill-opacity="0" stroke="#000000" stroke-width="5" stroke-opacity="1"></use></g></g><g><g><use xlink:href="#bLy44zvlk" opacity="1" fill-opacity="0" stroke="#000000" stroke-width="5" stroke-opacity="1"></use></g></g><g><g><use xlink:href="#albU3ryOI" opacity="1" fill-opacity="0" stroke="#000000" stroke-width="5" stroke-opacity="1"></use></g></g><g><g><use xlink:href="#d1xiKu5fMh" opacity="1" fill-opacity="0" stroke="#000000" stroke-width="5" stroke-opacity="1"></use></g></g><g><g><use xlink:href="#bAGfvnnWI" opacity="1" fill-opacity="0" stroke="#000000" stroke-width="5" stroke-opacity="1"></use></g></g><g><g><use xlink:href="#bw1XZqipA" opacity="1" fill-opacity="0" stroke="#000000" stroke-width="5" stroke-opacity="1"></use></g></g><g><g><use xlink:href="#cuRbjgIX7" opacity="1" fill-opacity="0" stroke="#000000" stroke-width="5" stroke-opacity="1"></use></g></g><g><g><use xlink:href="#b2rHnZXyJO" opacity="1" fill-opacity="0" stroke="#000000" stroke-width="4" stroke-opacity="1"></use></g></g><g><g><use xlink:href="#errFazULl" opacity="1" fill-opacity="0" stroke="#000000" stroke-width="7" stroke-opacity="1"></use></g></g><g><g><use xlink:href="#a3iyG5tYK" opacity="1" fill-opacity="0" stroke="#000000" stroke-width="7" stroke-opacity="1"></use></g></g><g><g><use xlink:href="#aiKx7Kfnl" opacity="1" fill-opacity="0" stroke="#000000" stroke-width="7" stroke-opacity="1"></use></g></g><g><g><use xlink:href="#alGblemiI" opacity="1" fill-opacity="0" stroke="#000000" stroke-width="7" stroke-opacity="1"></use></g></g><g><g><use xlink:href="#c3wYmPjD63" opacity="1" fill-opacity="0" stroke="#000000" stroke-width="8" stroke-opacity="1"></use></g></g></g></g><style data-made-with="vivus-instant">.TnMkuZpJ_0{stroke-dasharray:26 28;stroke-dashoffset:27;animation:TnMkuZpJ_draw 3000ms ease-in-out 0ms forwards;}.TnMkuZpJ_1{stroke-dasharray:1132 1134;stroke-dashoffset:1133;animation:TnMkuZpJ_draw 3000ms ease-in-out 21ms forwards;}.TnMkuZpJ_2{stroke-dasharray:28 30;stroke-dashoffset:29;animation:TnMkuZpJ_draw 3000ms ease-in-out 42ms forwards;}.TnMkuZpJ_3{stroke-dasharray:26 28;stroke-dashoffset:27;animation:TnMkuZpJ_draw 3000ms ease-in-out 63ms forwards;}.TnMkuZpJ_4{stroke-dasharray:28 30;stroke-dashoffset:29;animation:TnMkuZpJ_draw 3000ms ease-in-out 85ms forwards;}.TnMkuZpJ_5{stroke-dasharray:91 93;stroke-dashoffset:92;animation:TnMkuZpJ_draw 3000ms ease-in-out 106ms forwards;}.TnMkuZpJ_6{stroke-dasharray:78 80;stroke-dashoffset:79;animation:TnMkuZpJ_draw 3000ms ease-in-out 127ms forwards;}.TnMkuZpJ_7{stroke-dasharray:77 79;stroke-dashoffset:78;animation:TnMkuZpJ_draw 3000ms ease-in-out 148ms forwards;}.TnMkuZpJ_8{stroke-dasharray:264 266;stroke-dashoffset:265;animation:TnMkuZpJ_draw 3000ms ease-in-out 170ms forwards;}.TnMkuZpJ_9{stroke-dasharray:221 223;stroke-dashoffset:222;animation:TnMkuZpJ_draw 3000ms ease-in-out 191ms forwards;}.TnMkuZpJ_10{stroke-dasharray:212 214;stroke-dashoffset:213;animation:TnMkuZpJ_draw 3000ms ease-in-out 212ms forwards;}.TnMkuZpJ_11{stroke-dasharray:716 718;stroke-dashoffset:717;animation:TnMkuZpJ_draw 3000ms ease-in-out 234ms forwards;}.TnMkuZpJ_12{stroke-dasharray:0 2;stroke-dashoffset:1;animation:TnMkuZpJ_draw 3000ms ease-in-out 255ms forwards;}.TnMkuZpJ_13{stroke-dasharray:107 109;stroke-dashoffset:108;animation:TnMkuZpJ_draw 3000ms ease-in-out 276ms forwards;}.TnMkuZpJ_14{stroke-dasharray:15 17;stroke-dashoffset:16;animation:TnMkuZpJ_draw 3000ms ease-in-out 297ms forwards;}.TnMkuZpJ_15{stroke-dasharray:85 87;stroke-dashoffset:86;animation:TnMkuZpJ_draw 3000ms ease-in-out 319ms forwards;}.TnMkuZpJ_16{stroke-dasharray:93 95;stroke-dashoffset:94;animation:TnMkuZpJ_draw 3000ms ease-in-out 340ms forwards;}.TnMkuZpJ_17{stroke-dasharray:36 38;stroke-dashoffset:37;animation:TnMkuZpJ_draw 3000ms ease-in-out 361ms forwards;}.TnMkuZpJ_18{stroke-dasharray:27 29;stroke-dashoffset:28;animation:TnMkuZpJ_draw 3000ms ease-in-out 382ms forwards;}.TnMkuZpJ_19{stroke-dasharray:28 30;stroke-dashoffset:29;animation:TnMkuZpJ_draw 3000ms ease-in-out 404ms forwards;}.TnMkuZpJ_20{stroke-dasharray:56 58;stroke-dashoffset:57;animation:TnMkuZpJ_draw 3000ms ease-in-out 425ms forwards;}.TnMkuZpJ_21{stroke-dasharray:97 99;stroke-dashoffset:98;animation:TnMkuZpJ_draw 3000ms ease-in-out 446ms forwards;}.TnMkuZpJ_22{stroke-dasharray:36 38;stroke-dashoffset:37;animation:TnMkuZpJ_draw 3000ms ease-in-out 468ms forwards;}.TnMkuZpJ_23{stroke-dasharray:37 39;stroke-dashoffset:38;animation:TnMkuZpJ_draw 3000ms ease-in-out 489ms forwards;}.TnMkuZpJ_24{stroke-dasharray:36 38;stroke-dashoffset:37;animation:TnMkuZpJ_draw 3000ms ease-in-out 510ms forwards;}.TnMkuZpJ_25{stroke-dasharray:17 19;stroke-dashoffset:18;animation:TnMkuZpJ_draw 3000ms ease-in-out 531ms forwards;}.TnMkuZpJ_26{stroke-dasharray:80 82;stroke-dashoffset:81;animation:TnMkuZpJ_draw 3000ms ease-in-out 553ms forwards;}.TnMkuZpJ_27{stroke-dasharray:69 71;stroke-dashoffset:70;animation:TnMkuZpJ_draw 3000ms ease-in-out 574ms forwards;}.TnMkuZpJ_28{stroke-dasharray:31 33;stroke-dashoffset:32;animation:TnMkuZpJ_draw 3000ms ease-in-out 595ms forwards;}.TnMkuZpJ_29{stroke-dasharray:54 56;stroke-dashoffset:55;animation:TnMkuZpJ_draw 3000ms ease-in-out 617ms forwards;}.TnMkuZpJ_30{stroke-dasharray:43 45;stroke-dashoffset:44;animation:TnMkuZpJ_draw 3000ms ease-in-out 638ms forwards;}.TnMkuZpJ_31{stroke-dasharray:24 26;stroke-dashoffset:25;animation:TnMkuZpJ_draw 3000ms ease-in-out 659ms forwards;}.TnMkuZpJ_32{stroke-dasharray:79 81;stroke-dashoffset:80;animation:TnMkuZpJ_draw 3000ms ease-in-out 680ms forwards;}.TnMkuZpJ_33{stroke-dasharray:25 27;stroke-dashoffset:26;animation:TnMkuZpJ_draw 3000ms ease-in-out 702ms forwards;}.TnMkuZpJ_34{stroke-dasharray:9 11;stroke-dashoffset:10;animation:TnMkuZpJ_draw 3000ms ease-in-out 723ms forwards;}.TnMkuZpJ_35{stroke-dasharray:29 31;stroke-dashoffset:30;animation:TnMkuZpJ_draw 3000ms ease-in-out 744ms forwards;}.TnMkuZpJ_36{stroke-dasharray:26 28;stroke-dashoffset:27;animation:TnMkuZpJ_draw 3000ms ease-in-out 765ms forwards;}.TnMkuZpJ_37{stroke-dasharray:28 30;stroke-dashoffset:29;animation:TnMkuZpJ_draw 3000ms ease-in-out 787ms forwards;}.TnMkuZpJ_38{stroke-dasharray:28 30;stroke-dashoffset:29;animation:TnMkuZpJ_draw 3000ms ease-in-out 808ms forwards;}.TnMkuZpJ_39{stroke-dasharray:27 29;stroke-dashoffset:28;animation:TnMkuZpJ_draw 3000ms ease-in-out 829ms forwards;}.TnMkuZpJ_40{stroke-dasharray:27 29;stroke-dashoffset:28;animation:TnMkuZpJ_draw 3000ms ease-in-out 851ms forwards;}.TnMkuZpJ_41{stroke-dasharray:11 13;stroke-dashoffset:12;animation:TnMkuZpJ_draw 3000ms ease-in-out 872ms forwards;}.TnMkuZpJ_42{stroke-dasharray:103 105;stroke-dashoffset:104;animation:TnMkuZpJ_draw 3000ms ease-in-out 893ms forwards;}.TnMkuZpJ_43{stroke-dasharray:35 37;stroke-dashoffset:36;animation:TnMkuZpJ_draw 3000ms ease-in-out 914ms forwards;}.TnMkuZpJ_44{stroke-dasharray:39 41;stroke-dashoffset:40;animation:TnMkuZpJ_draw 3000ms ease-in-out 936ms forwards;}.TnMkuZpJ_45{stroke-dasharray:75 77;stroke-dashoffset:76;animation:TnMkuZpJ_draw 3000ms ease-in-out 957ms forwards;}.TnMkuZpJ_46{stroke-dasharray:24 26;stroke-dashoffset:25;animation:TnMkuZpJ_draw 3000ms ease-in-out 978ms forwards;}.TnMkuZpJ_47{stroke-dasharray:68 70;stroke-dashoffset:69;animation:TnMkuZpJ_draw 3000ms ease-in-out 1000ms forwards;}.TnMkuZpJ_48{stroke-dasharray:37 39;stroke-dashoffset:38;animation:TnMkuZpJ_draw 3000ms ease-in-out 1021ms forwards;}.TnMkuZpJ_49{stroke-dasharray:61 63;stroke-dashoffset:62;animation:TnMkuZpJ_draw 3000ms ease-in-out 1042ms forwards;}.TnMkuZpJ_50{stroke-dasharray:60 62;stroke-dashoffset:61;animation:TnMkuZpJ_draw 3000ms ease-in-out 1063ms forwards;}.TnMkuZpJ_51{stroke-dasharray:41 43;stroke-dashoffset:42;animation:TnMkuZpJ_draw 3000ms ease-in-out 1085ms forwards;}.TnMkuZpJ_52{stroke-dasharray:44 46;stroke-dashoffset:45;animation:TnMkuZpJ_draw 3000ms ease-in-out 1106ms forwards;}.TnMkuZpJ_53{stroke-dasharray:35 37;stroke-dashoffset:36;animation:TnMkuZpJ_draw 3000ms ease-in-out 1127ms forwards;}.TnMkuZpJ_54{stroke-dasharray:39 41;stroke-dashoffset:40;animation:TnMkuZpJ_draw 3000ms ease-in-out 1148ms forwards;}.TnMkuZpJ_55{stroke-dasharray:39 41;stroke-dashoffset:40;animation:TnMkuZpJ_draw 3000ms ease-in-out 1170ms forwards;}.TnMkuZpJ_56{stroke-dasharray:35 37;stroke-dashoffset:36;animation:TnMkuZpJ_draw 3000ms ease-in-out 1191ms forwards;}.TnMkuZpJ_57{stroke-dasharray:54 56;stroke-dashoffset:55;animation:TnMkuZpJ_draw 3000ms ease-in-out 1212ms forwards;}.TnMkuZpJ_58{stroke-dasharray:31 33;stroke-dashoffset:32;animation:TnMkuZpJ_draw 3000ms ease-in-out 1234ms forwards;}.TnMkuZpJ_59{stroke-dasharray:59 61;stroke-dashoffset:60;animation:TnMkuZpJ_draw 3000ms ease-in-out 1255ms forwards;}.TnMkuZpJ_60{stroke-dasharray:28 30;stroke-dashoffset:29;animation:TnMkuZpJ_draw 3000ms ease-in-out 1276ms forwards;}.TnMkuZpJ_61{stroke-dasharray:28 30;stroke-dashoffset:29;animation:TnMkuZpJ_draw 3000ms ease-in-out 1297ms forwards;}.TnMkuZpJ_62{stroke-dasharray:28 30;stroke-dashoffset:29;animation:TnMkuZpJ_draw 3000ms ease-in-out 1319ms forwards;}.TnMkuZpJ_63{stroke-dasharray:28 30;stroke-dashoffset:29;animation:TnMkuZpJ_draw 3000ms ease-in-out 1340ms forwards;}.TnMkuZpJ_64{stroke-dasharray:15 17;stroke-dashoffset:16;animation:TnMkuZpJ_draw 3000ms ease-in-out 1361ms forwards;}.TnMkuZpJ_65{stroke-dasharray:23 25;stroke-dashoffset:24;animation:TnMkuZpJ_draw 3000ms ease-in-out 1382ms forwards;}.TnMkuZpJ_66{stroke-dasharray:28 30;stroke-dashoffset:29;animation:TnMkuZpJ_draw 3000ms ease-in-out 1404ms forwards;}.TnMkuZpJ_67{stroke-dasharray:18 20;stroke-dashoffset:19;animation:TnMkuZpJ_draw 3000ms ease-in-out 1425ms forwards;}.TnMkuZpJ_68{stroke-dasharray:20 22;stroke-dashoffset:21;animation:TnMkuZpJ_draw 3000ms ease-in-out 1446ms forwards;}.TnMkuZpJ_69{stroke-dasharray:78 80;stroke-dashoffset:79;animation:TnMkuZpJ_draw 3000ms ease-in-out 1468ms forwards;}.TnMkuZpJ_70{stroke-dasharray:91 93;stroke-dashoffset:92;animation:TnMkuZpJ_draw 3000ms ease-in-out 1489ms forwards;}.TnMkuZpJ_71{stroke-dasharray:0 2;stroke-dashoffset:1;animation:TnMkuZpJ_draw 3000ms ease-in-out 1510ms forwards;}.TnMkuZpJ_72{stroke-dasharray:52 54;stroke-dashoffset:53;animation:TnMkuZpJ_draw 3000ms ease-in-out 1531ms forwards;}.TnMkuZpJ_73{stroke-dasharray:40 42;stroke-dashoffset:41;animation:TnMkuZpJ_draw 3000ms ease-in-out 1553ms forwards;}.TnMkuZpJ_74{stroke-dasharray:43 45;stroke-dashoffset:44;animation:TnMkuZpJ_draw 3000ms ease-in-out 1574ms forwards;}.TnMkuZpJ_75{stroke-dasharray:43 45;stroke-dashoffset:44;animation:TnMkuZpJ_draw 3000ms ease-in-out 1595ms forwards;}.TnMkuZpJ_76{stroke-dasharray:41 43;stroke-dashoffset:42;animation:TnMkuZpJ_draw 3000ms ease-in-out 1617ms forwards;}.TnMkuZpJ_77{stroke-dasharray:43 45;stroke-dashoffset:44;animation:TnMkuZpJ_draw 3000ms ease-in-out 1638ms forwards;}.TnMkuZpJ_78{stroke-dasharray:43 45;stroke-dashoffset:44;animation:TnMkuZpJ_draw 3000ms ease-in-out 1659ms forwards;}.TnMkuZpJ_79{stroke-dasharray:43 45;stroke-dashoffset:44;animation:TnMkuZpJ_draw 3000ms ease-in-out 1680ms forwards;}.TnMkuZpJ_80{stroke-dasharray:43 45;stroke-dashoffset:44;animation:TnMkuZpJ_draw 3000ms ease-in-out 1702ms forwards;}.TnMkuZpJ_81{stroke-dasharray:43 45;stroke-dashoffset:44;animation:TnMkuZpJ_draw 3000ms ease-in-out 1723ms forwards;}.TnMkuZpJ_82{stroke-dasharray:28 30;stroke-dashoffset:29;animation:TnMkuZpJ_draw 3000ms ease-in-out 1744ms forwards;}.TnMkuZpJ_83{stroke-dasharray:28 30;stroke-dashoffset:29;animation:TnMkuZpJ_draw 3000ms ease-in-out 1765ms forwards;}.TnMkuZpJ_84{stroke-dasharray:29 31;stroke-dashoffset:30;animation:TnMkuZpJ_draw 3000ms ease-in-out 1787ms forwards;}.TnMkuZpJ_85{stroke-dasharray:40 42;stroke-dashoffset:41;animation:TnMkuZpJ_draw 3000ms ease-in-out 1808ms forwards;}.TnMkuZpJ_86{stroke-dasharray:40 42;stroke-dashoffset:41;animation:TnMkuZpJ_draw 3000ms ease-in-out 1829ms forwards;}.TnMkuZpJ_87{stroke-dasharray:43 45;stroke-dashoffset:44;animation:TnMkuZpJ_draw 3000ms ease-in-out 1851ms forwards;}.TnMkuZpJ_88{stroke-dasharray:43 45;stroke-dashoffset:44;animation:TnMkuZpJ_draw 3000ms ease-in-out 1872ms forwards;}.TnMkuZpJ_89{stroke-dasharray:15 17;stroke-dashoffset:16;animation:TnMkuZpJ_draw 3000ms ease-in-out 1893ms forwards;}.TnMkuZpJ_90{stroke-dasharray:0 2;stroke-dashoffset:1;animation:TnMkuZpJ_draw 3000ms ease-in-out 1914ms forwards;}.TnMkuZpJ_91{stroke-dasharray:7 9;stroke-dashoffset:8;animation:TnMkuZpJ_draw 3000ms ease-in-out 1936ms forwards;}.TnMkuZpJ_92{stroke-dasharray:11 13;stroke-dashoffset:12;animation:TnMkuZpJ_draw 3000ms ease-in-out 1957ms forwards;}.TnMkuZpJ_93{stroke-dasharray:0 2;stroke-dashoffset:1;animation:TnMkuZpJ_draw 3000ms ease-in-out 1978ms forwards;}.TnMkuZpJ_94{stroke-dasharray:19 21;stroke-dashoffset:20;animation:TnMkuZpJ_draw 3000ms ease-in-out 2000ms forwards;}@keyframes TnMkuZpJ_draw{100%{stroke-dashoffset:0;}}@keyframes TnMkuZpJ_fade{0%{stroke-opacity:1;}95.65217391304348%{stroke-opacity:1;}100%{stroke-opacity:0;}}</style></svg>