<?xml version="1.0" standalone="no"?>
<!DOCTYPE svg PUBLIC "-//W3C//DTD SVG 20010904//EN"
 "http://www.w3.org/TR/2001/REC-SVG-20010904/DTD/svg10.dtd">
<svg version="1.0" xmlns="http://www.w3.org/2000/svg"
 width="227.000000pt" height="247.000000pt" viewBox="0 0 227.000000 247.000000"
 preserveAspectRatio="xMidYMid meet">
<metadata>
Created by potrace 1.10, written by Peter Selinger 2001-2011
</metadata>
<g transform="translate(0.000000,247.000000) scale(0.100000,-0.100000)"
fill="#000000" stroke="none">
<path d="M955 2370 c-3 -5 -19 -10 -36 -10 -16 0 -29 -4 -29 -10 0 -5 -8 -10
-18 -10 -10 0 -28 -9 -40 -20 -12 -11 -26 -20 -32 -20 -6 0 -8 -4 -5 -10 3 -5
1 -10 -4 -10 -6 0 -11 -18 -11 -40 0 -22 4 -40 9 -40 10 0 25 31 22 45 -2 5 0
7 4 3 9 -8 35 14 28 25 -2 4 3 7 11 7 9 0 16 5 16 10 0 6 7 10 15 10 8 0 15 5
15 10 0 6 9 10 20 10 11 0 20 3 20 8 0 12 53 32 87 32 18 0 33 5 33 10 0 6
-22 10 -49 10 -28 0 -53 -4 -56 -10z"/>
<path d="M1130 2341 c0 -6 6 -14 14 -18 7 -4 16 -15 19 -23 4 -10 6 -8 6 7 1
13 -8 27 -19 33 -13 7 -20 7 -20 1z"/>
<path d="M1123 2242 c-29 -2 -53 -7 -53 -13 0 -5 -13 -9 -30 -9 -16 0 -30 -4
-30 -10 0 -5 -11 -10 -25 -10 -14 0 -25 -4 -25 -10 0 -5 -13 -10 -30 -10 -16
0 -30 -4 -30 -10 0 -5 -23 -10 -52 -10 -38 0 -49 -3 -41 -11 11 -11 57 -8 116
6 17 5 27 3 27 -4 0 -6 -9 -11 -20 -11 -11 0 -20 -4 -20 -10 0 -5 -9 -10 -19
-10 -10 0 -22 -7 -25 -16 -4 -9 -9 -14 -12 -11 -4 3 -13 0 -21 -8 -18 -19 2
-44 30 -37 15 4 18 0 15 -14 -2 -10 -11 -18 -19 -16 -8 2 -11 0 -7 -4 4 -4 3
-13 -3 -21 -9 -11 -2 -13 39 -13 28 0 54 5 57 10 3 6 16 10 28 10 24 0 93 22
103 33 4 4 16 7 26 7 10 0 18 5 18 10 0 18 -69 6 -122 -21 -10 -5 -27 -9 -37
-9 -11 0 -23 -4 -26 -10 -3 -5 -15 -10 -26 -10 -10 0 -19 5 -19 10 0 6 7 10
15 10 8 0 15 5 15 10 0 6 15 10 34 10 19 0 38 5 41 10 3 6 19 10 35 10 16 0
32 5 36 11 3 6 19 9 35 7 20 -3 29 0 29 9 0 7 9 13 20 13 11 0 20 5 20 10 0 6
6 10 14 10 7 0 16 8 20 18 3 9 9 23 12 30 7 16 -54 16 -93 1 -15 -6 -39 -16
-53 -22 -14 -5 -34 -13 -45 -17 -11 -4 -40 -17 -65 -28 -59 -27 -92 -34 -87
-19 2 7 13 13 25 15 12 2 22 8 22 13 0 5 11 9 24 9 14 0 28 5 31 10 3 6 17 10
31 10 13 0 24 5 24 10 0 6 11 10 24 10 14 0 28 5 31 10 3 6 15 10 26 10 10 0
19 5 19 10 0 6 5 10 11 10 14 0 42 28 37 38 -2 4 -27 6 -55 4z m-13 -31 c0 -5
-8 -11 -17 -15 -115 -38 -134 -43 -130 -33 2 7 16 13 30 15 15 2 27 8 27 13 0
5 11 9 24 9 14 0 28 5 31 10 8 12 35 13 35 1z m80 -56 c0 -8 -7 -15 -15 -15
-8 0 -15 -4 -15 -10 0 -5 -9 -10 -19 -10 -11 0 -23 -4 -26 -10 -3 -5 -17 -10
-30 -10 -13 0 -27 -4 -30 -10 -3 -5 -17 -10 -30 -10 -13 0 -26 -4 -29 -9 -3
-5 -19 -11 -35 -13 -22 -3 -28 -1 -24 10 3 7 14 11 24 9 10 -3 23 1 30 9 6 8
18 14 25 14 8 0 24 5 37 12 47 24 57 28 72 28 8 0 15 4 15 9 0 5 10 12 23 14
12 2 23 5 25 6 1 0 2 -6 2 -14z"/>
<path d="M1198 2088 c-2 -5 -17 -10 -33 -11 -23 -2 -31 -8 -33 -25 -2 -13 -11
-26 -20 -29 -9 -3 -36 -14 -59 -24 -24 -10 -50 -19 -58 -19 -8 0 -15 -4 -15
-10 0 -5 -7 -10 -15 -10 -8 0 -24 -9 -35 -20 -11 -11 -29 -20 -40 -20 -11 0
-20 -5 -20 -11 0 -8 18 -10 55 -7 41 4 55 1 55 -9 0 -7 -9 -13 -20 -13 -11 0
-20 -4 -20 -9 0 -5 -8 -11 -17 -13 -9 -2 -17 -13 -18 -25 -1 -13 0 -21 3 -18
3 2 14 0 24 -6 14 -8 23 -8 31 0 6 6 21 11 34 11 13 0 23 5 23 10 0 6 8 10 18
10 22 0 72 22 72 33 0 4 11 7 24 7 14 0 28 5 31 10 6 10 75 14 75 4 0 -6 -99
-124 -112 -134 -4 -3 -7 -40 -7 -83 l0 -78 34 3 c18 1 31 6 29 10 -3 4 3 8 13
8 14 0 18 -8 18 -38 1 -35 -3 -40 -35 -54 -35 -14 -34 -15 55 -14 79 1 171
-10 258 -30 15 -4 27 -2 27 4 0 12 -54 24 -237 48 -23 3 -47 12 -54 20 -16 20
-3 60 30 92 32 30 105 72 127 72 8 0 14 5 14 10 0 6 11 10 24 10 14 0 28 5 31
10 3 6 15 10 26 10 10 0 19 5 19 10 0 6 -16 10 -35 10 -19 0 -35 -4 -35 -10 0
-5 -11 -10 -25 -10 -14 0 -25 -4 -25 -10 0 -5 -9 -10 -20 -10 -11 0 -20 -4
-20 -9 0 -5 -9 -13 -20 -16 -11 -4 -18 -11 -15 -16 4 -5 -2 -9 -11 -9 -9 0
-30 -14 -45 -31 -20 -23 -33 -29 -48 -24 -12 4 -21 2 -21 -4 0 -6 -9 -11 -20
-11 -18 0 -20 7 -20 58 0 64 28 119 89 176 45 43 42 66 -9 66 -22 0 -40 5 -40
10 0 6 7 10 16 10 8 0 13 4 10 9 -3 5 3 11 14 14 22 6 28 43 8 49 -13 5 -59
-8 -90 -23 -24 -12 -51 -11 -43 1 3 6 15 10 26 10 10 0 19 5 19 10 0 6 9 10
20 10 11 0 20 4 20 8 0 5 11 15 25 22 27 14 34 47 10 47 -8 0 -16 -4 -17 -9z
m-18 -38 c0 -5 -7 -10 -15 -10 -8 0 -15 5 -15 10 0 6 7 10 15 10 8 0 15 -4 15
-10z m-100 -80 c0 -5 -11 -10 -25 -10 -14 0 -25 -4 -25 -10 0 -5 -7 -10 -15
-10 -22 0 -18 14 8 26 29 15 57 17 57 4z m110 0 c0 -5 -9 -10 -20 -10 -11 0
-20 -4 -20 -10 0 -5 -11 -10 -24 -10 -14 0 -28 -4 -31 -10 -3 -5 -17 -10 -30
-10 -13 0 -27 -4 -30 -10 -3 -5 -15 -10 -26 -10 -10 0 -19 5 -19 10 0 6 7 10
15 10 15 0 25 4 72 28 13 7 32 12 42 12 11 0 23 5 26 10 3 6 15 10 26 10 10 0
19 -4 19 -10z m-30 -60 c0 -5 -7 -10 -15 -10 -8 0 -15 5 -15 10 0 6 7 10 15
10 8 0 15 -4 15 -10z m-55 -19 c-3 -6 -15 -11 -26 -11 -10 0 -19 -4 -19 -10 0
-5 -11 -10 -24 -10 -14 0 -28 -4 -31 -10 -3 -5 -15 -10 -25 -10 -10 0 -20 -5
-22 -12 -2 -6 -9 -8 -16 -4 -16 10 -3 36 18 36 11 0 22 5 25 10 3 6 16 10 29
10 12 0 26 4 32 9 8 9 55 19 63 15 1 -2 0 -7 -4 -13z"/>
<path d="M1490 1729 c0 -13 5 -31 10 -39 7 -11 8 -5 4 20 -8 43 -14 51 -14 19z"/>
<path d="M362 1320 c2 -174 7 -304 12 -302 5 1 9 129 9 292 l-1 290 119 0 c73
0 119 4 119 10 0 11 -18 13 -163 14 l-97 1 2 -305z"/>
<path d="M1503 1590 c0 -25 2 -35 4 -22 2 12 2 32 0 45 -2 12 -4 2 -4 -23z"/>
<path d="M1700 1613 c0 -10 23 -13 98 -13 l97 0 3 -292 c2 -267 4 -309 16
-297 8 8 8 44 7 332 l-1 288 -110 -3 c-83 -1 -110 -5 -110 -15z"/>
<path d="M776 1596 c-18 -28 -21 -56 -6 -56 6 0 10 8 10 18 0 11 13 21 40 30
47 14 226 16 235 2 3 -5 17 -10 30 -10 15 0 26 -7 30 -20 7 -21 25 -28 25 -10
0 6 -4 10 -10 10 -5 0 -7 6 -4 14 11 29 -37 39 -202 43 -131 4 -131 4 -148
-21z"/>
<path d="M1500 1530 c0 -5 5 -10 10 -10 6 0 10 5 10 10 0 6 -4 10 -10 10 -5 0
-10 -4 -10 -10z"/>
<path d="M1090 1490 c-9 -6 -10 -10 -3 -10 6 0 15 5 18 10 8 12 4 12 -15 0z"/>
<path d="M1023 1467 c-17 -7 -35 -15 -39 -19 -4 -5 -16 -8 -26 -8 -10 0 -18
-4 -18 -10 0 -5 -6 -10 -12 -11 -7 0 -35 -11 -63 -24 -27 -13 -52 -22 -55 -20
-3 2 -7 -5 -7 -16 -2 -25 18 -24 45 1 12 11 26 20 31 20 6 0 26 9 44 19 56 31
70 38 110 56 57 25 50 34 -10 12z"/>
<path d="M780 1241 c0 -11 -4 -21 -10 -23 -5 -1 -11 -22 -12 -45 -1 -24 -5
-43 -10 -43 -4 0 -8 -16 -8 -35 0 -19 5 -35 10 -35 6 0 10 11 10 25 0 21 5 25
30 25 25 0 30 -4 30 -25 0 -54 84 -48 86 6 4 88 4 89 23 89 17 0 18 -7 14 -71
-3 -55 -1 -70 9 -67 9 3 13 29 14 81 l2 77 -39 0 c-39 0 -39 0 -39 -39 0 -67
-11 -101 -31 -101 -15 0 -19 8 -19 40 0 22 -4 40 -10 40 -5 0 -10 18 -10 40 0
23 -5 40 -11 40 -6 0 -9 9 -6 20 3 13 0 20 -9 20 -8 0 -14 -9 -14 -19z m20
-55 c0 -13 3 -31 6 -40 4 -11 0 -16 -13 -16 -16 0 -18 6 -15 40 4 43 22 56 22
16z"/>
<path d="M1480 1245 c0 -21 44 -19 61 3 11 14 11 15 -1 5 -17 -15 -54 -17 -45
-3 3 6 1 10 -4 10 -6 0 -11 -7 -11 -15z"/>
<path d="M1012 1180 c-14 -24 -16 -100 -2 -100 8 0 16 63 11 93 -2 16 35 6 47
-14 8 -12 9 -18 4 -15 -14 8 -43 -4 -36 -15 3 -5 19 -9 36 -9 25 0 29 3 23 18
-4 9 -10 27 -12 40 -7 29 -53 31 -71 2z"/>
<path d="M1123 1130 c-3 -72 11 -102 22 -50 8 36 30 40 39 6 7 -27 36 -44 36
-21 0 8 -5 15 -11 15 -5 0 -8 4 -4 9 3 5 -2 16 -10 24 -16 16 -21 47 -7 47 4
0 13 9 20 20 10 17 10 20 -4 20 -9 0 -18 -8 -21 -18 -2 -10 -13 -23 -24 -30
-17 -11 -19 -9 -19 18 0 16 -3 30 -7 30 -5 0 -9 -31 -10 -70z"/>
<path d="M1259 1188 c-1 -7 -1 -16 0 -20 0 -5 -3 -8 -9 -8 -16 0 -12 -73 6
-98 16 -23 58 -30 69 -12 3 6 -3 10 -15 10 -27 0 -50 23 -50 49 0 33 22 71 42
71 10 0 18 5 18 10 0 15 -60 12 -61 -2z"/>
<path d="M1360 1190 c0 -5 9 -10 20 -10 11 0 20 -2 20 -4 0 -2 3 -11 6 -20 5
-12 0 -16 -20 -16 -20 0 -26 5 -24 16 2 10 -3 19 -9 21 -22 8 -17 -90 6 -115
19 -23 55 -29 66 -12 3 6 -4 10 -17 10 -29 0 -48 17 -48 42 0 14 8 18 34 18
39 0 54 23 31 46 -8 9 -15 20 -15 25 0 5 -11 9 -25 9 -14 0 -25 -4 -25 -10z"/>
<path d="M1460 1131 c0 -39 4 -72 8 -75 13 -8 35 11 28 23 -4 6 0 14 8 17 9 3
16 15 16 25 0 10 5 19 10 19 6 0 10 -20 10 -45 0 -25 5 -45 11 -45 6 0 9 28 8
75 -1 56 -5 75 -16 75 -7 0 -16 -8 -19 -17 -3 -10 -10 -26 -15 -35 -5 -10 -9
-25 -9 -33 0 -8 -4 -15 -10 -15 -5 0 -10 23 -10 50 0 28 -4 50 -10 50 -6 0
-10 -30 -10 -69z"/>
<path d="M1015 1071 c-6 -11 26 -31 49 -31 9 0 16 5 16 10 0 6 -9 10 -20 10
-11 0 -20 5 -20 10 0 13 -17 13 -25 1z"/>
<path d="M829 938 c-1 -2 -3 -38 -4 -80 -2 -76 -1 -78 21 -78 13 0 24 5 24 10
0 6 -7 10 -15 10 -9 0 -15 9 -15 25 0 14 3 25 8 25 16 0 33 -18 30 -31 -2 -9
4 -13 20 -11 15 2 22 -2 22 -12 0 -10 8 -15 23 -13 17 1 23 10 27 37 7 42 1
70 -12 70 -6 0 -8 -6 -5 -13 16 -42 -44 -58 -78 -21 -12 13 -25 21 -28 17 -4
-3 -7 6 -7 20 0 21 5 27 21 27 11 0 17 5 14 10 -5 9 -42 15 -46 8z"/>
<path d="M105 892 c-5 -4 -11 -31 -11 -59 -2 -50 0 -53 22 -53 13 0 24 5 24
11 0 5 3 8 8 5 4 -2 8 16 9 40 0 24 -3 41 -8 38 -5 -3 -12 2 -15 10 -7 18 -14
19 -29 8z m25 -32 c0 -5 -4 -10 -10 -10 -5 0 -10 5 -10 10 0 6 5 10 10 10 6 0
10 -4 10 -10z m8 -40 c-3 -22 -23 -28 -24 -7 -1 17 6 27 17 27 6 0 9 -9 7 -20z"/>
<path d="M214 891 c7 -11 -18 -33 -27 -24 -4 3 -7 -9 -7 -28 0 -39 15 -59 42
-59 25 0 23 15 -3 17 -28 2 -29 5 -22 32 4 18 11 21 29 17 24 -6 33 7 14 19
-5 3 -7 12 -3 20 3 10 -1 15 -12 15 -9 0 -14 -4 -11 -9z"/>
<path d="M282 851 c1 -27 -3 -46 -10 -49 -7 -2 -12 -15 -12 -30 l0 -26 20 22
c25 27 36 28 49 5 16 -29 20 -12 14 57 -5 64 -6 65 -34 65 -28 1 -29 -1 -27
-44z m38 -11 c0 -16 -4 -30 -10 -30 -5 0 -10 14 -10 30 0 17 5 30 10 30 6 0
10 -13 10 -30z"/>
<path d="M540 844 c0 -40 -3 -55 -12 -52 -8 3 -13 22 -13 46 -1 23 -4 44 -8
48 -4 4 -7 -14 -7 -39 0 -41 -3 -47 -21 -47 -14 0 -19 5 -16 13 3 8 1 29 -3
48 -8 30 -8 27 -7 -21 l2 -55 55 -3 55 -3 -3 61 c-5 76 -22 79 -22 4z"/>
<path d="M646 891 c-9 -14 -10 -100 -1 -109 12 -12 16 9 13 64 -2 38 -6 54
-12 45z"/>
<path d="M681 843 c2 -42 6 -60 16 -60 7 0 11 3 8 5 -3 3 0 11 6 19 9 10 8 13
-3 13 -10 0 -13 9 -10 34 2 19 -1 37 -8 41 -8 5 -11 -10 -9 -52z"/>
<path d="M925 890 c-3 -5 -1 -10 4 -10 6 0 11 5 11 10 0 6 -2 10 -4 10 -3 0
-8 -4 -11 -10z"/>
<path d="M1169 891 c9 -6 10 -11 2 -15 -6 -4 -15 -4 -21 -1 -5 3 -10 -1 -10
-9 0 -9 -7 -16 -16 -16 -11 0 -15 6 -11 20 3 12 0 20 -7 20 -7 0 -11 -16 -10
-45 1 -38 -1 -45 -17 -45 -16 0 -19 8 -19 45 0 25 -4 45 -10 45 -5 0 -10 -22
-10 -50 0 -27 -4 -50 -10 -50 -5 0 -10 23 -10 50 0 28 -4 50 -10 50 -5 0 -10
-25 -10 -55 l0 -55 55 0 c54 0 55 0 55 30 0 21 5 30 16 30 8 0 13 -3 11 -7
-11 -19 13 -53 38 -53 14 0 25 5 25 11 0 6 -8 8 -19 4 -14 -4 -21 0 -26 16 -8
24 9 41 32 32 8 -3 13 2 13 14 0 21 -18 43 -34 43 -6 0 -5 -4 3 -9z"/>
<path d="M1220 840 c0 -33 4 -60 10 -60 6 0 10 23 10 50 0 41 3 50 18 50 14 0
15 2 2 10 -32 21 -40 11 -40 -50z"/>
<path d="M1292 875 c-17 -36 -15 -48 9 -76 19 -22 22 -23 33 -7 7 10 16 14 20
10 4 -4 6 8 4 27 -2 19 -9 36 -16 39 -9 3 -11 -3 -7 -20 6 -25 -9 -57 -21 -45
-4 4 -8 23 -9 42 0 28 3 35 18 35 10 0 15 5 12 10 -11 18 -32 11 -43 -15z"/>
<path d="M1432 888 c-14 -14 -16 -98 -2 -98 6 0 10 20 10 45 0 25 4 45 9 45
15 0 22 -31 15 -66 -4 -22 -2 -34 5 -34 7 0 11 23 11 60 0 51 -3 60 -18 60
-10 0 -23 -5 -30 -12z"/>
<path d="M1528 892 c-13 -2 -17 -18 -20 -78 -2 -41 0 -74 5 -74 4 0 7 11 7 24
0 18 7 25 30 30 27 5 30 9 30 43 0 40 -20 62 -52 55z m32 -52 c0 -42 -9 -50
-30 -25 -15 19 -5 65 15 65 11 0 15 -11 15 -40z"/>
<path d="M1610 890 c-12 -8 -11 -10 8 -10 27 0 29 -26 3 -33 -14 -3 -19 -13
-19 -34 1 -26 5 -30 29 -30 28 0 29 2 27 46 -1 25 -7 52 -14 58 -15 15 -15 15
-34 3z"/>
<path d="M1690 890 c-12 -8 -11 -10 8 -10 24 0 29 -19 10 -38 -9 -9 -9 -12 0
-12 7 0 12 -7 12 -15 0 -8 -9 -15 -20 -15 -11 0 -20 -4 -20 -10 0 -11 49 -14
51 -2 7 34 5 89 -3 100 -12 14 -18 15 -38 2z"/>
<path d="M1779 855 c-1 -22 -1 -43 0 -47 0 -5 -3 -8 -9 -8 -5 0 -10 -12 -9
-27 0 -23 2 -25 8 -9 11 27 43 29 64 3 10 -12 16 -17 13 -11 -3 6 -6 40 -8 75
-2 63 -2 64 -30 64 -26 1 -28 -2 -29 -40z m41 -10 c0 -19 -4 -35 -10 -35 -5 0
-10 16 -10 35 0 19 5 35 10 35 6 0 10 -16 10 -35z"/>
<path d="M1860 840 c0 -33 4 -60 10 -60 6 0 10 13 10 30 0 23 4 28 18 24 16
-5 16 -5 0 9 -10 8 -18 24 -18 36 0 11 -4 21 -10 21 -6 0 -10 -27 -10 -60z"/>
<path d="M1960 840 c0 -33 4 -60 10 -60 6 0 10 12 10 26 0 14 4 23 10 19 6 -3
10 -1 10 4 0 6 4 11 10 11 5 0 7 -14 4 -32 -4 -26 -3 -29 5 -16 13 19 3 110
-11 102 -5 -3 -8 -15 -6 -26 2 -12 -3 -23 -9 -25 -9 -3 -13 6 -13 26 0 17 -4
31 -10 31 -6 0 -10 -27 -10 -60z"/>
<path d="M2145 890 c-3 -5 3 -10 14 -10 18 0 21 -6 21 -40 0 -29 -4 -40 -15
-40 -18 0 -19 12 -4 27 8 8 7 13 -2 18 -7 5 -10 4 -5 -3 3 -6 2 -13 -4 -17 -5
-3 -10 -14 -10 -24 0 -13 8 -18 30 -18 29 0 30 2 30 44 0 55 -35 95 -55 63z"/>
<path d="M360 871 c0 -11 5 -23 10 -26 14 -9 13 -78 -2 -93 -7 -7 -9 -12 -4
-12 15 0 34 27 39 56 3 16 10 45 16 64 9 32 9 33 -4 16 -8 -11 -15 -23 -15
-28 0 -4 -4 -8 -10 -8 -5 0 -9 3 -9 8 1 4 1 15 0 25 -1 24 -21 22 -21 -2z"/>
<path d="M594 856 c3 -21 1 -47 -5 -57 -7 -14 -6 -19 5 -19 8 0 16 13 18 30 3
17 1 30 -4 30 -5 0 -7 3 -5 8 3 4 0 16 -4 27 -7 14 -8 9 -5 -19z"/>
<path d="M729 880 c-3 -20 -4 -25 -12 -37 -5 -7 -1 -9 13 -6 13 3 20 14 20 29
0 23 -19 35 -21 14z"/>
<path d="M1920 836 c0 -31 5 -56 10 -56 6 0 10 22 10 49 0 28 -4 53 -10 56 -6
4 -10 -15 -10 -49z"/>
<path d="M2060 831 c2 -35 5 -45 8 -28 4 32 25 31 30 -1 4 -27 22 -29 22 -3 0
10 -7 21 -15 25 -17 6 -15 44 3 55 6 4 -3 7 -21 7 l-32 0 5 -55z"/>
<path d="M740 805 c0 -14 5 -25 10 -25 6 0 10 11 10 25 0 14 -4 25 -10 25 -5
0 -10 -11 -10 -25z"/>
<path d="M676 649 c-11 -14 -19 -41 -21 -73 -2 -58 11 -120 25 -111 5 3 11 1
15 -5 10 -15 45 -12 45 5 0 9 -6 12 -16 8 -27 -10 -44 25 -44 88 0 58 16 89
45 89 8 0 17 5 20 10 13 20 -51 10 -69 -11z"/>
<path d="M1560 656 c0 -24 45 -35 53 -12 4 10 0 12 -14 9 -10 -3 -19 0 -19 6
0 6 -4 11 -10 11 -5 0 -10 -6 -10 -14z"/>
<path d="M1900 381 l0 -291 -747 0 c-412 0 -753 4 -760 8 -9 5 -11 81 -10 285
2 219 -1 277 -11 277 -10 0 -12 -63 -12 -300 l1 -300 780 0 779 0 0 299 c0
189 -4 302 -10 306 -7 4 -10 -93 -10 -284z"/>
<path d="M797 590 c-26 -30 -27 -108 -2 -126 21 -15 65 -19 65 -5 0 5 -13 11
-30 15 -24 4 -30 11 -30 32 0 24 3 26 30 22 31 -5 31 -4 28 36 -2 32 -7 42
-23 44 -11 1 -28 -7 -38 -18z m43 -26 c0 -8 -9 -14 -20 -14 -22 0 -28 26 -7
33 16 6 27 -1 27 -19z"/>
<path d="M910 591 c-5 -11 -10 -42 -10 -70 0 -34 -4 -51 -12 -51 -9 0 -8 -3 2
-10 22 -14 29 -1 31 63 1 32 6 60 11 63 11 7 10 24 -2 24 -5 0 -14 -9 -20 -19z"/>
<path d="M960 536 c0 -54 4 -76 13 -76 17 0 17 142 -1 148 -9 3 -12 -17 -12
-72z"/>
<path d="M1025 600 c-7 -11 -5 -106 3 -127 7 -20 32 -15 32 6 0 11 5 23 10 26
6 3 10 17 10 31 0 14 4 22 10 19 6 -3 10 -28 10 -56 0 -27 5 -49 10 -49 6 0
10 33 10 80 0 95 -16 106 -45 30 -24 -62 -39 -64 -33 -5 5 44 -4 67 -17 45z"/>
<path d="M1160 530 c0 -47 4 -80 10 -80 6 0 10 33 10 80 0 47 -4 80 -10 80 -6
0 -10 -33 -10 -80z"/>
<path d="M1235 602 c-6 -4 -10 -27 -9 -52 1 -58 -5 -80 -22 -80 -8 0 -14 -5
-14 -10 0 -6 11 -8 25 -4 21 5 25 3 25 -15 0 -12 5 -21 11 -21 7 0 8 23 3 73
-5 39 -8 82 -7 95 0 12 0 22 -1 22 0 0 -6 -4 -11 -8z"/>
<path d="M1357 604 c-8 -8 1 -24 14 -24 5 0 9 7 9 15 0 15 -12 20 -23 9z"/>
<path d="M1473 566 c-5 -25 -6 -47 -2 -48 5 -2 10 -15 11 -30 1 -16 7 -28 13
-28 13 0 12 143 -2 147 -5 2 -14 -17 -20 -41z"/>
<path d="M1605 583 c-4 -17 -2 -29 4 -31 6 -2 11 -24 11 -48 0 -24 5 -44 10
-44 6 0 10 32 10 75 0 57 -3 75 -14 75 -8 0 -17 -12 -21 -27z"/>
<path d="M1297 533 c-3 -46 -1 -70 6 -75 8 -5 13 4 15 27 2 19 7 35 13 35 5 0
9 9 9 20 0 11 5 20 10 20 6 0 10 5 10 10 0 6 -12 10 -26 10 -14 0 -23 4 -19
10 3 6 2 10 -3 10 -5 0 -12 -30 -15 -67z"/>
<path d="M1390 548 c0 -39 3 -49 14 -45 9 4 12 0 10 -11 -2 -9 0 -24 6 -32 9
-13 11 -13 20 0 13 20 13 60 -1 60 -7 0 -8 13 -4 39 6 36 5 39 -19 39 -24 0
-26 -3 -26 -50z"/>
<path d="M1540 530 c0 -65 2 -70 21 -70 15 0 19 5 15 15 -3 9 1 18 9 21 17 7
21 44 5 44 -5 0 -10 -7 -10 -15 0 -8 -5 -15 -11 -15 -7 0 -10 12 -7 33 6 36 1
57 -13 57 -5 0 -9 -31 -9 -70z"/>
<path d="M1340 515 c0 -4 8 -20 17 -38 16 -30 18 -31 21 -9 2 13 -2 30 -8 38
-12 14 -30 19 -30 9z"/>
</g>
</svg>
