<?xml version="1.0" standalone="no"?>
<!DOCTYPE svg PUBLIC "-//W3C//DTD SVG 20010904//EN"
 "http://www.w3.org/TR/2001/REC-SVG-20010904/DTD/svg10.dtd">
<svg version="1.0" xmlns="http://www.w3.org/2000/svg"
 width="227.000000pt" height="121.000000pt" viewBox="0 0 227.000000 121.000000"
 preserveAspectRatio="xMidYMid meet">
<metadata>
Created by potrace 1.10, written by Peter Selinger 2001-2011
</metadata>
<g transform="translate(0.000000,121.000000) scale(0.100000,-0.100000)"
fill="#000000" stroke="none">
<path d="M920 1108 c-19 -5 -37 -13 -40 -16 -3 -4 -18 -14 -35 -22 -57 -28
-66 -43 -63 -96 l3 -49 35 47 c19 26 41 47 48 48 6 0 12 4 12 9 0 5 14 14 30
21 17 7 30 15 30 19 0 8 74 31 100 31 11 0 20 5 20 10 0 13 -94 11 -140 -2z"/>
<path d="M1130 1078 c0 -7 9 -19 20 -26 17 -10 20 -10 20 3 0 8 -9 19 -20 25
-15 8 -20 8 -20 -2z"/>
<path d="M1081 973 c-5 -10 -11 -16 -13 -13 -4 7 -108 -22 -114 -32 -3 -4 -14
-8 -25 -8 -10 0 -19 -4 -19 -9 0 -5 -6 -9 -12 -8 -58 2 -98 -4 -92 -14 4 -7
25 -10 54 -7 38 4 47 2 43 -9 -3 -7 -11 -13 -19 -13 -20 0 -67 -47 -59 -60 4
-7 18 -9 34 -5 50 13 71 13 71 -1 0 -18 35 -18 52 -1 6 8 22 12 34 9 12 -2 35
3 52 12 17 9 35 15 39 14 4 0 29 8 54 19 47 22 71 59 46 75 -17 11 -27 10 -27
-2 0 -5 -12 -10 -26 -10 -14 0 -23 -4 -19 -10 4 -6 -5 -10 -19 -10 -19 0 -26
5 -26 20 0 11 6 20 14 20 22 0 76 34 76 48 0 20 -87 16 -99 -5z m-21 -62 c0
-10 7 -24 15 -31 8 -7 15 -16 15 -20 0 -11 -49 -30 -80 -30 -16 0 -32 -5 -35
-10 -4 -7 -14 -6 -28 2 -12 7 -25 11 -29 10 -13 -3 -9 12 10 35 16 21 93 61
120 62 6 1 12 -7 12 -18z"/>
<path d="M1154 814 c-27 -13 -53 -23 -59 -22 -14 2 -60 -10 -139 -38 -38 -13
-73 -24 -78 -24 -16 0 -8 29 10 33 15 4 15 5 0 6 -17 1 -48 -24 -48 -40 0 -26
108 -9 197 32 24 10 52 19 62 19 11 0 22 4 25 9 9 14 46 20 46 8 0 -7 -21 -22
-47 -34 -42 -19 -44 -22 -21 -22 15 -1 29 3 32 8 4 5 26 19 51 31 44 22 57 43
32 53 -7 3 -36 -6 -63 -19z"/>
<path d="M1180 740 c-8 -5 -34 -14 -58 -20 -23 -6 -41 -14 -38 -18 3 -5 -11
-9 -31 -10 -29 -2 -34 0 -29 13 4 12 2 13 -12 6 -19 -10 -23 -11 -51 -11 -11
0 -26 -6 -33 -13 -7 -8 -24 -20 -37 -26 -19 -10 -21 -15 -10 -22 8 -5 22 -6
32 -4 9 3 26 8 37 11 15 4 20 1 20 -15 0 -12 -7 -21 -15 -21 -8 0 -15 -4 -15
-10 0 -5 -3 -9 -7 -9 -38 6 -46 -27 -11 -40 28 -10 74 2 153 40 68 32 141 59
161 59 16 0 19 -26 4 -33 -6 -3 -5 -4 2 -3 7 1 14 12 16 23 4 25 -19 33 -60
22 -41 -11 -36 17 6 35 18 7 36 23 39 35 4 18 1 21 -21 20 -15 0 -34 -4 -42
-9z m-37 -69 c-4 -17 -151 -96 -161 -86 -2 2 1 11 6 21 6 11 7 27 2 40 -6 16
-5 24 5 28 8 3 17 1 20 -4 9 -15 59 -12 91 5 38 19 43 19 37 -4z"/>
<path d="M1040 730 c0 -5 7 -10 15 -10 8 0 15 5 15 10 0 6 -7 10 -15 10 -8 0
-15 -4 -15 -10z"/>
<path d="M1174 553 c-21 -27 -42 -49 -46 -51 -12 -5 -10 -82 2 -82 6 0 10 12
10 28 0 30 29 83 68 125 14 15 21 27 15 27 -6 0 -28 -21 -49 -47z"/>
<path d="M1445 521 c-45 -11 -130 -61 -170 -98 -46 -43 -45 -52 3 -14 20 16
56 35 80 42 23 7 42 17 42 22 0 6 3 8 6 4 3 -3 23 1 44 8 21 7 41 11 44 8 3
-4 6 3 6 15 0 23 -6 25 -55 13z"/>
<path d="M1498 443 c5 -21 7 -23 10 -9 2 10 0 22 -6 28 -6 6 -7 0 -4 -19z"/>
<path d="M1124 375 l1 -41 -46 12 c-66 17 -190 27 -238 19 -23 -4 -51 -16 -62
-28 -21 -23 -26 -57 -8 -57 6 0 8 7 5 15 -8 22 29 34 127 41 100 8 188 -8 222
-40 14 -13 25 -29 25 -36 0 -9 14 -11 54 -7 50 5 93 1 254 -21 34 -5 62 -6 62
-2 0 8 -9 9 -171 33 -52 8 -105 21 -118 28 -21 14 -22 23 -5 63 7 18 4 19 -38
13 -42 -6 -45 -4 -55 21 -10 26 -10 25 -9 -13z m60 -50 c-4 -8 -1 -22 6 -30
10 -12 9 -15 -3 -15 -9 0 -21 9 -27 19 -13 26 -13 29 8 34 9 3 18 5 19 6 1 0
0 -6 -3 -14z"/>
<path d="M1502 340 c0 -14 4 -38 8 -55 7 -27 8 -27 8 -5 0 14 -4 39 -8 55 -7
27 -8 27 -8 5z"/>
<path d="M1090 230 c-9 -6 -10 -10 -3 -10 6 0 15 5 18 10 8 12 4 12 -15 0z"/>
<path d="M1005 199 c-16 -10 -45 -22 -62 -25 -18 -3 -33 -10 -33 -14 0 -8 -91
-46 -102 -42 -5 1 -8 -7 -8 -18 0 -27 16 -24 70 10 53 34 166 90 180 90 6 0
10 5 10 10 0 15 -21 11 -55 -11z"/>
</g>
</svg>
