<!--?xml version="1.0" encoding="UTF-8" standalone="no"?-->

<svg version="1.1" xmlns="http://www.w3.org/2000/svg" xmlns:xlink="http://www.w3.org/1999/xlink" preserveAspectRatio="xMidYMid meet" viewBox="0 0 640 640" width="640" height="640" style=""><defs><path d="M9321.75 3438.68L9520.03 3460.81L9714.69 3490.34L9905.36 3527.17L10091.67 3571.21L10273.23 3622.35L10449.67 3680.51L10620.61 3745.57L10785.69 3817.46L10944.52 3896.05L11096.73 3981.27L11241.94 4073.01L11379.79 4171.17L11509.88 4275.66L11631.85 4386.37L11745.33 4503.21L11760.83 4519.56L11773.87 4536.22L11784.54 4553.13L11792.93 4570.23L11799.13 4587.47L11803.24 4604.78L11805.35 4622.11L11805.54 4639.4L11803.91 4656.6L11800.55 4673.64L11795.55 4690.48L11789 4707.04L11781 4723.28L11771.63 4739.14L11760.98 4754.56L11749.15 4769.48L11736.22 4783.84L11722.3 4797.59L11707.46 4810.68L11691.81 4823.03L11675.43 4834.61L11658.41 4845.33L11640.84 4855.16L11622.82 4864.04L11604.44 4871.9L11585.79 4878.68L11566.95 4884.34L11548.02 4888.82L11529.1 4892.04L11510.27 4893.97L11491.62 4894.54L11473.25 4893.69L11455.24 4891.37L11437.69 4887.52L11420.69 4882.08L11404.33 4875L11388.7 4866.21L11373.89 4855.66L11359.99 4843.29L11347.1 4829.05L11346.55 4827.51L11344.89 4822.99L11342.1 4815.62L11338.16 4805.53L11333.04 4792.88L11326.73 4777.78L11319.2 4760.39L11310.44 4740.83L11300.42 4719.24L11289.13 4695.77L11276.54 4670.55L11262.64 4643.7L11247.39 4615.39L11230.79 4585.73L11212.81 4554.86L11193.42 4522.93L11172.62 4490.07L11150.38 4456.41L11126.67 4422.1L11101.48 4387.27L11074.79 4352.06L11046.57 4316.6L11016.81 4281.04L10985.49 4245.5L10952.58 4210.13L10918.06 4175.06L10881.92 4140.43L10844.13 4106.38L10804.67 4073.04L10763.52 4040.55L10720.67 4009.05L10676.08 3978.68L10629.74 3949.57L10581.64 3921.85L10531.74 3895.68L10480.02 3871.17L10426.48 3848.48L10371.08 3827.73L10313.81 3809.06L10254.64 3792.62L10196.88 3779.41L10137.22 3768.58L10075.76 3760.03L10012.63 3753.7L9947.94 3749.47L9881.8 3747.27L9814.35 3747.01L9745.68 3748.59L9675.93 3751.93L9605.2 3756.94L9533.61 3763.53L9461.29 3771.61L9388.34 3781.09L9314.89 3791.89L9241.05 3803.91L9166.94 3817.06L9092.67 3831.27L9018.37 3846.43L8944.14 3862.46L8870.12 3879.27L8796.4 3896.76L8723.12 3914.87L8650.39 3933.48L8578.32 3952.52L8507.03 3971.89L8436.64 3991.51L8367.26 4011.29L8299.02 4031.14L8232.03 4050.96L8166.41 4070.68L8102.27 4090.2L8039.73 4109.43L7978.9 4128.28L7919.91 4146.67L7862.88 4164.51L7807.91 4181.7L7755.13 4198.17L7704.65 4213.81L7656.59 4228.54L7611.07 4242.27L7470.94 4287.21L7334.13 4337.14L7200.63 4391.77L7070.47 4450.77L6943.62 4513.86L6820.11 4580.72L6699.94 4651.05L6583.11 4724.56L6469.61 4800.93L6359.47 4879.86L6252.68 4961.05L6149.24 5044.2L6049.16 5129L5952.45 5215.14L5859.1 5302.33L5769.12 5390.25L5682.51 5478.62L5599.29 5567.11L5519.45 5655.44L5442.99 5743.29L5369.92 5830.36L5300.25 5916.35L5233.97 6000.95L5171.1 6083.86L5111.63 6164.78L5055.58 6243.4L5002.93 6319.42L4953.71 6392.54L4907.9 6462.45L4865.52 6528.84L4826.57 6591.42L4791.05 6649.89L4758.97 6703.92L4730.33 6753.23L4705.13 6797.51L4683.39 6836.46L4665.09 6869.77L4650.25 6897.14L4638.87 6918.26L4630.96 6932.83L4620.65 6951.82L4610.95 6970.38L4601.85 6988.51L4593.34 7006.21L4585.42 7023.51L4578.08 7040.39L4571.33 7056.88L4565.14 7072.96L4559.53 7088.66L4554.49 7103.98L4550.01 7118.92L4546.08 7133.49L4542.71 7147.7L4539.89 7161.56L4537.61 7175.06L4535.87 7188.23L4534.66 7201.05L4533.98 7213.55L4533.83 7225.72L4534.2 7237.58L4535.08 7249.12L4536.48 7260.37L4538.38 7271.31L4540.78 7281.97L4543.69 7292.34L4547.08 7302.43L4550.97 7312.25L4555.33 7321.81L4560.18 7331.11L4565.5 7340.16L4571.3 7348.96L4577.55 7357.53L4584.27 7365.86L4591.45 7373.97L4599.08 7381.86L4607.15 7389.54L4615.67 7397.01L4624.63 7404.28L4634.02 7411.37L4643.84 7418.26L4827.24 7424.36L5008.03 7423.81L5186.36 7416.93L5362.42 7404.07L5536.38 7385.54L5708.41 7361.69L5878.69 7332.85L6047.39 7299.34L6214.69 7261.5L6380.75 7219.67L6545.75 7174.17L6709.87 7125.33L6873.28 7073.5L7036.15 7018.99L7198.65 6962.15L7360.97 6903.3L7523.27 6842.77L7685.73 6780.91L7848.51 6718.03L8011.81 6654.48L8175.78 6590.58L8340.6 6526.67L8506.45 6463.08L8673.5 6400.14L8841.92 6338.18L9011.88 6277.53L9183.57 6218.54L9357.15 6161.52L9532.8 6106.81L9710.7 6054.74L9891 6005.65L10073.9 5959.86L10259.55 5917.72L10448.15 5879.54L10639.85 5845.67L10834.84 5816.44L11033.29 5792.17L11235.36 5773.2L11441.24 5759.86L11651.1 5752.48L11658.23 5752.37L11665.37 5752.33L11672.51 5752.36L11679.66 5752.45L11686.8 5752.61L11693.95 5752.85L11701.1 5753.14L11708.24 5753.51L11715.38 5753.94L11722.51 5754.44L11729.64 5755L11736.76 5755.63L11743.86 5756.33L11750.96 5757.09L11758.04 5757.92L11765.1 5758.81L11772.15 5759.77L11779.18 5760.79L11786.19 5761.88L11793.18 5763.03L11800.14 5764.24L11807.08 5765.52L11813.99 5766.86L11820.87 5768.26L11827.73 5769.73L11834.55 5771.26L11841.34 5772.85L11848.1 5774.51L11854.82 5776.22L11861.5 5778L11868.15 5779.84L11874.75 5781.74L11881.31 5783.7L11887.83 5785.72L11894.3 5787.8L11900.72 5789.94L11907.1 5792.15L11913.43 5794.41L11919.7 5796.73L11925.92 5799.11L11950.28 5813.8L11973.49 5829.13L11995.43 5845.09L12015.99 5861.71L12035.05 5879L12052.51 5896.98L12068.24 5915.64L12082.14 5935.01L12094.09 5955.1L12103.97 5975.92L12111.68 5997.48L12117.09 6019.8L12120.1 6042.89L12120.58 6066.76L12118.44 6091.42L12113.54 6116.89L12105.79 6143.17L12095.06 6170.29L12081.24 6198.25L12064.21 6227.07L12043.87 6256.75L12020.1 6287.32L11992.78 6318.78L11961.8 6351.15L11927.05 6384.43L11888.42 6418.65L11845.78 6453.81L11799.02 6489.93L11748.04 6527.01L11692.72 6565.08L11632.94 6604.14L11568.59 6644.2L11499.55 6685.29L11425.72 6727.41L11346.98 6770.57L11263.2 6814.79L11174.29 6860.07L11080.13 6906.44L10980.59 6953.9L10875.58 7002.47L10811.93 7030.85L10744.48 7059.73L10673.38 7089.08L10598.79 7118.9L10520.84 7149.15L10439.69 7179.83L10355.49 7210.92L10268.38 7242.39L10178.51 7274.24L10086.03 7306.44L9991.1 7338.98L9893.85 7371.84L9794.43 7405L9693 7438.44L9589.71 7472.15L9484.69 7506.11L9378.1 7540.31L9270.09 7574.71L9160.81 7609.32L9050.4 7644.1L8939.01 7679.05L8826.8 7714.14L8713.9 7749.36L8600.47 7784.68L8486.66 7820.1L8372.61 7855.6L8258.47 7891.15L8144.4 7926.74L8030.53 7962.35L7917.03 7997.97L7804.03 8033.57L7691.68 8069.15L7580.13 8104.67L7469.54 8140.13L7360.05 8175.51L7251.8 8210.79L7144.95 8245.95L7039.64 8280.98L6936.03 8315.85L6834.26 8350.55L6831.5 8351.43L6825.36 8353.36L6815.97 8356.3L6803.5 8360.23L6788.09 8365.11L6769.9 8370.92L6749.08 8377.61L6725.79 8385.17L6700.17 8393.55L6672.38 8402.73L6642.57 8412.67L6610.89 8423.34L6577.5 8434.72L6542.55 8446.77L6506.19 8459.45L6468.58 8472.74L6429.86 8486.61L6390.19 8501.02L6349.72 8515.95L6308.61 8531.35L6267 8547.21L6225.05 8563.48L6182.92 8580.14L6140.74 8597.16L6098.69 8614.5L6056.9 8632.13L6015.54 8650.02L5974.74 8668.14L5934.68 8686.46L5895.5 8704.94L5857.34 8723.56L5820.38 8742.29L5784.75 8761.08L5750.6 8779.92L5718.11 8798.76L5687.4 8817.59L5658.64 8836.35L5631.99 8855.04L5607.58 8873.6L5585.58 8892.02L5578.93 8898.15L5572.57 8904.5L5566.52 8911.06L5560.78 8917.82L5555.35 8924.76L5550.24 8931.86L5545.44 8939.1L5540.97 8946.47L5536.83 8953.96L5533.02 8961.54L5529.54 8969.21L5526.41 8976.93L5523.62 8984.71L5521.19 8992.51L5519.1 9000.33L5517.38 9008.15L5516.01 9015.95L5515.01 9023.71L5514.39 9031.43L5514.14 9039.08L5514.26 9046.64L5514.77 9054.1L5515.67 9061.45L5516.96 9068.67L5518.64 9075.74L5520.72 9082.64L5523.21 9089.36L5526.11 9095.88L5529.42 9102.19L5533.14 9108.26L5537.29 9114.09L5541.86 9119.66L5546.86 9124.95L5552.3 9129.94L5558.17 9134.62L5564.49 9138.97L5571.25 9142.97L5578.46 9146.61L5586.13 9149.88L5594.25 9152.75L5654.15 9165.22L5727.62 9169.09L5813.94 9164.76L5912.41 9152.62L6022.35 9133.06L6143.05 9106.47L6273.81 9073.26L6413.94 9033.8L6562.72 8988.51L6719.48 8937.76L6883.5 8881.95L7054.09 8821.48L7230.54 8756.73L7412.17 8688.11L7598.27 8616.01L7788.14 8540.81L7981.08 8462.92L8176.4 8382.72L8373.39 8300.61L8571.37 8216.98L8769.61 8132.22L8967.44 8046.74L9164.15 7960.91L9359.04 7875.15L9551.41 7789.83L9740.56 7705.35L9925.8 7622.1L10106.42 7540.49L10281.73 7460.9L10451.03 7383.72L10613.62 7309.35L10768.8 7238.18L10915.87 7170.61L11054.13 7107.03L11182.88 7047.82L11301.43 6993.4L11409.08 6944.14L11505.12 6900.44L11588.86 6862.69L11659.6 6831.3L11719.05 6817.42L11777.2 6806.18L11833.99 6797.53L11889.34 6791.44L11943.2 6787.86L11995.49 6786.77L12046.15 6788.11L12095.12 6791.85L12142.32 6797.95L12187.7 6806.38L12231.19 6817.09L12272.72 6830.04L12312.22 6845.2L12349.63 6862.52L12384.89 6881.97L12417.92 6903.51L12448.67 6927.1L12477.07 6952.69L12503.04 6980.26L12526.53 7009.77L12547.47 7041.16L12565.79 7074.41L12581.43 7109.48L12594.32 7146.32L12604.39 7184.9L12611.59 7225.17L12615.84 7267.11L12617.08 7310.67L12615.24 7355.81L12610.25 7402.49L12602.06 7450.67L12590.59 7500.32L12575.78 7551.39L12557.57 7603.86L12535.88 7657.67L12510.65 7712.78L12481.82 7769.17L12449.32 7826.79L12413.08 7885.6L12373.04 7945.56L12360.61 7962.22L12345.73 7979.9L12328.48 7998.56L12308.97 8018.13L12287.28 8038.57L12263.5 8059.82L12237.72 8081.81L12210.04 8104.5L12180.54 8127.82L12149.31 8151.73L12116.45 8176.17L12082.04 8201.07L12046.19 8226.39L12008.97 8252.07L11970.48 8278.05L11930.8 8304.28L11890.04 8330.7L11848.28 8357.25L11805.61 8383.89L11762.12 8410.54L11717.9 8437.17L11673.05 8463.7L11627.65 8490.1L11581.8 8516.29L11535.58 8542.22L11489.09 8567.85L11442.41 8593.1L11395.65 8617.94L11348.88 8642.29L11302.2 8666.11L11255.7 8689.33L11209.47 8711.91L11163.6 8733.79L11118.19 8754.9L11073.32 8775.2L11029.08 8794.63L10985.57 8813.14L10942.87 8830.66L10901.08 8847.14L10860.28 8862.53L10781.86 8888.54L10702.95 8914.13L10623.55 8939.32L10543.67 8964.13L10463.33 8988.59L10382.55 9012.71L10301.32 9036.54L10219.67 9060.08L10137.61 9083.37L10055.15 9106.43L9972.3 9129.28L9889.07 9151.95L9805.49 9174.46L9721.55 9196.84L9637.27 9219.11L9552.67 9241.3L9467.76 9263.43L9382.55 9285.52L9297.05 9307.6L9211.27 9329.7L9125.23 9351.83L9038.94 9374.02L8952.42 9396.31L8865.66 9418.7L8778.7 9441.23L8691.53 9463.92L8604.17 9486.79L8516.64 9509.87L8428.95 9533.19L8341.1 9556.76L8253.12 9580.62L8165.01 9604.78L8076.79 9629.27L7988.46 9654.12L7900.05 9679.35L7811.56 9704.98L7723.01 9731.05L7634.4 9757.56L7545.76 9784.55L7457.09 9812.05L7427.49 9821.21L7397.82 9830.21L7368.08 9839.07L7338.28 9847.79L7308.42 9856.39L7278.51 9864.9L7248.56 9873.32L7218.56 9881.68L7188.53 9889.99L7158.47 9898.26L7128.39 9906.52L7098.28 9914.78L7068.17 9923.06L7038.04 9931.37L7007.91 9939.73L6977.78 9948.15L6947.65 9956.66L6917.54 9965.27L6887.45 9973.99L6857.38 9982.85L6827.34 9991.85L6797.32 10001.02L6767.35 10010.37L6737.42 10019.92L6707.54 10029.69L6677.72 10039.68L6647.95 10049.93L6618.25 10060.44L6588.62 10071.23L6559.06 10082.31L6529.58 10093.71L6500.19 10105.44L6470.89 10117.52L6441.68 10129.96L6412.58 10142.79L6383.58 10156L6354.69 10169.63L6325.93 10183.69L6297.28 10198.2L6268.76 10213.17L6260.56 10219.52L6253.05 10226.1L6246.22 10232.9L6240.06 10239.89L6234.56 10247.06L6229.72 10254.39L6225.51 10261.85L6221.94 10269.43L6218.98 10277.11L6216.64 10284.86L6214.89 10292.67L6213.74 10300.52L6213.17 10308.38L6213.16 10316.25L6213.72 10324.09L6214.82 10331.89L6216.46 10339.63L6218.63 10347.29L6221.32 10354.85L6224.52 10362.29L6228.21 10369.59L6232.39 10376.73L6237.05 10383.69L6242.18 10390.45L6247.77 10396.99L6253.8 10403.29L6260.27 10409.34L6267.16 10415.1L6274.47 10420.57L6282.19 10425.72L6290.3 10430.54L6298.8 10435L6307.67 10439.08L6316.91 10442.76L6326.51 10446.03L6336.45 10448.86L6346.72 10451.23L6357.32 10453.13L6368.23 10454.54L6379.45 10455.43L6412.38 10455.57L6445.24 10455.32L6478.05 10454.7L6510.79 10453.7L6543.47 10452.35L6576.09 10450.63L6608.64 10448.57L6641.13 10446.16L6673.56 10443.41L6705.92 10440.33L6738.22 10436.93L6770.45 10433.21L6802.62 10429.17L6834.72 10424.83L6866.76 10420.2L6898.73 10415.27L6930.63 10410.05L6962.47 10404.55L6994.24 10398.79L7025.94 10392.75L7057.58 10386.45L7089.14 10379.91L7120.64 10373.11L7152.06 10366.07L7183.42 10358.8L7214.71 10351.3L7245.93 10343.58L7277.08 10335.65L7308.15 10327.5L7339.16 10319.16L7370.1 10310.62L7400.96 10301.89L7431.75 10292.98L7462.47 10283.89L7493.11 10274.63L7523.68 10265.21L7554.18 10255.63L7584.6 10245.91L7614.95 10236.04L7645.23 10226.03L7760.28 10187.35L7873.55 10148.6L7985.14 10109.78L8095.13 10070.88L8203.63 10031.93L8310.73 9992.91L8416.51 9953.84L8521.08 9914.71L8624.53 9875.54L8726.95 9836.33L8828.44 9797.07L8929.08 9757.78L9028.97 9718.46L9128.21 9679.1L9226.89 9639.73L9325.1 9600.33L9422.93 9560.92L9520.49 9521.5L9617.85 9482.06L9715.13 9442.63L9812.4 9403.19L9909.77 9363.76L10007.33 9324.33L10105.16 9284.92L10203.37 9245.52L10302.05 9206.15L10401.29 9166.79L10501.19 9127.47L10601.83 9088.18L10703.32 9048.92L10805.74 9009.7L10909.19 8970.52L11013.77 8931.4L11119.56 8892.32L11226.66 8853.3L11335.16 8814.34L11445.16 8775.45L11556.75 8736.62L11670.03 8697.86L11785.08 8659.18L11863.26 8637.79L11938.69 8619.95L12011.33 8605.57L12081.13 8594.55L12148.02 8586.8L12211.97 8582.21L12272.91 8580.69L12330.79 8582.14L12385.56 8586.46L12437.17 8593.56L12485.57 8603.34L12530.7 8615.7L12572.52 8630.54L12610.96 8647.77L12645.97 8667.28L12677.51 8688.99L12705.52 8712.78L12729.94 8738.58L12750.74 8766.27L12767.84 8795.76L12781.2 8826.95L12790.78 8859.75L12796.5 8894.06L12798.33 8929.78L12796.21 8966.8L12790.09 9005.05L12779.91 9044.41L12765.63 9084.79L12747.18 9126.09L12724.53 9168.22L12697.6 9211.07L12666.36 9254.55L12630.75 9298.57L12590.71 9343.02L12546.2 9387.8L12497.17 9432.83L12443.55 9478L12385.29 9523.21L12322.36 9568.36L12254.68 9613.37L12131.09 9695.11L12009.08 9773.4L11888.56 9848.39L11769.43 9920.23L11651.6 9989.07L11534.99 10055.04L11419.5 10118.31L11305.05 10179.01L11191.53 10237.29L11078.87 10293.3L10966.97 10347.19L10855.73 10399.1L10745.08 10449.18L10634.91 10497.58L10525.15 10544.45L10415.68 10589.92L10306.44 10634.15L10197.32 10677.29L10088.24 10719.48L9979.1 10760.87L9869.81 10801.6L9760.29 10841.83L9650.43 10881.69L9540.16 10921.35L9429.39 10960.93L9318.01 11000.6L9205.94 11040.49L9093.09 11080.76L8979.37 11121.55L8864.69 11163.01L8748.95 11205.28L8632.07 11248.52L8513.96 11292.87L8394.52 11338.47L8273.66 11385.47L8151.3 11434.03L8027.34 11484.28L7901.7 11536.37L7774.27 11590.46L7644.98 11646.68L7569.11 11674.66L7496.72 11702.13L7427.86 11729.03L7362.58 11755.33L7300.92 11780.95L7242.94 11805.85L7188.66 11829.97L7138.15 11853.26L7091.44 11875.66L7048.58 11897.12L7009.62 11917.58L6974.6 11936.99L6943.58 11955.3L6916.58 11972.45L6893.67 11988.39L6874.89 12003.06L6860.28 12016.41L6849.88 12028.39L6843.75 12038.93L6841.93 12047.99L6844.47 12055.51L6851.4 12061.44L6862.79 12065.72L6878.67 12068.3L6899.08 12069.12L6924.08 12068.13L6953.72 12065.28L6988.02 12060.51L7027.06 12053.77L7070.85 12044.99L7119.47 12034.14L7172.94 12021.15L7231.32 12005.97L7294.65 11988.55L7362.97 11968.82L7436.34 11946.75L7514.8 11922.26L7598.4 11895.32L7687.17 11865.85L7781.17 11833.82L7901.11 11790.34L8019.63 11747.38L8136.79 11704.9L8252.69 11662.89L8367.38 11621.32L8480.95 11580.15L8593.46 11539.36L8705.01 11498.92L8815.65 11458.81L8925.47 11419L9034.54 11379.47L9142.94 11340.17L9250.73 11301.1L9358 11262.21L9464.82 11223.49L9571.27 11184.9L9677.41 11146.42L9783.33 11108.03L9889.1 11069.69L9994.8 11031.37L10100.5 10993.06L10206.27 10954.71L10312.19 10916.32L10418.33 10877.84L10524.78 10839.25L10631.6 10800.53L10738.87 10761.65L10846.66 10722.57L10955.06 10683.28L11064.13 10643.74L11173.95 10603.93L11284.59 10563.82L11396.14 10523.39L11508.65 10482.6L11622.22 10441.43L11736.91 10399.86L11852.81 10357.84L11969.97 10315.37L12088.49 10272.41L12208.43 10228.93L12284.85 10203.26L12358.62 10181.1L12429.67 10162.36L12497.96 10146.99L12563.41 10134.9L12625.98 10126.03L12685.6 10120.29L12742.21 10117.62L12795.76 10117.94L12846.18 10121.18L12893.42 10127.26L12937.42 10136.12L12978.12 10147.68L13015.46 10161.86L13049.39 10178.59L13079.84 10197.8L13106.75 10219.42L13130.06 10243.37L13149.73 10269.57L13165.68 10297.97L13177.86 10328.47L13186.22 10361.01L13190.68 10395.52L13191.2 10431.92L13187.71 10470.13L13180.15 10510.1L13168.48 10551.73L13152.62 10594.96L13132.51 10639.72L13108.11 10685.93L13079.35 10733.51L13046.18 10782.41L13008.52 10832.53L12966.33 10883.81L12919.55 10936.18L12868.11 10989.55L12811.96 11043.87L12751.04 11099.05L12685.3 11155.02L12614.66 11211.71L12475 11286.65L12339.02 11359.64L12206.52 11430.74L12077.32 11499.99L11951.23 11567.45L11828.08 11633.16L11707.66 11697.19L11589.8 11759.56L11474.32 11820.35L11361.01 11879.6L11249.71 11937.35L11140.21 11993.66L11032.35 12048.58L10925.92 12102.16L10820.75 12154.45L10716.64 12205.51L10613.42 12255.37L10510.89 12304.09L10408.87 12351.73L10307.18 12398.33L10205.63 12443.94L10104.02 12488.62L10002.19 12532.41L9899.93 12575.36L9797.07 12617.53L9693.41 12658.97L9588.78 12699.72L9482.98 12739.83L9375.83 12779.36L9267.15 12818.36L9156.74 12856.88L9044.42 12894.97L8930.01 12932.67L8813.32 12970.04L8694.17 13007.14L8572.36 13044L8447.71 13080.68L8320.04 13117.23L8189.16 13153.7L8054.88 13190.15L7977.55 13218L7904.24 13246.07L7834.99 13274.27L7769.79 13302.52L7708.67 13330.72L7651.63 13358.81L7598.69 13386.7L7549.87 13414.3L7505.17 13441.53L7464.61 13468.31L7428.21 13494.55L7395.97 13520.18L7367.92 13545.1L7344.06 13569.24L7324.4 13592.52L7308.97 13614.84L7297.77 13636.13L7290.82 13656.3L7288.13 13675.27L7289.72 13692.95L7295.6 13709.27L7305.77 13724.15L7320.27 13737.48L7339.09 13749.21L7362.25 13759.23L7389.77 13767.47L7421.66 13773.85L7457.93 13778.28L7498.6 13780.67L7543.67 13780.95L7593.17 13779.04L7647.11 13774.84L7705.5 13768.28L7768.35 13759.27L7835.68 13747.73L7907.49 13733.58L7983.82 13716.73L8064.65 13697.11L8150.03 13674.62L8239.94 13649.18L8361.79 13598.25L8482.42 13546.85L8601.91 13495.03L8720.33 13442.86L8837.76 13390.4L8954.28 13337.7L9069.95 13284.83L9184.85 13231.84L9299.05 13178.79L9412.64 13125.74L9525.68 13072.75L9638.25 13019.89L9750.43 12967.2L9862.28 12914.75L9973.89 12862.6L10085.32 12810.81L10196.65 12759.43L10307.97 12708.53L10419.33 12658.17L10530.82 12608.39L10642.51 12559.28L10754.47 12510.87L10866.78 12463.24L10979.52 12416.43L11092.76 12370.52L11206.56 12325.56L11321.02 12281.6L11436.2 12238.72L11552.17 12196.96L11669.02 12156.39L11786.81 12117.06L11905.62 12079.04L12025.52 12042.38L12146.6 12007.15L12268.92 11973.4L12392.56 11941.19L12517.59 11910.58L12644.08 11881.63L12772.12 11854.41L12901.78 11828.96L12946.77 11827.95L12990.51 11829.08L13032.99 11832.29L13074.19 11837.52L13114.08 11844.72L13152.66 11853.81L13189.9 11864.75L13225.8 11877.48L13260.32 11891.94L13293.47 11908.07L13325.21 11925.8L13355.54 11945.09L13384.43 11965.88L13411.87 11988.1L13437.84 12011.69L13462.33 12036.61L13485.31 12062.78L13506.78 12090.16L13526.71 12118.68L13545.09 12148.29L13561.9 12178.92L13577.12 12210.51L13590.74 12243.02L13602.74 12276.38L13613.1 12310.53L13621.81 12345.41L13628.85 12380.97L13634.2 12417.14L13637.85 12453.88L13639.78 12491.11L13639.97 12528.78L13638.4 12566.84L13635.07 12605.21L13629.94 12643.86L13623.01 12682.71L13614.26 12721.71L13603.67 12760.8L13591.22 12799.92L13576.9 12839.01L13560.69 12878.02L13533.21 12913.52L13505.63 12948.26L13477.95 12982.27L13450.18 13015.57L13422.33 13048.21L13394.4 13080.19L13366.4 13111.56L13338.35 13142.35L13310.24 13172.57L13282.08 13202.27L13253.88 13231.46L13225.65 13260.18L13197.4 13288.46L13169.12 13316.33L13140.84 13343.8L13112.55 13370.93L13084.26 13397.72L13055.98 13424.22L13027.72 13450.45L12999.48 13476.43L12971.27 13502.21L12943.1 13527.8L12914.97 13553.23L12886.9 13578.55L12858.89 13603.76L12830.94 13628.91L12803.06 13654.01L12775.27 13679.11L12747.56 13704.23L12719.94 13729.39L12692.43 13754.63L12665.02 13779.98L12637.73 13805.46L12610.57 13831.1L12583.53 13856.93L12556.63 13882.99L12529.87 13909.3L12503.26 13935.88L12476.81 13962.77L12450.53 13990L12418.8 14023.47L12387.33 14057.24L12356.11 14091.29L12325.17 14125.61L12294.51 14160.19L12264.13 14195L12234.06 14230.05L12204.3 14265.3L12174.85 14300.75L12145.74 14336.38L12116.96 14372.18L12088.53 14408.13L12060.46 14444.22L12032.75 14480.44L12005.42 14516.76L11978.47 14553.18L11951.92 14589.67L11925.77 14626.24L11900.04 14662.85L11874.73 14699.5L11849.86 14736.17L11825.42 14772.85L11801.44 14809.52L11777.92 14846.16L11754.88 14882.78L11732.31 14919.34L11710.23 14955.83L11688.65 14992.24L11667.58 15028.56L11647.04 15064.77L11627.01 15100.85L11607.53 15136.8L11588.6 15172.59L11570.22 15208.21L11552.4 15243.65L11535.17 15278.89L11518.52 15313.92L11502.46 15348.73L11487.01 15383.29L11472.17 15417.6L11449.47 15471.97L11427.71 15526.06L11406.9 15579.9L11387.03 15633.5L11368.11 15686.89L11350.14 15740.08L11333.11 15793.1L11317.04 15845.95L11301.91 15898.68L11287.73 15951.28L11274.5 16003.78L11262.23 16056.21L11250.9 16108.58L11240.53 16160.9L11231.11 16213.21L11222.65 16265.51L11215.14 16317.84L11208.58 16370.2L11202.98 16422.62L11198.34 16475.11L11194.66 16527.71L11191.93 16580.41L11190.17 16633.26L11189.36 16686.26L11189.51 16739.43L11190.63 16792.8L11192.7 16846.38L11195.74 16900.19L11199.75 16954.26L11204.71 17008.6L11210.65 17063.23L11217.54 17118.17L11225.41 17173.44L11234.24 17229.06L11244.03 17285.05L11254.8 17341.43L11266.53 17398.22L11279.24 17455.44L11292.91 17513.1L11307.56 17571.23L11309.07 17572.59L11310.59 17573.95L11312.1 17575.31L11313.62 17576.67L11315.13 17578.03L11316.65 17579.39L11318.16 17580.75L11319.68 17582.11L11321.19 17583.47L11322.71 17584.82L11324.22 17586.18L11325.74 17587.54L11327.25 17588.9L11328.77 17590.26L11330.28 17591.62L11331.8 17592.98L11333.31 17594.34L11334.83 17595.7L11336.34 17597.06L11339.37 17599.77L11340.88 17601.13L11342.4 17602.49L11343.91 17603.85L11345.43 17605.21L11346.94 17606.57L11348.46 17607.93L11349.97 17609.29L11351.49 17610.65L11353 17612.01L11354.52 17613.36L11356.03 17614.72L11357.55 17616.08L11359.06 17617.44L11360.58 17618.8L11362.09 17620.16L11363.61 17621.52L11365.12 17622.88L11366.64 17624.24L11368.15 17625.6L11393.72 17615.95L11420.58 17606.56L11448.64 17597.41L11477.87 17588.52L11508.18 17579.87L11539.52 17571.45L11571.82 17563.27L11605.02 17555.33L11639.06 17547.6L11673.87 17540.1L11709.39 17532.81L11745.55 17525.73L11782.3 17518.86L11819.57 17512.2L11857.29 17505.73L11895.41 17499.45L11933.86 17493.37L11972.57 17487.47L12011.49 17481.75L12050.54 17476.2L12089.68 17470.83L12128.82 17465.62L12167.92 17460.58L12206.9 17455.69L12245.7 17450.96L12284.26 17446.38L12322.52 17441.94L12360.42 17437.64L12397.88 17433.47L12434.84 17429.44L12471.25 17425.54L12507.04 17421.75L12542.15 17418.09L12576.51 17414.53L12610.06 17411.09L12642.73 17407.75L12674.47 17404.51L12705.2 17401.36L12734.88 17398.31L12763.42 17395.34L12763.88 17378.19L12776.36 17353.05L12800.43 17320.35L12835.65 17280.48L12881.56 17233.88L12937.74 17180.95L13003.73 17122.1L13079.09 17057.75L13163.39 16988.31L13256.18 16914.2L13357.01 16835.83L13465.44 16753.62L13581.04 16667.97L13703.36 16579.31L13831.95 16488.04L13966.38 16394.59L14106.2 16299.36L14250.96 16202.76L14400.24 16105.22L14553.58 16007.14L14710.54 15908.95L14870.68 15811.04L15033.55 15713.85L15198.72 15617.77L15365.75 15523.23L15534.18 15430.64L15703.58 15340.42L15873.5 15252.97L16043.5 15168.71L16213.15 15088.05L16381.99 15011.42L16549.58 14939.21L16715.49 14871.86L16879.27 14809.76L17040.47 14753.34L17198.66 14703L17353.39 14659.17L17504.22 14622.25L17650.71 14592.66L17792.41 14570.82L17796.94 14570.21L17801.37 14569.73L17805.69 14569.37L17809.9 14569.13L17814.01 14569.01L17818.01 14569.01L17821.9 14569.13L17825.69 14569.38L17829.37 14569.74L17832.94 14570.23L17836.41 14570.84L17839.77 14571.57L17843.03 14572.42L17846.18 14573.39L17849.23 14574.48L17852.17 14575.7L17855 14577.03L17857.73 14578.49L17860.35 14580.06L17862.87 14581.76L17865.28 14583.58L17867.58 14585.52L17869.78 14587.57L17871.88 14589.75L17873.87 14592.05L17875.75 14594.47L17877.53 14597.01L17879.2 14599.67L17880.77 14602.45L17882.23 14605.35L17883.59 14608.37L17884.84 14611.51L17885.99 14614.77L17887.03 14618.15L17887.97 14621.65L17888.8 14625.27L17889.53 14629.01L17890.16 14632.87L17890.68 14636.85L17891.09 14640.95L17901.71 14777.64L17912.04 14913.91L17922.07 15049.76L17931.84 15185.24L17941.36 15320.35L17950.63 15455.12L17959.69 15589.57L17968.54 15723.73L17977.2 15857.62L17985.68 15991.26L17994.01 16124.67L18002.2 16257.88L18010.25 16390.91L18018.2 16523.78L18026.05 16656.52L18033.83 16789.14L18041.54 16921.67L18049.2 17054.14L18056.83 17186.55L18072.06 17451.35L18079.69 17583.76L18087.35 17716.23L18095.06 17848.76L18102.84 17981.38L18110.69 18114.12L18118.64 18246.99L18126.69 18380.02L18134.88 18513.23L18143.21 18646.64L18151.69 18780.28L18160.35 18914.17L18169.2 19048.33L18178.26 19182.78L18187.53 19317.55L18197.05 19452.66L18206.82 19588.14L18216.85 19723.99L18227.18 19860.26L18237.8 19996.95L18236.22 20005.46L18234.43 20013.77L18232.41 20021.89L18230.18 20029.82L18227.73 20037.54L18225.05 20045.07L18222.14 20052.39L18218.99 20059.51L18215.62 20066.42L18212 20073.11L18208.14 20079.59L18204.04 20085.85L18199.7 20091.9L18195.1 20097.72L18190.25 20103.31L18185.14 20108.68L18179.77 20113.82L18174.14 20118.72L18168.24 20123.39L18162.08 20127.82L18155.64 20132L18148.93 20135.95L18141.94 20139.64L18134.68 20143.09L18127.12 20146.29L18119.29 20149.23L18111.16 20151.91L18102.74 20154.33L18094.02 20156.49L18085 20158.39L18075.69 20160.02L18066.06 20161.37L18056.13 20162.45L18045.89 20163.26L18035.34 20163.79L18024.47 20164.03L18013.28 20164L18001.76 20163.67L17989.92 20163.06L17977.75 20162.15L17810.17 20130.88L17642.43 20100.47L17474.51 20070.94L17306.43 20042.34L17138.15 20014.71L16969.69 19988.09L16801.03 19962.51L16632.17 19938L16463.09 19914.61L16293.79 19892.38L16124.26 19871.34L15954.5 19851.53L15784.49 19832.99L15614.24 19815.76L15443.73 19799.87L15272.95 19785.35L15101.9 19772.26L14930.57 19760.63L14758.95 19750.49L14587.05 19741.88L14414.83 19734.84L14242.31 19729.41L14069.48 19725.63L13896.32 19723.52L13722.82 19723.14L13548.99 19724.52L13374.82 19727.69L13200.29 19732.7L13025.4 19739.57L12850.14 19748.36L12674.5 19759.1L12498.49 19771.81L12322.08 19786.56L12145.27 19803.36L11968.06 19822.26L11790.44 19843.29L11612.4 19866.5L11433.93 19891.92L11255.03 19919.59L11075.68 19949.54L11072.75 19922.22L11069.6 19894.67L11066.22 19866.89L11062.6 19838.9L11058.74 19810.72L11054.62 19782.36L11050.24 19753.84L11045.59 19725.16L11040.67 19696.34L11035.47 19667.4L11029.97 19638.35L11024.18 19609.2L11018.09 19579.97L11011.69 19550.67L11004.96 19521.32L10997.92 19491.93L10990.54 19462.51L10982.81 19433.08L10974.74 19403.65L10966.32 19374.24L10957.54 19344.86L10948.38 19315.52L10938.85 19286.24L10928.93 19257.04L10918.63 19227.92L10907.92 19198.9L10896.81 19169.99L10885.29 19141.22L10873.35 19112.58L10860.98 19084.11L10848.17 19055.8L10834.92 19027.68L10821.23 18999.76L10807.07 18972.05L10792.46 18944.56L10777.37 18917.32L10761.8 18890.33L10745.75 18863.61L10729.2 18837.18L10712.16 18811.04L10569.68 18749.4L10426.87 18690.59L10283.76 18634.61L10140.34 18581.43L9996.63 18531.04L9852.62 18483.42L9708.32 18438.57L9563.74 18396.45L9418.89 18357.06L9273.77 18320.38L9128.39 18286.4L8982.75 18255.09L8836.86 18226.45L8690.73 18200.45L8544.36 18177.09L8397.76 18156.34L8250.94 18138.2L8103.9 18122.64L7956.64 18109.64L7809.18 18099.2L7661.52 18091.3L7513.66 18085.91L7365.62 18083.03L7217.39 18082.65L7068.99 18084.73L6920.42 18089.28L6771.69 18096.26L6622.8 18105.67L6473.76 18117.5L6324.58 18131.71L6175.25 18148.31L6025.8 18167.27L5876.22 18188.58L5726.52 18212.22L5576.71 18238.17L5426.78 18266.43L5276.76 18296.97L5126.64 18329.78L4976.44 18364.84L4826.15 18402.14L4799.99 18407.6L4775 18412.99L4751.14 18418.33L4728.39 18423.64L4706.73 18428.97L4686.13 18434.32L4666.58 18439.73L4648.06 18445.22L4630.53 18450.82L4613.97 18456.55L4598.37 18462.44L4583.7 18468.53L4569.93 18474.82L4557.05 18481.36L4545.03 18488.16L4533.85 18495.25L4523.48 18502.66L4513.9 18510.41L4505.1 18518.54L4497.04 18527.06L4489.71 18536L4483.08 18545.39L4477.12 18555.25L4471.83 18565.62L4467.16 18576.51L4463.1 18587.96L4459.64 18599.99L4456.73 18612.62L4454.37 18625.88L4452.52 18639.8L4451.17 18654.4L4450.3 18669.71L4449.87 18685.76L4449.87 18702.57L4450.28 18720.17L4451.07 18738.59L4452.21 18757.84L4453.69 18777.96L4455.49 18798.98L4457.57 18820.91L4457.08 18896.68L4457.71 18973.99L4459.41 19052.76L4462.14 19132.91L4465.86 19214.35L4470.53 19297L4476.1 19380.78L4482.53 19465.6L4489.77 19551.37L4497.8 19638.02L4506.55 19725.46L4516 19813.61L4526.1 19902.37L4536.81 19991.68L4548.08 20081.45L4559.87 20171.58L4572.14 20262L4584.84 20352.63L4597.95 20443.38L4611.4 20534.16L4625.17 20624.9L4639.2 20715.51L4653.45 20805.9L4667.89 20895.99L4682.47 20985.7L4697.15 21074.95L4711.89 21163.64L4726.63 21251.71L4741.35 21339.05L4756 21425.6L4770.53 21511.26L4784.91 21595.95L4799.08 21679.59L4813.02 21762.09L4826.67 21843.37L4840 21923.35L4852.96 22001.95L4865.51 22079.07L4877.6 22154.64L4889.2 22228.57L4892.7 22243.85L4896.9 22258.39L4901.81 22272.18L4907.41 22285.24L4913.71 22297.58L4920.68 22309.2L4928.34 22320.11L4936.67 22330.32L4945.68 22339.84L4955.34 22348.67L4965.66 22356.82L4976.64 22364.29L4988.26 22371.11L5000.52 22377.26L5013.42 22382.77L5026.96 22387.64L5041.11 22391.87L5055.89 22395.48L5071.28 22398.46L5087.28 22400.84L5103.88 22402.61L5121.08 22403.79L5138.87 22404.38L5157.25 22404.39L5176.21 22403.83L5195.75 22402.7L5215.85 22401.01L5236.53 22398.77L5257.76 22395.99L5279.55 22392.67L5301.88 22388.83L5324.76 22384.46L5348.18 22379.59L5372.13 22374.21L5396.6 22368.33L5421.6 22361.96L5447.12 22355.11L5473.14 22347.78L5499.67 22339.99L5526.7 22331.74L5658.17 22276.73L5789.73 22221.18L5921.37 22165.12L6053.09 22108.58L6184.88 22051.59L6316.74 21994.17L6448.66 21936.36L6580.64 21878.18L6712.68 21819.66L6844.76 21760.83L6976.89 21701.71L7109.06 21642.35L7241.27 21582.75L7373.5 21522.96L7505.77 21462.99L7638.06 21402.89L7770.36 21342.67L7902.68 21282.37L8035.01 21222.01L8167.34 21161.62L8299.67 21101.24L8432 21040.88L8564.32 20980.57L8696.63 20920.36L8828.92 20860.25L8961.18 20800.29L9093.42 20740.5L9225.62 20680.9L9357.79 20621.53L9489.92 20562.42L9622.01 20503.59L9754.04 20445.07L9886.02 20386.88L10017.95 20329.07L10149.8 20271.65L10281.6 20214.66L10413.31 20158.12L10544.96 20102.06L10676.52 20046.51L10807.99 19991.5L10807.15 20000.24L10806.34 20008.31L10805.54 20015.76L10804.76 20022.6L10803.99 20028.89L10803.24 20034.65L10802.49 20039.91L10801.76 20044.72L10801.04 20049.11L10800.32 20053.11L10799.61 20056.76L10798.9 20060.09L10798.19 20063.14L10797.49 20065.94L10796.78 20068.53L10796.07 20070.93L10795.36 20073.2L10794.64 20075.35L10793.91 20077.44L10793.17 20079.48L10792.43 20081.52L10791.67 20083.59L10790.89 20085.72L10790.1 20087.95L10789.3 20090.32L10788.47 20092.86L10787.62 20095.6L10786.76 20098.59L10785.86 20101.84L10784.95 20105.41L10784 20109.32L10783.03 20113.6L10782.03 20118.31L10780.99 20123.45L10779.92 20129.09L10778.82 20135.24L10777.68 20141.94L10776.51 20149.23L10775.29 20157.14L10774.03 20165.71L10617.51 20229.42L10461.74 20293.81L10306.75 20358.87L10152.51 20424.6L9999.06 20490.99L9846.38 20558.05L9694.48 20625.76L9543.37 20694.13L9393.04 20763.15L9243.52 20832.82L9094.79 20903.12L8946.87 20974.07L8799.76 21045.65L8653.46 21117.86L8507.99 21190.7L8363.33 21264.16L8219.5 21338.24L8076.5 21412.94L7934.34 21488.24L7793.02 21564.16L7652.54 21640.68L7512.92 21717.79L7374.14 21795.51L7236.23 21873.81L7099.18 21952.71L6963 22032.18L6827.69 22112.24L6693.26 22192.88L6559.71 22274.09L6427.04 22355.86L6295.27 22438.2L6164.39 22521.11L6034.41 22604.57L5905.34 22688.58L5777.17 22773.14L5649.91 22858.25L5523.58 22943.9L5398.16 23030.09L5273.68 23116.81L5150.12 23204.06L5145.84 23207.88L5141.4 23211.48L5136.81 23214.86L5132.08 23218.01L5127.23 23220.95L5122.25 23223.67L5117.17 23226.18L5111.98 23228.49L5106.7 23230.58L5101.35 23232.48L5095.92 23234.17L5090.42 23235.67L5084.88 23236.97L5079.29 23238.08L5073.67 23239.01L5068.02 23239.75L5062.36 23240.3L5056.7 23240.68L5051.03 23240.88L5045.39 23240.91L5039.76 23240.76L5034.17 23240.45L5028.62 23239.98L5023.12 23239.34L5017.69 23238.55L5012.33 23237.6L5007.04 23236.49L5001.85 23235.24L4996.75 23233.84L4991.77 23232.29L4986.9 23230.61L4982.17 23228.79L4977.56 23226.83L4973.11 23224.74L4968.82 23222.52L4964.69 23220.17L4960.73 23217.7L4956.96 23215.11L4953.39 23212.4L4950.02 23209.58L4947.26 23207.05L4944.54 23204.36L4941.85 23201.52L4939.2 23198.53L4936.58 23195.39L4933.99 23192.11L4931.43 23188.69L4928.9 23185.14L4926.4 23181.47L4923.93 23177.67L4921.49 23173.76L4919.08 23169.73L4916.69 23165.6L4914.32 23161.36L4911.98 23157.02L4909.66 23152.6L4907.36 23148.08L4905.09 23143.48L4902.84 23138.8L4900.6 23134.04L4898.38 23129.22L4896.18 23124.33L4894 23119.38L4891.84 23114.37L4889.69 23109.32L4887.55 23104.21L4885.43 23099.07L4883.31 23093.89L4881.21 23088.68L4879.13 23083.44L4877.05 23078.17L4874.98 23072.89L4872.91 23067.6L4870.86 23062.3L4868.81 23057L4866.76 23051.69L4864.72 23046.4L4862.69 23041.11L4860.65 23035.84L4858.62 23030.59L4831.93 22911.18L4805.21 22791.43L4778.5 22671.37L4751.83 22550.99L4725.25 22430.32L4698.8 22309.38L4672.52 22188.19L4646.44 22066.75L4620.61 21945.09L4595.06 21823.21L4569.84 21701.15L4544.99 21578.91L4520.54 21456.51L4496.54 21333.96L4473.03 21211.29L4450.04 21088.51L4427.61 20965.63L4405.79 20842.67L4384.62 20719.65L4364.13 20596.59L4344.37 20473.49L4325.37 20350.38L4307.18 20227.27L4289.83 20104.18L4273.37 19981.13L4257.83 19858.12L4243.26 19735.19L4229.69 19612.33L4217.16 19489.58L4205.72 19366.94L4195.4 19244.44L4186.25 19122.08L4178.3 18999.89L4171.6 18877.88L4166.17 18756.07L4162.07 18634.47L4159.34 18513.1L4158.01 18391.98L4158.12 18271.11L4159.71 18150.53L4287.48 18090.12L4416.63 18033.35L4547.21 17980.16L4679.27 17930.52L4812.86 17884.39L4948.02 17841.7L5084.81 17802.43L5223.27 17766.52L5363.44 17733.92L5505.38 17704.6L5649.14 17678.51L5794.76 17655.61L5942.29 17635.83L6091.78 17619.16L6243.27 17605.53L6396.82 17594.9L6552.46 17587.22L6710.26 17582.46L6870.26 17580.57L7032.5 17581.49L7197.03 17585.19L7363.9 17591.62L7533.16 17600.74L7704.86 17612.49L7879.04 17626.84L8055.76 17643.74L8235.05 17663.15L8416.97 17685.01L8601.57 17709.28L8788.89 17735.92L8978.98 17764.89L9171.9 17796.13L9367.67 17829.6L9566.37 17865.26L9768.02 17903.07L9972.69 17942.97L10180.42 17984.92L10391.25 18028.87L10605.23 18074.79L10822.42 18122.62L10816.23 18070.62L10809.99 18016.78L10803.7 17961.2L10797.4 17903.98L10791.11 17845.23L10784.84 17785.04L10778.63 17723.53L10772.48 17660.79L10766.43 17596.92L10760.5 17532.03L10754.71 17466.23L10749.07 17399.6L10743.62 17332.26L10738.37 17264.31L10733.35 17195.84L10728.58 17126.97L10724.08 17057.79L10719.87 16988.41L10715.97 16918.93L10712.41 16849.45L10709.21 16780.08L10706.39 16710.91L10703.97 16642.05L10701.97 16573.61L10700.42 16505.67L10699.34 16438.36L10698.75 16371.76L10698.68 16305.98L10699.13 16241.13L10700.15 16177.3L10701.74 16114.6L10703.93 16053.13L10706.74 15993L10710.2 15934.3L10714.32 15877.14L10719.14 15821.62L10724.66 15767.84L10730.92 15715.91L10737.92 15665.92L10745.71 15617.99L10757.8 15554.27L10771.51 15492.03L10786.81 15431.23L10803.66 15371.8L10821.99 15313.68L10841.78 15256.84L10862.98 15201.19L10885.53 15146.71L10909.39 15093.32L10934.53 15040.96L10960.89 14989.6L10988.42 14939.16L11017.09 14889.6L11046.85 14840.86L11077.64 14792.88L11109.44 14745.61L11142.18 14698.99L11175.84 14652.96L11210.35 14607.48L11245.68 14562.48L11281.78 14517.91L11318.6 14473.71L11356.1 14429.84L11394.24 14386.22L11432.97 14342.81L11472.23 14299.55L11512 14256.39L11552.22 14213.27L11592.85 14170.13L11633.84 14126.92L11675.15 14083.58L11716.73 14040.06L11758.53 13996.3L11800.52 13952.25L11842.64 13907.85L11884.85 13863.05L11927.11 13817.78L11969.37 13772L12011.58 13725.64L12053.7 13678.66L12072.88 13657.12L12092.08 13635.6L12111.31 13614.12L12130.59 13592.67L12149.91 13571.24L12169.29 13549.83L12188.74 13528.43L12208.25 13507.06L12227.85 13485.69L12247.54 13464.34L12267.33 13442.99L12287.22 13421.65L12307.23 13400.3L12327.36 13378.96L12347.63 13357.61L12368.03 13336.25L12388.58 13314.89L12409.28 13293.51L12430.15 13272.11L12451.19 13250.7L12472.41 13229.26L12493.82 13207.8L12515.42 13186.31L12537.24 13164.79L12559.26 13143.24L12581.51 13121.65L12603.98 13100.03L12626.7 13078.36L12649.66 13056.65L12672.87 13034.89L12696.35 13013.08L12720.1 12991.22L12744.12 12969.3L12768.44 12947.32L12793.05 12925.28L12817.96 12903.18L12843.19 12881.01L12868.73 12858.77L12894.61 12836.46L12920.82 12814.07L12954.34 12741.86L12966.8 12682.06L12959.19 12634.14L12932.54 12597.55L12887.86 12571.75L12826.15 12556.19L12748.44 12550.35L12655.74 12553.67L12549.06 12565.61L12429.41 12585.64L12297.81 12613.21L12155.26 12647.78L12002.79 12688.81L11841.41 12735.76L11672.12 12788.09L11495.95 12845.25L11313.9 12906.71L11126.99 12971.92L10936.24 13040.34L10742.64 13111.43L10547.23 13184.65L10351.01 13259.46L10154.99 13335.32L9960.19 13411.68L9767.62 13488.01L9578.29 13563.76L9393.22 13638.39L9213.42 13711.36L9039.91 13782.14L8873.69 13850.17L8715.78 13914.91L8567.19 13975.83L8428.94 14032.39L8302.04 14084.04L8187.5 14130.24L8086.34 14170.44L7999.56 14204.12L7928.19 14230.73L7873.23 14249.72L7835.7 14260.56L7740.18 14274.83L7647.56 14285.94L7557.91 14293.95L7471.32 14298.93L7387.86 14300.95L7307.61 14300.08L7230.66 14296.39L7157.07 14289.95L7086.93 14280.84L7020.32 14269.11L6957.31 14254.84L6897.99 14238.1L6842.44 14218.96L6790.73 14197.49L6742.93 14173.76L6699.14 14147.84L6659.43 14119.79L6623.88 14089.7L6592.56 14057.62L6565.57 14023.62L6542.96 13987.79L6524.83 13950.18L6511.26 13910.87L6502.31 13869.92L6498.08 13827.41L6498.63 13783.41L6504.06 13737.98L6514.43 13691.19L6529.83 13643.12L6550.33 13593.84L6576.02 13543.41L6606.97 13491.9L6643.26 13439.39L6684.97 13385.94L6732.18 13331.63L6784.97 13276.51L6843.42 13220.67L6907.61 13164.18L6977.61 13107.09L7053.5 13049.49L7085.19 13024.57L7129.63 12996.91L7186.16 12966.65L7254.15 12933.9L7332.95 12898.79L7421.9 12861.44L7520.36 12821.97L7627.69 12780.51L7743.24 12737.17L7866.36 12692.08L7996.4 12645.37L8132.72 12597.15L8274.67 12547.55L8421.61 12496.69L8572.88 12444.7L8727.84 12391.69L8885.84 12337.79L9046.25 12283.12L9208.4 12227.81L9371.65 12171.97L9535.36 12115.73L9698.88 12059.21L9861.56 12002.54L10022.75 11945.83L10181.81 11889.21L10338.1 11832.81L10490.96 11776.74L10639.74 11721.13L10783.81 11666.1L10922.51 11611.77L11055.2 11558.26L11181.23 11505.71L11299.95 11454.22L11410.72 11403.93L11512.89 11354.96L11605.81 11307.42L11688.83 11261.44L11761.32 11217.15L11822.62 11174.67L11872.08 11134.11L11899.23 11115.03L11925.69 11095.62L11951.39 11075.95L11976.24 11056.1L12000.19 11036.13L12023.15 11016.12L12045.06 10996.14L12065.85 10976.25L12085.44 10956.54L12103.77 10937.06L12120.75 10917.9L12136.32 10899.11L12150.41 10880.78L12162.95 10862.97L12173.86 10845.76L12183.07 10829.22L12190.51 10813.41L12196.11 10798.4L12199.8 10784.28L12201.5 10771.11L12201.15 10758.95L12198.66 10747.89L12193.98 10737.99L12187.03 10729.32L12177.73 10721.96L12166.02 10715.97L12151.83 10711.43L12135.07 10708.4L12115.68 10706.96L12093.6 10707.19L12068.74 10709.14L12041.03 10712.89L12010.41 10718.51L11976.8 10726.08L11940.13 10735.66L11900.33 10747.33L11857.33 10761.15L11811.05 10777.19L11761.42 10795.54L11708.38 10816.25L11618.35 10848.71L11528.57 10881.9L11439.04 10915.79L11349.74 10950.32L11260.66 10985.48L11171.78 11021.21L11083.09 11057.47L10994.58 11094.24L10906.23 11131.47L10818.03 11169.13L10729.96 11207.17L10642.02 11245.55L10554.19 11284.24L10466.45 11323.2L10378.79 11362.4L10291.2 11401.78L10203.66 11441.32L10116.17 11480.97L10028.7 11520.7L9941.25 11560.47L9853.8 11600.24L9766.33 11639.97L9678.84 11679.63L9591.3 11719.16L9503.71 11758.55L9416.06 11797.74L9328.32 11836.7L9240.49 11875.39L9152.54 11913.78L9064.48 11951.81L8976.28 11989.47L8887.93 12026.7L8799.42 12063.46L8710.74 12099.73L8621.86 12135.46L8532.78 12170.61L8443.48 12205.15L8353.95 12239.03L8264.18 12272.22L8174.15 12304.68L8135.49 12318.28L8089.89 12333.99L8037.85 12351.55L7979.89 12370.7L7916.5 12391.21L7848.18 12412.8L7775.45 12435.24L7698.79 12458.26L7618.72 12481.6L7535.74 12505.03L7450.35 12528.27L7363.05 12551.08L7274.36 12573.21L7184.76 12594.4L7094.76 12614.39L7004.87 12632.94L6915.59 12649.79L6827.42 12664.68L6740.87 12677.36L6656.43 12687.58L6574.62 12695.08L6495.93 12699.61L6420.87 12700.92L6349.94 12698.74L6283.64 12692.84L6222.48 12682.95L6166.96 12668.82L6117.59 12650.19L6074.86 12626.82L6039.27 12598.45L6011.34 12564.82L5991.57 12525.67L5980.45 12480.77L5978.5 12429.85L5986.21 12372.66L6004.08 12308.94L6032.63 12238.44L6072.35 12160.91L6123.74 12076.1L6187.32 11983.74L6243.42 11916.94L6305.72 11851.45L6374.01 11787.23L6448.06 11724.22L6527.65 11662.39L6612.57 11601.69L6702.59 11542.06L6797.49 11483.46L6897.04 11425.86L7001.03 11369.19L7109.23 11313.41L7221.43 11258.48L7337.4 11204.35L7456.92 11150.97L7579.77 11098.29L7705.73 11046.28L7834.57 10994.88L7966.08 10944.05L8100.03 10893.74L8236.2 10843.9L8374.37 10794.49L8514.33 10745.45L8655.84 10696.76L8798.68 10648.35L8942.64 10600.17L9087.5 10552.2L9233.03 10504.37L9379 10456.64L9525.21 10408.97L9671.43 10361.3L9817.43 10313.59L9962.99 10265.8L10107.9 10217.88L10251.94 10169.78L10394.87 10121.45L10536.48 10072.85L10676.55 10023.94L10814.86 9974.66L10951.18 9924.96L11085.3 9874.81L11114.15 9863.8L11142.86 9852.71L11171.42 9841.53L11199.83 9830.26L11228.1 9818.91L11256.21 9807.46L11284.17 9795.91L11311.97 9784.28L11339.62 9772.55L11367.09 9760.72L11394.41 9748.8L11421.56 9736.77L11448.53 9724.65L11475.34 9712.43L11501.97 9700.1L11528.42 9687.67L11554.69 9675.13L11580.78 9662.49L11606.68 9649.74L11632.4 9636.88L11657.93 9623.9L11683.26 9610.82L11708.4 9597.63L11733.34 9584.32L11758.08 9570.89L11782.61 9557.35L11806.94 9543.69L11831.07 9529.91L11854.98 9516.01L11878.68 9501.99L11902.16 9487.84L11925.43 9473.57L11948.47 9459.18L11971.29 9444.65L11993.89 9430L12016.26 9415.22L12038.39 9400.31L12060.29 9385.27L12081.96 9370.09L12103.39 9354.78L12120.3 9339.93L12136.35 9324.93L12151.53 9309.81L12165.84 9294.62L12179.25 9279.38L12191.76 9264.15L12203.35 9248.95L12214.02 9233.82L12223.76 9218.79L12232.55 9203.91L12240.38 9189.22L12247.24 9174.74L12253.11 9160.51L12258 9146.58L12261.88 9132.98L12264.75 9119.74L12266.59 9106.91L12267.39 9094.52L12267.14 9082.6L12265.84 9071.2L12263.46 9060.35L12260 9050.08L12255.44 9040.44L12249.78 9031.46L12243 9023.18L12235.1 9015.64L12226.05 9008.87L12215.86 9002.9L12204.5 8997.79L12191.97 8993.55L12178.26 8990.24L12163.35 8987.88L12147.23 8986.51L12129.89 8986.18L12111.33 8986.91L12091.52 8988.75L12070.47 8991.73L12048.15 8995.89L12024.55 9001.26L11999.67 9007.89L11915.31 9029.21L11827.71 9053.43L11737.04 9080.41L11643.46 9110.02L11547.12 9142.11L11448.18 9176.55L11346.8 9213.2L11243.14 9251.93L11137.35 9292.58L11029.59 9335.04L10920.03 9379.15L10808.81 9424.79L10696.11 9471.81L10582.06 9520.08L10466.85 9569.45L10350.61 9619.8L10233.51 9670.97L10115.72 9722.84L9997.37 9775.27L9878.64 9828.12L9759.69 9881.25L9640.66 9934.52L9521.73 9987.8L9403.03 10040.95L9284.75 10093.83L9167.02 10146.3L9050.02 10198.22L8933.89 10249.46L8818.81 10299.88L8704.91 10349.34L8592.37 10397.71L8481.34 10444.84L8371.98 10490.6L8264.45 10534.85L8158.9 10577.45L8055.5 10618.27L7954.4 10657.16L7855.75 10693.99L7759.73 10728.62L7666.48 10760.92L7644.02 10768.12L7616.94 10776.05L7585.48 10784.66L7549.88 10793.85L7510.37 10803.54L7467.18 10813.67L7420.57 10824.14L7370.75 10834.89L7317.97 10845.83L7262.47 10856.89L7204.47 10867.98L7144.21 10879.03L7081.94 10889.96L7017.88 10900.69L6952.28 10911.14L6885.36 10921.24L6817.36 10930.9L6748.53 10940.04L6679.09 10948.6L6609.29 10956.48L6539.35 10963.61L6469.51 10969.92L6400.02 10975.31L6331.1 10979.73L6262.99 10983.08L6195.93 10985.28L6130.15 10986.27L6065.89 10985.96L6003.39 10984.27L5942.87 10981.12L5884.59 10976.43L5828.77 10970.14L5775.64 10962.15L5725.45 10952.39L5678.44 10940.78L5634.83 10927.24L5594.86 10911.7L5558.77 10894.07L5526.79 10874.28L5499.17 10852.24L5490.26 10843.85L5481.26 10834.87L5472.23 10825.31L5463.21 10815.19L5454.26 10804.52L5445.42 10793.32L5436.76 10781.62L5428.31 10769.41L5420.14 10756.72L5412.29 10743.57L5404.81 10729.97L5397.76 10715.94L5391.19 10701.49L5385.15 10686.64L5379.68 10671.41L5374.85 10655.81L5370.7 10639.85L5367.29 10623.56L5364.66 10606.95L5362.87 10590.03L5361.97 10572.83L5362 10555.36L5363.03 10537.62L5365.1 10519.65L5368.27 10501.46L5372.58 10483.06L5378.09 10464.46L5384.84 10445.69L5392.9 10426.76L5402.31 10407.69L5413.12 10388.49L5425.38 10369.18L5439.15 10349.78L5454.47 10330.29L5471.41 10310.74L5490 10291.15L5510.31 10271.52L5532.37 10251.88L5556.25 10232.24L5582 10212.62L5616.86 10186L5652.66 10160.02L5689.35 10134.65L5726.91 10109.87L5765.28 10085.67L5804.44 10062.02L5844.35 10038.91L5884.97 10016.32L5926.26 9994.22L5968.18 9972.61L6010.71 9951.46L6053.8 9930.75L6097.41 9910.46L6141.5 9890.58L6186.05 9871.08L6231.01 9851.95L6276.35 9833.17L6322.02 9814.71L6367.99 9796.57L6414.23 9778.71L6460.69 9761.13L6507.34 9743.8L6554.15 9726.7L6601.06 9709.82L6648.06 9693.14L6695.09 9676.63L6742.13 9660.28L6789.13 9644.07L6836.06 9627.98L6882.88 9611.99L6929.56 9596.08L6976.05 9580.23L7022.32 9564.43L7068.33 9548.66L7114.05 9532.89L7159.43 9517.11L7204.45 9501.3L7249.06 9485.43L7293.22 9469.5L7336.9 9453.48L7380.94 9437.21L7424.84 9421.05L7468.6 9405.01L7512.24 9389.08L7555.76 9373.27L7599.17 9357.58L7642.5 9342L7685.73 9326.55L7728.9 9311.22L7772 9296.01L7815.05 9280.92L7858.06 9265.96L7901.05 9251.12L7944.01 9236.41L7986.96 9221.83L8029.91 9207.38L8072.88 9193.06L8115.87 9178.87L8158.89 9164.81L8201.96 9150.88L8245.08 9137.09L8288.26 9123.43L8331.53 9109.92L8374.87 9096.53L8418.32 9083.29L8461.87 9070.19L8505.55 9057.23L8549.35 9044.41L8593.29 9031.73L8637.38 9019.2L8681.64 9006.82L8726.06 8994.58L8770.67 8982.49L8815.47 8970.55L8860.47 8958.75L8905.69 8947.11L8951.13 8935.62L8996.81 8924.29L9042.73 8913.11L9088.91 8902.08L9112.67 8896.33L9137.56 8890.04L9163.54 8883.24L9190.58 8875.93L9218.66 8868.13L9247.74 8859.86L9277.79 8851.12L9308.78 8841.93L9340.68 8832.3L9373.45 8822.25L9407.07 8811.8L9441.5 8800.95L9476.72 8789.72L9512.69 8778.12L9549.38 8766.17L9586.75 8753.88L9624.79 8741.27L9663.45 8728.35L9702.71 8715.13L9742.53 8701.62L9782.89 8687.85L9823.75 8673.82L9865.08 8659.55L9906.84 8645.05L9949.02 8630.34L9991.57 8615.42L10034.47 8600.33L10077.69 8585.05L10121.18 8569.63L10164.93 8554.05L10208.9 8538.35L10253.06 8522.53L10297.38 8506.6L10341.82 8490.59L10386.37 8474.5L10430.97 8458.35L10475.61 8442.15L10520.25 8425.92L10564.87 8409.67L10609.42 8393.41L10649.84 8378.65L10690.16 8363.93L10730.36 8349.22L10770.41 8334.55L10810.28 8319.9L10849.94 8305.27L10889.37 8290.66L10928.53 8276.07L10967.4 8261.5L11005.96 8246.94L11044.16 8232.4L11081.98 8217.87L11119.4 8203.36L11156.38 8188.86L11192.9 8174.36L11228.93 8159.88L11264.44 8145.4L11299.4 8130.92L11333.79 8116.45L11367.57 8101.98L11400.72 8087.51L11433.2 8073.03L11465 8058.56L11496.08 8044.08L11526.41 8029.6L11555.96 8015.11L11584.72 8000.61L11612.64 7986.1L11639.7 7971.58L11665.87 7957.04L11691.12 7942.5L11715.43 7927.93L11738.76 7913.35L11761.09 7898.75L11782.39 7884.13L11802.64 7869.49L11821.79 7854.82L11839.83 7840.13L11856.72 7825.41L11872.44 7810.67L11892.41 7790.1L11910.68 7769.07L11927.26 7747.65L11942.16 7725.91L11955.38 7703.94L11966.93 7681.79L11976.81 7659.56L11985.02 7637.3L11991.57 7615.09L11996.47 7593.02L11999.73 7571.14L12001.33 7549.54L12001.3 7528.29L11999.64 7507.46L11996.35 7487.12L11991.43 7467.36L11984.89 7448.24L11976.75 7429.83L11966.99 7412.22L11955.63 7395.47L11942.67 7379.66L11928.12 7364.86L11911.97 7351.15L11894.25 7338.6L11874.95 7327.28L11854.07 7317.27L11831.63 7308.64L11807.62 7301.46L11782.06 7295.81L11754.94 7291.76L11726.27 7289.39L11696.06 7288.77L11664.31 7289.97L11631.03 7293.07L11596.22 7298.14L11559.89 7305.26L11522.04 7314.49L11482.68 7325.91L11441.81 7339.6L11399.44 7355.63L11295.32 7401.71L11184.92 7452.62L11068.57 7508.03L10946.59 7567.62L10819.33 7631.04L10687.1 7697.99L10550.23 7768.11L10409.06 7841.1L10263.91 7916.6L10115.12 7994.31L9963 8073.88L9807.89 8154.98L9650.11 8237.29L9490 8320.49L9327.89 8404.22L9164.09 8488.18L8998.95 8572.03L8832.79 8655.43L8665.94 8738.07L8498.72 8819.6L8331.47 8899.71L8164.52 8978.05L7998.19 9054.31L7832.81 9128.15L7668.71 9199.25L7506.22 9267.26L7345.66 9331.87L7187.38 9392.74L7031.69 9449.55L6878.92 9501.96L6729.41 9549.65L6583.47 9592.28L6441.45 9629.53L6303.66 9661.07L6170.45 9686.56L6042.13 9705.68L5919.03 9718.1L5801.48 9723.48L5689.82 9721.51L5584.37 9711.84L5533.7 9703.77L5484.69 9693.36L5437.38 9680.7L5391.8 9665.89L5348 9649.03L5306 9630.24L5265.86 9609.6L5227.59 9587.21L5191.25 9563.19L5156.87 9537.62L5124.47 9510.62L5094.11 9482.27L5065.82 9452.69L5039.64 9421.98L5015.59 9390.23L4993.73 9357.54L4974.08 9324.02L4956.68 9289.77L4941.58 9254.89L4928.8 9219.47L4918.38 9183.63L4910.36 9147.46L4904.78 9111.06L4901.68 9074.54L4901.09 9037.99L4903.04 9001.51L4907.58 8965.21L4914.75 8929.19L4924.57 8893.55L4937.09 8858.39L4952.34 8823.81L4970.36 8789.91L4991.19 8756.79L5014.86 8724.56L5041.41 8693.31L5070.88 8663.15L5103.3 8634.17L5138.72 8606.48L5177.16 8580.18L5218.67 8555.37L5229.92 8549.19L5241.87 8542.82L5254.5 8536.26L5267.78 8529.54L5281.67 8522.65L5296.16 8515.62L5311.2 8508.44L5326.78 8501.15L5342.86 8493.74L5359.41 8486.23L5376.41 8478.63L5393.82 8470.96L5411.62 8463.22L5429.77 8455.42L5448.26 8447.58L5467.04 8439.72L5486.09 8431.83L5505.38 8423.94L5524.89 8416.05L5544.57 8408.18L5564.41 8400.34L5584.38 8392.54L5604.44 8384.79L5624.57 8377.1L5644.74 8369.49L5664.91 8361.97L5685.06 8354.54L5705.17 8347.23L5725.19 8340.04L5745.11 8332.99L5764.89 8326.08L5784.51 8319.33L5803.93 8312.74L5823.12 8306.34L5842.06 8300.14L5860.73 8294.14L5879.08 8288.35L5897.09 8282.8L5914.73 8277.48L5931.97 8272.42L6048.33 8242.08L6168.52 8208.92L6292.26 8173.1L6419.28 8134.78L6549.34 8094.13L6682.15 8051.3L6817.46 8006.47L6955 7959.79L7094.51 7911.43L7235.73 7861.54L7378.38 7810.3L7522.2 7757.86L7666.94 7704.38L7812.32 7650.03L7958.08 7594.98L8103.96 7539.38L8249.69 7483.39L8395 7427.19L8539.64 7370.92L8683.34 7314.76L8825.83 7258.87L8966.85 7203.41L9106.13 7148.53L9243.42 7094.41L9378.44 7041.21L9510.93 6989.09L9640.63 6938.21L9767.27 6888.73L9890.59 6840.83L10010.33 6794.65L10126.21 6750.36L10237.98 6708.13L10345.36 6668.11L10448.1 6630.48L10545.94 6595.39L10638.6 6563L10725.82 6533.48L10807.34 6506.99L10882.89 6483.69L10952.21 6463.75L10961.3 6461.15L10969.9 6458.33L10978.03 6455.28L10985.69 6452.03L10992.9 6448.59L10999.67 6444.95L11006 6441.13L11011.91 6437.15L11017.41 6433.01L11022.52 6428.72L11027.23 6424.29L11031.57 6419.74L11035.54 6415.06L11039.15 6410.28L11042.42 6405.39L11045.35 6400.42L11047.97 6395.37L11050.27 6390.25L11052.26 6385.07L11053.97 6379.84L11055.4 6374.58L11056.56 6369.28L11057.46 6363.96L11058.12 6358.64L11058.54 6353.31L11058.73 6348L11058.71 6342.7L11058.49 6337.43L11058.07 6332.21L11057.47 6327.03L11056.71 6321.92L11055.78 6316.87L11054.71 6311.9L11053.49 6307.02L11052.15 6302.24L11050.7 6297.58L11049.13 6293.03L11047.48 6288.6L11045.74 6284.32L11043.93 6280.19L11041.84 6275.76L11039.66 6271.5L11037.39 6267.39L11035.04 6263.44L11032.61 6259.64L11030.11 6255.98L11027.55 6252.48L11024.92 6249.11L11022.23 6245.89L11019.49 6242.81L11016.7 6239.86L11013.86 6237.04L11010.99 6234.36L11008.08 6231.8L11005.15 6229.37L11002.19 6227.05L10999.21 6224.86L10996.21 6222.78L10993.21 6220.82L10990.2 6218.96L10987.19 6217.21L10984.18 6215.57L10981.19 6214.03L10978.2 6212.59L10975.24 6211.25L10972.3 6210L10969.39 6208.85L10966.51 6207.78L10963.67 6206.79L10960.87 6205.89L10958.12 6205.07L10955.43 6204.33L10952.79 6203.66L10950.21 6203.07L10947.7 6202.54L10945.26 6202.08L10942.89 6201.68L10940.61 6201.35L10938.42 6201.07L10936.31 6200.85L10828.53 6194.22L10718.54 6194.27L10606.35 6200.66L10491.97 6213.06L10375.43 6231.15L10256.73 6254.59L10135.9 6283.05L10012.95 6316.2L9887.9 6353.71L9760.76 6395.25L9631.55 6440.49L9500.28 6489.11L9366.97 6540.76L9231.64 6595.12L9094.31 6651.85L8954.98 6710.64L8813.67 6771.14L8670.41 6833.03L8525.2 6895.98L8378.07 6959.65L8229.02 7023.72L8078.08 7087.85L7925.26 7151.72L7770.58 7214.99L7614.05 7277.33L7455.68 7338.42L7295.51 7397.93L7133.53 7455.51L6969.77 7510.85L6804.24 7563.61L6636.96 7613.46L6467.95 7660.07L6297.21 7703.11L6124.77 7742.25L5950.65 7777.16L5774.85 7807.51L5597.4 7832.97L5418.31 7853.2L5237.59 7867.89L5055.27 7876.69L5028.64 7877.36L5002.33 7876.49L4976.35 7874.13L4950.72 7870.32L4925.47 7865.12L4900.6 7858.57L4876.14 7850.7L4852.11 7841.58L4828.53 7831.24L4805.41 7819.74L4782.77 7807.11L4760.63 7793.4L4739.02 7778.66L4717.94 7762.93L4697.42 7746.27L4677.48 7728.71L4658.13 7710.3L4639.4 7691.09L4621.29 7671.12L4603.84 7650.44L4587.06 7629.1L4570.97 7607.13L4555.58 7584.6L4540.92 7561.53L4527 7537.99L4513.85 7514.01L4501.47 7489.63L4489.9 7464.92L4479.14 7439.9L4469.23 7414.64L4460.17 7389.16L4451.98 7363.53L4444.69 7337.78L4438.3 7311.96L4432.85 7286.12L4428.35 7260.3L4424.82 7234.55L4422.27 7208.91L4420.73 7183.43L4420.21 7158.16L4416.89 7118.64L4413.57 7079.12L4410.26 7039.59L4406.94 7000.07L4403.62 6960.55L4400.3 6921.03L4396.98 6881.51L4393.66 6841.99L4390.35 6802.46L4387.03 6762.94L4383.71 6723.42L4380.39 6683.9L4377.07 6644.38L4373.75 6604.85L4370.43 6565.33L4367.11 6525.81L4363.8 6486.29L4360.48 6446.77L4357.16 6407.25L4350.52 6328.2L4347.2 6288.68L4343.88 6249.16L4340.57 6209.64L4337.25 6170.12L4333.93 6130.6L4330.61 6091.07L4327.29 6051.55L4323.97 6012.03L4320.65 5972.51L4317.33 5932.99L4314.02 5893.46L4310.7 5853.94L4307.38 5814.42L4304.06 5774.9L4300.74 5735.38L4297.42 5695.86L4294.11 5656.33L4290.79 5616.81L4287.47 5577.29L4454.15 5382.57L4626.6 5197.7L4804.44 5022.58L4987.3 4857.11L5174.8 4701.2L5366.58 4554.74L5562.24 4417.64L5761.42 4289.8L5963.74 4171.13L6168.83 4061.52L6376.31 3960.88L6585.81 3869.11L6796.94 3786.11L7009.34 3711.78L7222.62 3646.03L7436.42 3588.76L7650.36 3539.87L7864.06 3499.26L8077.14 3466.84L8289.24 3442.5L8499.97 3426.15L8708.96 3417.69L8915.84 3417.03L9120.23 3424.06L9321.75 3438.68ZM17332.4 15254.91L17196.16 15302.05L17060.92 15350.44L16926.67 15400.08L16793.42 15450.97L16661.17 15503.1L16529.91 15556.46L16399.64 15611.07L16270.36 15666.91L16142.07 15723.99L16014.76 15782.3L15888.43 15841.83L15763.08 15902.59L15638.71 15964.57L15515.32 16027.77L15392.9 16092.19L15271.45 16157.82L15150.97 16224.67L15031.46 16292.72L14912.91 16361.99L14795.33 16432.45L14678.71 16504.12L14563.04 16576.99L14448.34 16651.05L14334.59 16726.31L14221.79 16802.75L14109.94 16880.39L13999.04 16959.21L13889.08 17039.22L13780.08 17120.4L13672.01 17202.77L13564.88 17286.31L13458.69 17371.02L13353.44 17456.9L13249.12 17543.95L13145.73 17632.17L13043.28 17721.55L12941.74 17812.09L12841.14 17903.78L12840.73 17928.27L12840.36 17953.05L12840.02 17978.11L12839.72 18003.47L12839.46 18029.15L12839.24 18055.14L12839.06 18081.47L12838.92 18108.14L12838.83 18135.16L12838.78 18162.55L12838.78 18190.31L12838.83 18218.46L12838.93 18247.01L12839.08 18275.96L12839.28 18305.34L12839.53 18335.14L12839.84 18365.38L12840.21 18396.07L12840.64 18427.22L12841.12 18458.85L12841.66 18490.96L12842.27 18523.56L12842.94 18556.67L12843.67 18590.29L12844.47 18624.44L12845.34 18659.12L12846.27 18694.35L12847.28 18730.14L12848.35 18766.5L12849.5 18803.44L12850.72 18840.97L12852.02 18879.1L12853.39 18917.85L12854.85 18957.21L12856.38 18997.21L12857.99 19037.86L12859.68 19079.15L12861.46 19121.12L12863.32 19163.76L12865.27 19207.09L13016.14 19215.73L13165.72 19224.88L13314 19234.52L13460.99 19244.67L13606.67 19255.31L13751.06 19266.44L13894.14 19278.07L14035.92 19290.18L14176.39 19302.77L14315.55 19315.85L14453.4 19329.41L14589.94 19343.45L14725.17 19357.96L14859.09 19372.94L14991.68 19388.39L15122.96 19404.31L15252.92 19420.69L15381.55 19437.53L15508.86 19454.83L15634.85 19472.58L15759.5 19490.79L15882.83 19509.44L16004.83 19528.55L16125.49 19548.09L16244.82 19568.08L16362.82 19588.51L16479.47 19609.38L16594.78 19630.67L16708.76 19652.4L16821.39 19674.56L16932.67 19697.14L17042.61 19720.15L17151.2 19743.58L17258.44 19767.42L17364.32 19791.68L17468.85 19816.35L17572.03 19841.42L17673.84 19866.91L17774.3 19892.8L17873.4 19919.09L17874.12 19801.86L17874.8 19684.62L17875.43 19567.37L17875.97 19450.1L17876.39 19332.8L17876.67 19215.47L17876.79 19098.1L17876.71 18980.69L17876.4 18863.23L17875.85 18745.72L17875.02 18628.14L17873.88 18510.5L17872.41 18392.78L17870.59 18274.98L17868.37 18157.1L17865.75 18039.12L17862.68 17921.04L17859.15 17802.87L17855.12 17684.58L17850.56 17566.17L17845.46 17447.65L17839.78 17328.99L17833.5 17210.2L17826.58 17091.27L17819.01 16972.2L17810.75 16852.97L17801.78 16733.58L17792.07 16614.03L17781.59 16494.31L17770.32 16374.41L17758.22 16254.33L17745.28 16134.06L17731.46 16013.6L17716.74 15892.94L17701.08 15772.06L17684.47 15650.98L17666.87 15529.68L17648.26 15408.15L17628.62 15286.39L17607.9 15164.4L17469.65 15209.03L17332.4 15254.91ZM12421.84 17808.23L12389.77 17826.59L12357.39 17844.77L12324.68 17862.77L12291.65 17880.59L12258.28 17898.23L12224.57 17915.68L12190.51 17932.94L12156.1 17950.01L12121.33 17966.87L12086.2 17983.53L12050.69 17999.97L12014.8 18016.21L11978.53 18032.23L11941.87 18048.03L11904.81 18063.6L11867.35 18078.94L11829.48 18094.06L11791.19 18108.93L11752.47 18123.56L11713.33 18137.95L11673.76 18152.08L11633.74 18165.97L11593.28 18179.59L11552.36 18192.96L11510.98 18206.06L11469.14 18218.88L11426.82 18231.44L11384.02 18243.71L11340.74 18255.71L11296.97 18267.42L11252.7 18278.83L11207.92 18289.96L11162.64 18300.78L11116.83 18311.3L11070.51 18321.52L11023.65 18331.42L10976.26 18341.01L10928.33 18350.28L10944.9 18379.19L10961.17 18407.99L10977.13 18436.7L10992.79 18465.31L11008.13 18493.84L11023.15 18522.29L11037.86 18550.65L11052.24 18578.95L11066.3 18607.18L11080.03 18635.36L11093.43 18663.47L11106.49 18691.54L11119.22 18719.57L11131.61 18747.55L11143.65 18775.51L11155.35 18803.44L11166.7 18831.34L11177.69 18859.23L11188.33 18887.11L11198.61 18914.98L11208.53 18942.85L11218.08 18970.73L11227.27 18998.62L11236.08 19026.52L11244.52 19054.45L11252.58 19082.41L11260.26 19110.39L11267.56 19138.42L11274.47 19166.49L11280.99 19194.6L11287.12 19222.78L11292.85 19251.01L11298.19 19279.31L11303.12 19307.67L11307.65 19336.12L11311.76 19364.65L11315.47 19393.26L11318.76 19421.97L11321.64 19450.77L11324.09 19479.68L11352.88 19470.44L11381.73 19461.26L11410.62 19452.15L11439.56 19443.13L11468.55 19434.2L11497.6 19425.36L11526.7 19416.63L11555.85 19408.01L11585.05 19399.51L11614.3 19391.14L11643.62 19382.91L11672.98 19374.81L11702.4 19366.87L11731.88 19359.08L11761.41 19351.46L11791.01 19344.01L11820.66 19336.75L11850.36 19329.67L11880.13 19322.79L11909.96 19316.11L11939.85 19309.64L11969.79 19303.39L11999.8 19297.37L12029.88 19291.58L12060.01 19286.04L12090.21 19280.74L12120.47 19275.7L12150.8 19270.92L12181.19 19266.42L12211.65 19262.19L12242.17 19258.26L12272.76 19254.61L12303.42 19251.28L12334.15 19248.25L12364.94 19245.53L12395.81 19243.15L12426.74 19241.1L12457.75 19239.38L12488.82 19238.02L12519.97 19237.01L12519.07 19199.1L12518.17 19161.38L12517.28 19123.85L12516.39 19086.49L12515.5 19049.29L12514.62 19012.25L12513.74 18975.35L12512.87 18938.58L12511.99 18901.93L12511.12 18865.4L12510.26 18828.97L12509.39 18792.63L12508.53 18756.38L12507.66 18720.19L12506.8 18684.07L12505.95 18648L12505.09 18611.97L12504.23 18575.97L12503.37 18539.99L12501.66 18468.05L12500.8 18432.07L12499.94 18396.07L12499.08 18360.04L12498.23 18323.97L12497.37 18287.85L12496.5 18251.66L12495.64 18215.41L12494.77 18179.07L12493.91 18142.64L12493.04 18106.11L12492.16 18069.46L12491.29 18032.69L12490.41 17995.79L12489.53 17958.75L12488.64 17921.55L12487.75 17884.19L12486.86 17846.66L12485.96 17808.94L12485.06 17771.03L12453.6 17789.71L12421.84 17808.23Z" id="a1f4TfcAHA" class="LFPxAmmm_0"></path><path d="M307.12 475.68C313.18 479.22 318.99 493.61 324.55 518.86L370 512.05L366.97 449.92" id="g37QGCtQgk" class="LFPxAmmm_1"></path><path d="" id="bhjjz9NSd" class="LFPxAmmm_2"></path><path d="M307.12 474.92L320 461.29" id="aoS6DJBJI" class="LFPxAmmm_3"></path><path d="M100.3 477.89C147.52 451.21 218.88 451.21 314.38 477.89" id="a1o9BNnR2" class="LFPxAmmm_4"></path><path d="M120.44 618.32C110.27 575.18 104.57 525.98 103.35 470.73" id="c14bCXar4L" class="LFPxAmmm_5"></path><path d="M307.12 529.47C269.57 542.42 206.37 574.8 117.52 626.61" id="d2x0W1EGlT" class="LFPxAmmm_6"></path><path d="M533.79 363.39C468.53 384.14 412.67 412.98 366.21 449.92" id="f96gjEj7mR" class="LFPxAmmm_7"></path><path d="M540.96 525.07C543.07 465.51 538.75 414.48 528 372" id="aVFdTJc7H" class="LFPxAmmm_8"></path><path d="M369.81 511.87C394.78 507.4 454.03 514.48 547.55 533.13" id="a8ox9027Se" class="LFPxAmmm_9"></path><path d="M341.56 58.83C337.41 61.08 330.67 56.66 326.51 48.98C322.34 41.29 322.33 33.23 326.48 30.99C330.63 28.74 337.37 33.16 341.53 40.84C345.69 48.53 345.7 56.59 341.56 58.83Z" id="a11UsDXDi1" class="LFPxAmmm_10"></path><path d="M312.7 527.64C314.08 531.84 312.62 536.09 309.45 537.13C306.28 538.17 302.59 535.61 301.21 531.42C299.83 527.23 301.28 522.97 304.45 521.93C307.62 520.89 311.32 523.45 312.7 527.64Z" id="a2wXx0NZW" class="LFPxAmmm_11"></path><path d="M366.21 449.92C343.69 450.73 326.41 457.67 314.38 470.73C310.51 429.38 312.38 398.62 320 378.43C331.43 348.14 368 317.85 376.57 314.43C385.14 311 410.85 278.43 357.71 287C304.57 295.57 277.71 327 224 335.57C170.28 344.14 188.57 325.85 189.71 317.93C190.85 310 248 292.71 278.28 284.14C308.57 275.57 352.57 257.85 362.85 246.43C373.14 235 395.43 210.43 310.85 241.85C226.28 273.28 222.28 283.57 193.71 289.28C165.14 295 169.14 281.28 176.57 272.71C184 264.14 238.28 245.85 278.28 232.14C318.28 218.43 359.43 196.14 362.85 185.85C365.14 179 360.38 175.38 348.57 175C303.62 189.85 267.23 204.52 239.43 219C197.71 240.71 162.28 238.43 156.57 237.85C150.85 237.28 137.14 220.71 169.14 212.14C201.14 203.57 225.14 192.14 273.71 180.71C322.28 169.28 349.71 149.85 357.71 139C365.71 128.14 359.43 116.14 336.57 121.85C313.71 127.57 291.43 137.85 228 172.71C164.57 207.57 144 195.57 138.28 195C132.57 194.43 128.57 189.28 134.28 177.28C140 165.28 195.43 152.14 216.57 144.14C237.71 136.14 351.43 109.85 334.02 91.57C316.61 73.28 214.28 114.43 205.14 121.85C196 129.28 26.85 176.14 106.85 89.85C186.85 3.57 279.43 9.28 300.69 17.85C314.87 23.57 326.83 33.47 336.57 47.57" id="b1yssZm28k" class="LFPxAmmm_12"></path></defs><g><g><g><use xlink:href="#a1f4TfcAHA" opacity="1" fill="#1c1b17" fill-opacity="1"></use><g><use xlink:href="#a1f4TfcAHA" opacity="1" fill-opacity="0" stroke="#000000" stroke-width="1" stroke-opacity="0"></use></g></g><g><g><filter id="shadow1834107" x="278.12" y="420.92" width="128.88" height="132.94" filterUnits="userSpaceOnUse" primitiveUnits="userSpaceOnUse"><feFlood></feFlood><feComposite in2="SourceAlpha" operator="in"></feComposite><feGaussianBlur stdDeviation="2.24"></feGaussianBlur><feOffset dx="8" dy="6" result="afterOffset"></feOffset><feFlood flood-color="#000000" flood-opacity="0.5"></feFlood><feComposite in2="afterOffset" operator="in"></feComposite><feMorphology operator="dilate" radius="6"></feMorphology><feComposite in2="SourceAlpha" operator="out"></feComposite></filter><path d="M307.12 475.68C313.18 479.22 318.99 493.61 324.55 518.86L370 512.05L366.97 449.92" id="a18b0bNnxw" fill="none" stroke="white" filter="url(#shadow1834107)" class="LFPxAmmm_13"></path></g><g><use xlink:href="#g37QGCtQgk" opacity="1" fill-opacity="0" stroke="#000000" stroke-width="16" stroke-opacity="1"></use></g></g><g><g><use xlink:href="#bhjjz9NSd" opacity="1" fill-opacity="0" stroke="#000000" stroke-width="1" stroke-opacity="1"></use></g></g><g><g><use xlink:href="#aoS6DJBJI" opacity="1" fill-opacity="0" stroke="#000000" stroke-width="1" stroke-opacity="1"></use></g></g><g><g><filter id="shadow9021988" x="61.3" y="418.88" width="293.08" height="105.01" filterUnits="userSpaceOnUse" primitiveUnits="userSpaceOnUse"><feFlood></feFlood><feComposite in2="SourceAlpha" operator="in"></feComposite><feGaussianBlur stdDeviation="3"></feGaussianBlur><feOffset dx="1" dy="7" result="afterOffset"></feOffset><feFlood flood-color="#000000" flood-opacity="0.5"></feFlood><feComposite in2="afterOffset" operator="in"></feComposite><feMorphology operator="dilate" radius="9"></feMorphology><feComposite in2="SourceAlpha" operator="out"></feComposite></filter><path d="M100.3 477.89C147.52 451.21 218.88 451.21 314.38 477.89" id="c2iZliVerV" fill="none" stroke="white" filter="url(#shadow9021988)" class="LFPxAmmm_14"></path></g><g><use xlink:href="#a1o9BNnR2" opacity="1" fill-opacity="0" stroke="#000000" stroke-width="16" stroke-opacity="1"></use></g></g><g><g><filter id="shadow11950458" x="72.35" y="439.73" width="87.09" height="210.59" filterUnits="userSpaceOnUse" primitiveUnits="userSpaceOnUse"><feFlood></feFlood><feComposite in2="SourceAlpha" operator="in"></feComposite><feGaussianBlur stdDeviation="2.45"></feGaussianBlur><feOffset dx="8" dy="1" result="afterOffset"></feOffset><feFlood flood-color="#000000" flood-opacity="0.5"></feFlood><feComposite in2="afterOffset" operator="in"></feComposite><feMorphology operator="dilate" radius="6"></feMorphology><feComposite in2="SourceAlpha" operator="out"></feComposite></filter><path d="M120.44 618.32C110.27 575.18 104.57 525.98 103.35 470.73" id="a1Fz5K19ve" fill="none" stroke="white" filter="url(#shadow11950458)" class="LFPxAmmm_15"></path></g><g><use xlink:href="#c14bCXar4L" opacity="1" fill-opacity="0" stroke="#000000" stroke-width="14" stroke-opacity="1"></use></g></g><g><g><filter id="shadow1892649" x="83.52" y="495.47" width="258.6" height="170.15" filterUnits="userSpaceOnUse" primitiveUnits="userSpaceOnUse"><feFlood></feFlood><feComposite in2="SourceAlpha" operator="in"></feComposite><feGaussianBlur stdDeviation="2.83"></feGaussianBlur><feOffset dx="1" dy="5" result="afterOffset"></feOffset><feFlood flood-color="#000000" flood-opacity="0.5"></feFlood><feComposite in2="afterOffset" operator="in"></feComposite><feMorphology operator="dilate" radius="8"></feMorphology><feComposite in2="SourceAlpha" operator="out"></feComposite></filter><path d="M307.12 529.47C269.57 542.42 206.37 574.8 117.52 626.61" id="b47m6HSgW" fill="none" stroke="white" filter="url(#shadow1892649)" class="LFPxAmmm_16"></path></g><g><use xlink:href="#d2x0W1EGlT" opacity="1" fill-opacity="0" stroke="#000000" stroke-width="16" stroke-opacity="1"></use></g></g><g><g><filter id="shadow8748968" x="336.21" y="333.39" width="228.58" height="152.54" filterUnits="userSpaceOnUse" primitiveUnits="userSpaceOnUse"><feFlood></feFlood><feComposite in2="SourceAlpha" operator="in"></feComposite><feGaussianBlur stdDeviation="2.65"></feGaussianBlur><feOffset dx="1" dy="6" result="afterOffset"></feOffset><feFlood flood-color="#000000" flood-opacity="0.5"></feFlood><feComposite in2="afterOffset" operator="in"></feComposite><feMorphology operator="dilate" radius="5"></feMorphology><feComposite in2="SourceAlpha" operator="out"></feComposite></filter><path d="M533.79 363.39C468.53 384.14 412.67 412.98 366.21 449.92" id="h1bjV5fDtv" fill="none" stroke="white" filter="url(#shadow8748968)" class="LFPxAmmm_17"></path></g><g><use xlink:href="#f96gjEj7mR" opacity="1" fill-opacity="0" stroke="#000000" stroke-width="16" stroke-opacity="1"></use></g></g><g><g><filter id="shadow15299966" x="504" y="348" width="64.48" height="202.07" filterUnits="userSpaceOnUse" primitiveUnits="userSpaceOnUse"><feFlood></feFlood><feComposite in2="SourceAlpha" operator="in"></feComposite><feGaussianBlur stdDeviation="2"></feGaussianBlur><feOffset dx="3" dy="1" result="afterOffset"></feOffset><feFlood flood-color="#000000" flood-opacity="0.5"></feFlood><feComposite in2="afterOffset" operator="in"></feComposite><feMorphology operator="dilate" radius="8"></feMorphology><feComposite in2="SourceAlpha" operator="out"></feComposite></filter><path d="M540.96 525.07C543.07 465.51 538.75 414.48 528 372" id="bB9Bcz7gN" fill="none" stroke="white" filter="url(#shadow15299966)" class="LFPxAmmm_18"></path></g><g><use xlink:href="#aVFdTJc7H" opacity="1" fill-opacity="0" stroke="#000000" stroke-width="16" stroke-opacity="1"></use></g></g><g><g><filter id="shadow4576744" x="335.81" y="476.57" width="249.74" height="99.56" filterUnits="userSpaceOnUse" primitiveUnits="userSpaceOnUse"><feFlood></feFlood><feComposite in2="SourceAlpha" operator="in"></feComposite><feGaussianBlur stdDeviation="2.83"></feGaussianBlur><feOffset dx="4" dy="9" result="afterOffset"></feOffset><feFlood flood-color="#000000" flood-opacity="0.5"></feFlood><feComposite in2="afterOffset" operator="in"></feComposite><feMorphology operator="dilate" radius="4"></feMorphology><feComposite in2="SourceAlpha" operator="out"></feComposite></filter><path d="M369.81 511.87C394.78 507.4 454.03 514.48 547.55 533.13" id="aeLYxav7d" fill="none" stroke="white" filter="url(#shadow4576744)" class="LFPxAmmm_19"></path></g><g><use xlink:href="#a8ox9027Se" opacity="1" fill-opacity="0" stroke="#000000" stroke-width="16" stroke-opacity="1"></use></g></g><g><use xlink:href="#a11UsDXDi1" opacity="1" fill="#000000" fill-opacity="1"></use></g><g><use xlink:href="#a2wXx0NZW" opacity="1" fill="#000000" fill-opacity="1"></use></g><g><g><filter id="shadow9922011" x="50.43" y="-21.72" width="377.92" height="531.45" filterUnits="userSpaceOnUse" primitiveUnits="userSpaceOnUse"><feFlood></feFlood><feComposite in2="SourceAlpha" operator="in"></feComposite><feGaussianBlur stdDeviation="3.16"></feGaussianBlur><feOffset dx="3" dy="4" result="afterOffset"></feOffset><feFlood flood-color="#000000" flood-opacity="0.5"></feFlood><feComposite in2="afterOffset" operator="in"></feComposite><feMorphology operator="dilate" radius="6"></feMorphology><feComposite in2="SourceAlpha" operator="out"></feComposite></filter><path d="M366.21 449.92C343.69 450.73 326.41 457.67 314.38 470.73C310.51 429.38 312.38 398.62 320 378.43C331.43 348.14 368 317.85 376.57 314.43C385.14 311 410.85 278.43 357.71 287C304.57 295.57 277.71 327 224 335.57C170.28 344.14 188.57 325.85 189.71 317.93C190.85 310 248 292.71 278.28 284.14C308.57 275.57 352.57 257.85 362.85 246.43C373.14 235 395.43 210.43 310.85 241.85C226.28 273.28 222.28 283.57 193.71 289.28C165.14 295 169.14 281.28 176.57 272.71C184 264.14 238.28 245.85 278.28 232.14C318.28 218.43 359.43 196.14 362.85 185.85C365.14 179 360.38 175.38 348.57 175C303.62 189.85 267.23 204.52 239.43 219C197.71 240.71 162.28 238.43 156.57 237.85C150.85 237.28 137.14 220.71 169.14 212.14C201.14 203.57 225.14 192.14 273.71 180.71C322.28 169.28 349.71 149.85 357.71 139C365.71 128.14 359.43 116.14 336.57 121.85C313.71 127.57 291.43 137.85 228 172.71C164.57 207.57 144 195.57 138.28 195C132.57 194.43 128.57 189.28 134.28 177.28C140 165.28 195.43 152.14 216.57 144.14C237.71 136.14 351.43 109.85 334.02 91.57C316.61 73.28 214.28 114.43 205.14 121.85C196 129.28 26.85 176.14 106.85 89.85C186.85 3.57 279.43 9.28 300.69 17.85C314.87 23.57 326.83 33.47 336.57 47.57" id="b3gIWQlPbG" fill="none" stroke="white" filter="url(#shadow9922011)" class="LFPxAmmm_20"></path></g><g><use xlink:href="#b1yssZm28k" opacity="1" fill-opacity="0" stroke="#000000" stroke-width="16" stroke-opacity="1"></use></g></g></g></g><style data-made-with="vivus-instant">.LFPxAmmm_0{stroke-dasharray:241723 241725;stroke-dashoffset:241724;animation:LFPxAmmm_draw 3000ms ease-in-out 0ms forwards;}.LFPxAmmm_1{stroke-dasharray:156 158;stroke-dashoffset:157;animation:LFPxAmmm_draw 3000ms ease-in-out 0ms forwards;}.LFPxAmmm_2{stroke-dasharray:0 2;stroke-dashoffset:1;animation:LFPxAmmm_draw 3000ms ease-in-out 0ms forwards;}.LFPxAmmm_3{stroke-dasharray:19 21;stroke-dashoffset:20;animation:LFPxAmmm_draw 3000ms ease-in-out 0ms forwards;}.LFPxAmmm_4{stroke-dasharray:220 222;stroke-dashoffset:221;animation:LFPxAmmm_draw 3000ms ease-in-out 0ms forwards;}.LFPxAmmm_5{stroke-dasharray:149 151;stroke-dashoffset:150;animation:LFPxAmmm_draw 3000ms ease-in-out 0ms forwards;}.LFPxAmmm_6{stroke-dasharray:214 216;stroke-dashoffset:215;animation:LFPxAmmm_draw 3000ms ease-in-out 0ms forwards;}.LFPxAmmm_7{stroke-dasharray:190 192;stroke-dashoffset:191;animation:LFPxAmmm_draw 3000ms ease-in-out 0ms forwards;}.LFPxAmmm_8{stroke-dasharray:155 157;stroke-dashoffset:156;animation:LFPxAmmm_draw 3000ms ease-in-out 0ms forwards;}.LFPxAmmm_9{stroke-dasharray:180 182;stroke-dashoffset:181;animation:LFPxAmmm_draw 3000ms ease-in-out 0ms forwards;}.LFPxAmmm_10{stroke-dasharray:79 81;stroke-dashoffset:80;animation:LFPxAmmm_draw 3000ms ease-in-out 0ms forwards;}.LFPxAmmm_11{stroke-dasharray:45 47;stroke-dashoffset:46;animation:LFPxAmmm_draw 3000ms ease-in-out 0ms forwards;}.LFPxAmmm_12{stroke-dasharray:2691 2693;stroke-dashoffset:2692;animation:LFPxAmmm_draw 3000ms ease-in-out 0ms forwards;}.LFPxAmmm_13{stroke-dasharray:156 158;stroke-dashoffset:157;animation:LFPxAmmm_draw 3000ms ease-in-out 0ms forwards;}.LFPxAmmm_14{stroke-dasharray:220 222;stroke-dashoffset:221;animation:LFPxAmmm_draw 3000ms ease-in-out 0ms forwards;}.LFPxAmmm_15{stroke-dasharray:149 151;stroke-dashoffset:150;animation:LFPxAmmm_draw 3000ms ease-in-out 0ms forwards;}.LFPxAmmm_16{stroke-dasharray:214 216;stroke-dashoffset:215;animation:LFPxAmmm_draw 3000ms ease-in-out 0ms forwards;}.LFPxAmmm_17{stroke-dasharray:190 192;stroke-dashoffset:191;animation:LFPxAmmm_draw 3000ms ease-in-out 0ms forwards;}.LFPxAmmm_18{stroke-dasharray:155 157;stroke-dashoffset:156;animation:LFPxAmmm_draw 3000ms ease-in-out 0ms forwards;}.LFPxAmmm_19{stroke-dasharray:180 182;stroke-dashoffset:181;animation:LFPxAmmm_draw 3000ms ease-in-out 0ms forwards;}.LFPxAmmm_20{stroke-dasharray:2691 2693;stroke-dashoffset:2692;animation:LFPxAmmm_draw 3000ms ease-in-out 0ms forwards;}@keyframes LFPxAmmm_draw{100%{stroke-dashoffset:0;}}@keyframes LFPxAmmm_fade{0%{stroke-opacity:1;}94.44444444444444%{stroke-opacity:1;}100%{stroke-opacity:0;}}</style></svg>